M48
; DRILL file {KiCad 8.0.5} date 2024-12-24T01:10:17+0900
; FORMAT={-:-/ absolute / metric / decimal}
; #@! TF.CreationDate,2024-12-24T01:10:17+09:00
; #@! TF.GenerationSoftware,Kicad,Pcbnew,8.0.5
; #@! TF.FileFunction,Plated,1,4,PTH
FMAT,2
METRIC
; #@! TA.AperFunction,Plated,PTH,ViaDrill
T1C0.300
; #@! TA.AperFunction,Plated,PTH,ViaDrill
T2C0.400
; #@! TA.AperFunction,Plated,PTH,ComponentDrill
T3C0.500
; #@! TA.AperFunction,Plated,PTH,ComponentDrill
T4C0.550
; #@! TA.AperFunction,Plated,PTH,ComponentDrill
T5C0.762
; #@! TA.AperFunction,Plated,PTH,ComponentDrill
T6C0.800
; #@! TA.AperFunction,Plated,PTH,ComponentDrill
T7C0.850
; #@! TA.AperFunction,Plated,PTH,ComponentDrill
T8C1.000
; #@! TA.AperFunction,Plated,PTH,ComponentDrill
T9C1.100
%
G90
G05
T1
X66.775Y-97.315
X70.25Y-84.777
X71.114Y-83.812
X73.105Y-61.575
X76.045Y-67.695
X77.195Y-85.355
X77.595Y-94.665
X81.665Y-84.625
X84.275Y-100.725
X86.185Y-95.545
X88.015Y-87.155
X88.035Y-80.155
X88.303Y-79.508
X88.915Y-87.335
X89.215Y-97.195
X89.275Y-99.97
X89.734Y-78.686
X90.725Y-80.845
X95.929Y-84.891
X96.335Y-80.95
X96.685Y-81.635
X96.925Y-83.275
X97.095Y-91.285
X97.095Y-91.985
X97.575Y-84.576
X97.615Y-85.385
X100.185Y-94.655
X100.305Y-74.735
X100.755Y-78.645
X100.835Y-75.265
X100.86Y-95.36
X101.185Y-80.205
X101.435Y-83.995
X101.435Y-87.735
X103.013Y-72.054
X103.61Y-72.42
X105.275Y-105.485
X110.435Y-88.285
X110.465Y-89.575
X110.555Y-78.855
X110.655Y-84.465
X110.845Y-64.475
X111.435Y-72.985
X111.465Y-73.745
X116.224Y-102.405
X116.29Y-92.651
X116.655Y-65.815
X117.415Y-70.68
X117.415Y-71.43
X120.305Y-90.405
X120.593Y-102.405
X121.203Y-97.833
X124.555Y-97.195
T2
X70.995Y-86.665
X77.825Y-83.155
X79.425Y-85.675
X79.915Y-74.765
X81.63Y-85.575
X82.325Y-71.775
X85.445Y-87.295
X85.64Y-86.195
X85.649Y-80.288
X86.555Y-61.845
X87.735Y-94.025
X91.725Y-82.215
X92.835Y-82.215
X93.787Y-89.233
X94.655Y-90.16
X97.105Y-72.935
X98.115Y-94.065
X113.085Y-99.605
X115.105Y-69.406
X115.475Y-74.495
X116.955Y-81.495
X116.965Y-86.235
X117.165Y-60.125
X118.565Y-65.225
X121.265Y-74.455
X122.855Y-105.385
X123.575Y-80.225
X125.115Y-85.195
X133.705Y-85.935
X149.515Y-88.105
T5
X100.725Y-69.515
X100.895Y-60.835
X103.225Y-69.515
X103.395Y-60.835
X105.725Y-69.515
X105.895Y-60.835
X129.28Y-60.916
X129.28Y-63.456
X129.28Y-65.996
X129.28Y-68.536
X129.28Y-71.076
X129.28Y-73.616
X129.28Y-76.156
X129.28Y-78.696
X129.28Y-81.236
X129.28Y-83.776
X129.28Y-86.316
X129.28Y-88.856
X129.28Y-91.396
X129.28Y-93.936
X129.28Y-96.476
X129.28Y-99.016
X152.14Y-60.916
X152.14Y-63.456
X152.14Y-65.996
X152.14Y-68.536
X152.14Y-71.076
X152.14Y-73.616
X152.14Y-76.156
X152.14Y-78.696
X152.14Y-81.236
X152.14Y-83.776
X152.14Y-86.316
X152.14Y-88.856
X152.14Y-91.396
X152.14Y-93.936
X152.14Y-96.476
X152.14Y-99.016
T6
X74.822Y-79.189
X74.822Y-84.069
T7
X77.105Y-61.575
X77.105Y-64.075
T8
X67.935Y-80.605
X67.935Y-83.145
X77.205Y-103.145
X79.745Y-103.145
X82.04Y-69.415
X82.285Y-103.145
X84.58Y-69.415
X84.825Y-103.145
X87.12Y-69.415
X89.275Y-103.145
X90.465Y-94.045
X91.815Y-103.145
X93.005Y-94.045
X94.355Y-103.145
X95.545Y-94.045
X96.895Y-103.145
X99.435Y-103.145
X100.715Y-65.145
X101.975Y-103.145
X103.255Y-65.145
X105.795Y-65.145
X135.055Y-74.455
X145.055Y-74.455
X157.935Y-80.595
X157.935Y-83.135
T9
X67.465Y-69.225
X67.465Y-73.725
X69.245Y-92.815
X69.245Y-97.315
X73.965Y-69.225
X73.965Y-73.725
X75.745Y-92.815
X75.745Y-97.315
T3
X118.703Y-60.159G85X118.703Y-59.509
G05
X125.703Y-60.159G85X125.703Y-59.509
G05
T4
X119.878Y-62.534G85X119.528Y-62.534
G05
X124.878Y-62.534G85X124.528Y-62.534
G05
M30
