%TF.GenerationSoftware,KiCad,Pcbnew,8.0.5*%
%TF.CreationDate,2024-12-24T01:11:55+09:00*%
%TF.ProjectId,Balancing_robot,42616c61-6e63-4696-9e67-5f726f626f74,rev?*%
%TF.SameCoordinates,Original*%
%TF.FileFunction,Legend,Bot*%
%TF.FilePolarity,Positive*%
%FSLAX46Y46*%
G04 Gerber Fmt 4.6, Leading zero omitted, Abs format (unit mm)*
G04 Created by KiCad (PCBNEW 8.0.5) date 2024-12-24 01:11:55*
%MOMM*%
%LPD*%
G01*
G04 APERTURE LIST*
G04 Aperture macros list*
%AMRoundRect*
0 Rectangle with rounded corners*
0 $1 Rounding radius*
0 $2 $3 $4 $5 $6 $7 $8 $9 X,Y pos of 4 corners*
0 Add a 4 corners polygon primitive as box body*
4,1,4,$2,$3,$4,$5,$6,$7,$8,$9,$2,$3,0*
0 Add four circle primitives for the rounded corners*
1,1,$1+$1,$2,$3*
1,1,$1+$1,$4,$5*
1,1,$1+$1,$6,$7*
1,1,$1+$1,$8,$9*
0 Add four rect primitives between the rounded corners*
20,1,$1+$1,$2,$3,$4,$5,0*
20,1,$1+$1,$4,$5,$6,$7,0*
20,1,$1+$1,$6,$7,$8,$9,0*
20,1,$1+$1,$8,$9,$2,$3,0*%
G04 Aperture macros list end*
%ADD10C,0.150000*%
%ADD11C,0.120000*%
%ADD12C,0.010000*%
%ADD13C,1.524000*%
%ADD14O,1.504000X1.154000*%
%ADD15C,3.200000*%
%ADD16C,2.000000*%
%ADD17R,1.700000X1.700000*%
%ADD18O,1.700000X1.700000*%
%ADD19RoundRect,0.250000X-0.675000X0.600000X-0.675000X-0.600000X0.675000X-0.600000X0.675000X0.600000X0*%
%ADD20O,1.850000X1.700000*%
%ADD21C,1.500000*%
%ADD22R,2.000000X2.000000*%
%ADD23RoundRect,0.225000X-0.250000X0.225000X-0.250000X-0.225000X0.250000X-0.225000X0.250000X0.225000X0*%
%ADD24RoundRect,0.200000X-0.275000X0.200000X-0.275000X-0.200000X0.275000X-0.200000X0.275000X0.200000X0*%
%ADD25RoundRect,0.200000X0.275000X-0.200000X0.275000X0.200000X-0.275000X0.200000X-0.275000X-0.200000X0*%
G04 APERTURE END LIST*
D10*
X114397857Y-93846065D02*
X114255000Y-93893684D01*
X114255000Y-93893684D02*
X114207381Y-93941303D01*
X114207381Y-93941303D02*
X114159762Y-94036541D01*
X114159762Y-94036541D02*
X114159762Y-94179398D01*
X114159762Y-94179398D02*
X114207381Y-94274636D01*
X114207381Y-94274636D02*
X114255000Y-94322256D01*
X114255000Y-94322256D02*
X114350238Y-94369875D01*
X114350238Y-94369875D02*
X114731190Y-94369875D01*
X114731190Y-94369875D02*
X114731190Y-93369875D01*
X114731190Y-93369875D02*
X114397857Y-93369875D01*
X114397857Y-93369875D02*
X114302619Y-93417494D01*
X114302619Y-93417494D02*
X114255000Y-93465113D01*
X114255000Y-93465113D02*
X114207381Y-93560351D01*
X114207381Y-93560351D02*
X114207381Y-93655589D01*
X114207381Y-93655589D02*
X114255000Y-93750827D01*
X114255000Y-93750827D02*
X114302619Y-93798446D01*
X114302619Y-93798446D02*
X114397857Y-93846065D01*
X114397857Y-93846065D02*
X114731190Y-93846065D01*
X113302619Y-94369875D02*
X113302619Y-93846065D01*
X113302619Y-93846065D02*
X113350238Y-93750827D01*
X113350238Y-93750827D02*
X113445476Y-93703208D01*
X113445476Y-93703208D02*
X113635952Y-93703208D01*
X113635952Y-93703208D02*
X113731190Y-93750827D01*
X113302619Y-94322256D02*
X113397857Y-94369875D01*
X113397857Y-94369875D02*
X113635952Y-94369875D01*
X113635952Y-94369875D02*
X113731190Y-94322256D01*
X113731190Y-94322256D02*
X113778809Y-94227017D01*
X113778809Y-94227017D02*
X113778809Y-94131779D01*
X113778809Y-94131779D02*
X113731190Y-94036541D01*
X113731190Y-94036541D02*
X113635952Y-93988922D01*
X113635952Y-93988922D02*
X113397857Y-93988922D01*
X113397857Y-93988922D02*
X113302619Y-93941303D01*
X112683571Y-94369875D02*
X112778809Y-94322256D01*
X112778809Y-94322256D02*
X112826428Y-94227017D01*
X112826428Y-94227017D02*
X112826428Y-93369875D01*
X111874047Y-94369875D02*
X111874047Y-93846065D01*
X111874047Y-93846065D02*
X111921666Y-93750827D01*
X111921666Y-93750827D02*
X112016904Y-93703208D01*
X112016904Y-93703208D02*
X112207380Y-93703208D01*
X112207380Y-93703208D02*
X112302618Y-93750827D01*
X111874047Y-94322256D02*
X111969285Y-94369875D01*
X111969285Y-94369875D02*
X112207380Y-94369875D01*
X112207380Y-94369875D02*
X112302618Y-94322256D01*
X112302618Y-94322256D02*
X112350237Y-94227017D01*
X112350237Y-94227017D02*
X112350237Y-94131779D01*
X112350237Y-94131779D02*
X112302618Y-94036541D01*
X112302618Y-94036541D02*
X112207380Y-93988922D01*
X112207380Y-93988922D02*
X111969285Y-93988922D01*
X111969285Y-93988922D02*
X111874047Y-93941303D01*
X111397856Y-93703208D02*
X111397856Y-94369875D01*
X111397856Y-93798446D02*
X111350237Y-93750827D01*
X111350237Y-93750827D02*
X111254999Y-93703208D01*
X111254999Y-93703208D02*
X111112142Y-93703208D01*
X111112142Y-93703208D02*
X111016904Y-93750827D01*
X111016904Y-93750827D02*
X110969285Y-93846065D01*
X110969285Y-93846065D02*
X110969285Y-94369875D01*
X110064523Y-94322256D02*
X110159761Y-94369875D01*
X110159761Y-94369875D02*
X110350237Y-94369875D01*
X110350237Y-94369875D02*
X110445475Y-94322256D01*
X110445475Y-94322256D02*
X110493094Y-94274636D01*
X110493094Y-94274636D02*
X110540713Y-94179398D01*
X110540713Y-94179398D02*
X110540713Y-93893684D01*
X110540713Y-93893684D02*
X110493094Y-93798446D01*
X110493094Y-93798446D02*
X110445475Y-93750827D01*
X110445475Y-93750827D02*
X110350237Y-93703208D01*
X110350237Y-93703208D02*
X110159761Y-93703208D01*
X110159761Y-93703208D02*
X110064523Y-93750827D01*
X109635951Y-94369875D02*
X109635951Y-93703208D01*
X109635951Y-93369875D02*
X109683570Y-93417494D01*
X109683570Y-93417494D02*
X109635951Y-93465113D01*
X109635951Y-93465113D02*
X109588332Y-93417494D01*
X109588332Y-93417494D02*
X109635951Y-93369875D01*
X109635951Y-93369875D02*
X109635951Y-93465113D01*
X109159761Y-93703208D02*
X109159761Y-94369875D01*
X109159761Y-93798446D02*
X109112142Y-93750827D01*
X109112142Y-93750827D02*
X109016904Y-93703208D01*
X109016904Y-93703208D02*
X108874047Y-93703208D01*
X108874047Y-93703208D02*
X108778809Y-93750827D01*
X108778809Y-93750827D02*
X108731190Y-93846065D01*
X108731190Y-93846065D02*
X108731190Y-94369875D01*
X107826428Y-93703208D02*
X107826428Y-94512732D01*
X107826428Y-94512732D02*
X107874047Y-94607970D01*
X107874047Y-94607970D02*
X107921666Y-94655589D01*
X107921666Y-94655589D02*
X108016904Y-94703208D01*
X108016904Y-94703208D02*
X108159761Y-94703208D01*
X108159761Y-94703208D02*
X108254999Y-94655589D01*
X107826428Y-94322256D02*
X107921666Y-94369875D01*
X107921666Y-94369875D02*
X108112142Y-94369875D01*
X108112142Y-94369875D02*
X108207380Y-94322256D01*
X108207380Y-94322256D02*
X108254999Y-94274636D01*
X108254999Y-94274636D02*
X108302618Y-94179398D01*
X108302618Y-94179398D02*
X108302618Y-93893684D01*
X108302618Y-93893684D02*
X108254999Y-93798446D01*
X108254999Y-93798446D02*
X108207380Y-93750827D01*
X108207380Y-93750827D02*
X108112142Y-93703208D01*
X108112142Y-93703208D02*
X107921666Y-93703208D01*
X107921666Y-93703208D02*
X107826428Y-93750827D01*
X106016904Y-94369875D02*
X106350237Y-93893684D01*
X106588332Y-94369875D02*
X106588332Y-93369875D01*
X106588332Y-93369875D02*
X106207380Y-93369875D01*
X106207380Y-93369875D02*
X106112142Y-93417494D01*
X106112142Y-93417494D02*
X106064523Y-93465113D01*
X106064523Y-93465113D02*
X106016904Y-93560351D01*
X106016904Y-93560351D02*
X106016904Y-93703208D01*
X106016904Y-93703208D02*
X106064523Y-93798446D01*
X106064523Y-93798446D02*
X106112142Y-93846065D01*
X106112142Y-93846065D02*
X106207380Y-93893684D01*
X106207380Y-93893684D02*
X106588332Y-93893684D01*
X105445475Y-94369875D02*
X105540713Y-94322256D01*
X105540713Y-94322256D02*
X105588332Y-94274636D01*
X105588332Y-94274636D02*
X105635951Y-94179398D01*
X105635951Y-94179398D02*
X105635951Y-93893684D01*
X105635951Y-93893684D02*
X105588332Y-93798446D01*
X105588332Y-93798446D02*
X105540713Y-93750827D01*
X105540713Y-93750827D02*
X105445475Y-93703208D01*
X105445475Y-93703208D02*
X105302618Y-93703208D01*
X105302618Y-93703208D02*
X105207380Y-93750827D01*
X105207380Y-93750827D02*
X105159761Y-93798446D01*
X105159761Y-93798446D02*
X105112142Y-93893684D01*
X105112142Y-93893684D02*
X105112142Y-94179398D01*
X105112142Y-94179398D02*
X105159761Y-94274636D01*
X105159761Y-94274636D02*
X105207380Y-94322256D01*
X105207380Y-94322256D02*
X105302618Y-94369875D01*
X105302618Y-94369875D02*
X105445475Y-94369875D01*
X104683570Y-94369875D02*
X104683570Y-93369875D01*
X104683570Y-93750827D02*
X104588332Y-93703208D01*
X104588332Y-93703208D02*
X104397856Y-93703208D01*
X104397856Y-93703208D02*
X104302618Y-93750827D01*
X104302618Y-93750827D02*
X104254999Y-93798446D01*
X104254999Y-93798446D02*
X104207380Y-93893684D01*
X104207380Y-93893684D02*
X104207380Y-94179398D01*
X104207380Y-94179398D02*
X104254999Y-94274636D01*
X104254999Y-94274636D02*
X104302618Y-94322256D01*
X104302618Y-94322256D02*
X104397856Y-94369875D01*
X104397856Y-94369875D02*
X104588332Y-94369875D01*
X104588332Y-94369875D02*
X104683570Y-94322256D01*
X103635951Y-94369875D02*
X103731189Y-94322256D01*
X103731189Y-94322256D02*
X103778808Y-94274636D01*
X103778808Y-94274636D02*
X103826427Y-94179398D01*
X103826427Y-94179398D02*
X103826427Y-93893684D01*
X103826427Y-93893684D02*
X103778808Y-93798446D01*
X103778808Y-93798446D02*
X103731189Y-93750827D01*
X103731189Y-93750827D02*
X103635951Y-93703208D01*
X103635951Y-93703208D02*
X103493094Y-93703208D01*
X103493094Y-93703208D02*
X103397856Y-93750827D01*
X103397856Y-93750827D02*
X103350237Y-93798446D01*
X103350237Y-93798446D02*
X103302618Y-93893684D01*
X103302618Y-93893684D02*
X103302618Y-94179398D01*
X103302618Y-94179398D02*
X103350237Y-94274636D01*
X103350237Y-94274636D02*
X103397856Y-94322256D01*
X103397856Y-94322256D02*
X103493094Y-94369875D01*
X103493094Y-94369875D02*
X103635951Y-94369875D01*
X103016903Y-93703208D02*
X102635951Y-93703208D01*
X102874046Y-93369875D02*
X102874046Y-94227017D01*
X102874046Y-94227017D02*
X102826427Y-94322256D01*
X102826427Y-94322256D02*
X102731189Y-94369875D01*
X102731189Y-94369875D02*
X102635951Y-94369875D01*
X112469285Y-95075057D02*
X112421666Y-95027438D01*
X112421666Y-95027438D02*
X112326428Y-94979819D01*
X112326428Y-94979819D02*
X112088333Y-94979819D01*
X112088333Y-94979819D02*
X111993095Y-95027438D01*
X111993095Y-95027438D02*
X111945476Y-95075057D01*
X111945476Y-95075057D02*
X111897857Y-95170295D01*
X111897857Y-95170295D02*
X111897857Y-95265533D01*
X111897857Y-95265533D02*
X111945476Y-95408390D01*
X111945476Y-95408390D02*
X112516904Y-95979819D01*
X112516904Y-95979819D02*
X111897857Y-95979819D01*
X111040714Y-95313152D02*
X111040714Y-95979819D01*
X111278809Y-94932200D02*
X111516904Y-95646485D01*
X111516904Y-95646485D02*
X110897857Y-95646485D01*
X109802619Y-94932200D02*
X110659761Y-96217914D01*
X108945476Y-95979819D02*
X109516904Y-95979819D01*
X109231190Y-95979819D02*
X109231190Y-94979819D01*
X109231190Y-94979819D02*
X109326428Y-95122676D01*
X109326428Y-95122676D02*
X109421666Y-95217914D01*
X109421666Y-95217914D02*
X109516904Y-95265533D01*
X108564523Y-95075057D02*
X108516904Y-95027438D01*
X108516904Y-95027438D02*
X108421666Y-94979819D01*
X108421666Y-94979819D02*
X108183571Y-94979819D01*
X108183571Y-94979819D02*
X108088333Y-95027438D01*
X108088333Y-95027438D02*
X108040714Y-95075057D01*
X108040714Y-95075057D02*
X107993095Y-95170295D01*
X107993095Y-95170295D02*
X107993095Y-95265533D01*
X107993095Y-95265533D02*
X108040714Y-95408390D01*
X108040714Y-95408390D02*
X108612142Y-95979819D01*
X108612142Y-95979819D02*
X107993095Y-95979819D01*
X106850238Y-94932200D02*
X107707380Y-96217914D01*
X106564523Y-95075057D02*
X106516904Y-95027438D01*
X106516904Y-95027438D02*
X106421666Y-94979819D01*
X106421666Y-94979819D02*
X106183571Y-94979819D01*
X106183571Y-94979819D02*
X106088333Y-95027438D01*
X106088333Y-95027438D02*
X106040714Y-95075057D01*
X106040714Y-95075057D02*
X105993095Y-95170295D01*
X105993095Y-95170295D02*
X105993095Y-95265533D01*
X105993095Y-95265533D02*
X106040714Y-95408390D01*
X106040714Y-95408390D02*
X106612142Y-95979819D01*
X106612142Y-95979819D02*
X105993095Y-95979819D01*
X105040714Y-95979819D02*
X105612142Y-95979819D01*
X105326428Y-95979819D02*
X105326428Y-94979819D01*
X105326428Y-94979819D02*
X105421666Y-95122676D01*
X105421666Y-95122676D02*
X105516904Y-95217914D01*
X105516904Y-95217914D02*
X105612142Y-95265533D01*
X117874048Y-97589763D02*
X117874048Y-96589763D01*
X117874048Y-96589763D02*
X117635953Y-96589763D01*
X117635953Y-96589763D02*
X117493096Y-96637382D01*
X117493096Y-96637382D02*
X117397858Y-96732620D01*
X117397858Y-96732620D02*
X117350239Y-96827858D01*
X117350239Y-96827858D02*
X117302620Y-97018334D01*
X117302620Y-97018334D02*
X117302620Y-97161191D01*
X117302620Y-97161191D02*
X117350239Y-97351667D01*
X117350239Y-97351667D02*
X117397858Y-97446905D01*
X117397858Y-97446905D02*
X117493096Y-97542144D01*
X117493096Y-97542144D02*
X117635953Y-97589763D01*
X117635953Y-97589763D02*
X117874048Y-97589763D01*
X116493096Y-97542144D02*
X116588334Y-97589763D01*
X116588334Y-97589763D02*
X116778810Y-97589763D01*
X116778810Y-97589763D02*
X116874048Y-97542144D01*
X116874048Y-97542144D02*
X116921667Y-97446905D01*
X116921667Y-97446905D02*
X116921667Y-97065953D01*
X116921667Y-97065953D02*
X116874048Y-96970715D01*
X116874048Y-96970715D02*
X116778810Y-96923096D01*
X116778810Y-96923096D02*
X116588334Y-96923096D01*
X116588334Y-96923096D02*
X116493096Y-96970715D01*
X116493096Y-96970715D02*
X116445477Y-97065953D01*
X116445477Y-97065953D02*
X116445477Y-97161191D01*
X116445477Y-97161191D02*
X116921667Y-97256429D01*
X116064524Y-97542144D02*
X115969286Y-97589763D01*
X115969286Y-97589763D02*
X115778810Y-97589763D01*
X115778810Y-97589763D02*
X115683572Y-97542144D01*
X115683572Y-97542144D02*
X115635953Y-97446905D01*
X115635953Y-97446905D02*
X115635953Y-97399286D01*
X115635953Y-97399286D02*
X115683572Y-97304048D01*
X115683572Y-97304048D02*
X115778810Y-97256429D01*
X115778810Y-97256429D02*
X115921667Y-97256429D01*
X115921667Y-97256429D02*
X116016905Y-97208810D01*
X116016905Y-97208810D02*
X116064524Y-97113572D01*
X116064524Y-97113572D02*
X116064524Y-97065953D01*
X116064524Y-97065953D02*
X116016905Y-96970715D01*
X116016905Y-96970715D02*
X115921667Y-96923096D01*
X115921667Y-96923096D02*
X115778810Y-96923096D01*
X115778810Y-96923096D02*
X115683572Y-96970715D01*
X115207381Y-97589763D02*
X115207381Y-96923096D01*
X115207381Y-96589763D02*
X115255000Y-96637382D01*
X115255000Y-96637382D02*
X115207381Y-96685001D01*
X115207381Y-96685001D02*
X115159762Y-96637382D01*
X115159762Y-96637382D02*
X115207381Y-96589763D01*
X115207381Y-96589763D02*
X115207381Y-96685001D01*
X114302620Y-96923096D02*
X114302620Y-97732620D01*
X114302620Y-97732620D02*
X114350239Y-97827858D01*
X114350239Y-97827858D02*
X114397858Y-97875477D01*
X114397858Y-97875477D02*
X114493096Y-97923096D01*
X114493096Y-97923096D02*
X114635953Y-97923096D01*
X114635953Y-97923096D02*
X114731191Y-97875477D01*
X114302620Y-97542144D02*
X114397858Y-97589763D01*
X114397858Y-97589763D02*
X114588334Y-97589763D01*
X114588334Y-97589763D02*
X114683572Y-97542144D01*
X114683572Y-97542144D02*
X114731191Y-97494524D01*
X114731191Y-97494524D02*
X114778810Y-97399286D01*
X114778810Y-97399286D02*
X114778810Y-97113572D01*
X114778810Y-97113572D02*
X114731191Y-97018334D01*
X114731191Y-97018334D02*
X114683572Y-96970715D01*
X114683572Y-96970715D02*
X114588334Y-96923096D01*
X114588334Y-96923096D02*
X114397858Y-96923096D01*
X114397858Y-96923096D02*
X114302620Y-96970715D01*
X113826429Y-96923096D02*
X113826429Y-97589763D01*
X113826429Y-97018334D02*
X113778810Y-96970715D01*
X113778810Y-96970715D02*
X113683572Y-96923096D01*
X113683572Y-96923096D02*
X113540715Y-96923096D01*
X113540715Y-96923096D02*
X113445477Y-96970715D01*
X113445477Y-96970715D02*
X113397858Y-97065953D01*
X113397858Y-97065953D02*
X113397858Y-97589763D01*
X112540715Y-97542144D02*
X112635953Y-97589763D01*
X112635953Y-97589763D02*
X112826429Y-97589763D01*
X112826429Y-97589763D02*
X112921667Y-97542144D01*
X112921667Y-97542144D02*
X112969286Y-97446905D01*
X112969286Y-97446905D02*
X112969286Y-97065953D01*
X112969286Y-97065953D02*
X112921667Y-96970715D01*
X112921667Y-96970715D02*
X112826429Y-96923096D01*
X112826429Y-96923096D02*
X112635953Y-96923096D01*
X112635953Y-96923096D02*
X112540715Y-96970715D01*
X112540715Y-96970715D02*
X112493096Y-97065953D01*
X112493096Y-97065953D02*
X112493096Y-97161191D01*
X112493096Y-97161191D02*
X112969286Y-97256429D01*
X111635953Y-97589763D02*
X111635953Y-96589763D01*
X111635953Y-97542144D02*
X111731191Y-97589763D01*
X111731191Y-97589763D02*
X111921667Y-97589763D01*
X111921667Y-97589763D02*
X112016905Y-97542144D01*
X112016905Y-97542144D02*
X112064524Y-97494524D01*
X112064524Y-97494524D02*
X112112143Y-97399286D01*
X112112143Y-97399286D02*
X112112143Y-97113572D01*
X112112143Y-97113572D02*
X112064524Y-97018334D01*
X112064524Y-97018334D02*
X112016905Y-96970715D01*
X112016905Y-96970715D02*
X111921667Y-96923096D01*
X111921667Y-96923096D02*
X111731191Y-96923096D01*
X111731191Y-96923096D02*
X111635953Y-96970715D01*
X110397857Y-97589763D02*
X110397857Y-96589763D01*
X110397857Y-96970715D02*
X110302619Y-96923096D01*
X110302619Y-96923096D02*
X110112143Y-96923096D01*
X110112143Y-96923096D02*
X110016905Y-96970715D01*
X110016905Y-96970715D02*
X109969286Y-97018334D01*
X109969286Y-97018334D02*
X109921667Y-97113572D01*
X109921667Y-97113572D02*
X109921667Y-97399286D01*
X109921667Y-97399286D02*
X109969286Y-97494524D01*
X109969286Y-97494524D02*
X110016905Y-97542144D01*
X110016905Y-97542144D02*
X110112143Y-97589763D01*
X110112143Y-97589763D02*
X110302619Y-97589763D01*
X110302619Y-97589763D02*
X110397857Y-97542144D01*
X109588333Y-96923096D02*
X109350238Y-97589763D01*
X109112143Y-96923096D02*
X109350238Y-97589763D01*
X109350238Y-97589763D02*
X109445476Y-97827858D01*
X109445476Y-97827858D02*
X109493095Y-97875477D01*
X109493095Y-97875477D02*
X109588333Y-97923096D01*
X107683571Y-96589763D02*
X107683571Y-97304048D01*
X107683571Y-97304048D02*
X107731190Y-97446905D01*
X107731190Y-97446905D02*
X107826428Y-97542144D01*
X107826428Y-97542144D02*
X107969285Y-97589763D01*
X107969285Y-97589763D02*
X108064523Y-97589763D01*
X106778809Y-97589763D02*
X106778809Y-97065953D01*
X106778809Y-97065953D02*
X106826428Y-96970715D01*
X106826428Y-96970715D02*
X106921666Y-96923096D01*
X106921666Y-96923096D02*
X107112142Y-96923096D01*
X107112142Y-96923096D02*
X107207380Y-96970715D01*
X106778809Y-97542144D02*
X106874047Y-97589763D01*
X106874047Y-97589763D02*
X107112142Y-97589763D01*
X107112142Y-97589763D02*
X107207380Y-97542144D01*
X107207380Y-97542144D02*
X107254999Y-97446905D01*
X107254999Y-97446905D02*
X107254999Y-97351667D01*
X107254999Y-97351667D02*
X107207380Y-97256429D01*
X107207380Y-97256429D02*
X107112142Y-97208810D01*
X107112142Y-97208810D02*
X106874047Y-97208810D01*
X106874047Y-97208810D02*
X106778809Y-97161191D01*
X105921666Y-97542144D02*
X106016904Y-97589763D01*
X106016904Y-97589763D02*
X106207380Y-97589763D01*
X106207380Y-97589763D02*
X106302618Y-97542144D01*
X106302618Y-97542144D02*
X106350237Y-97446905D01*
X106350237Y-97446905D02*
X106350237Y-97065953D01*
X106350237Y-97065953D02*
X106302618Y-96970715D01*
X106302618Y-96970715D02*
X106207380Y-96923096D01*
X106207380Y-96923096D02*
X106016904Y-96923096D01*
X106016904Y-96923096D02*
X105921666Y-96970715D01*
X105921666Y-96970715D02*
X105874047Y-97065953D01*
X105874047Y-97065953D02*
X105874047Y-97161191D01*
X105874047Y-97161191D02*
X106350237Y-97256429D01*
X105540713Y-96923096D02*
X105350237Y-97589763D01*
X105350237Y-97589763D02*
X105159761Y-97113572D01*
X105159761Y-97113572D02*
X104969285Y-97589763D01*
X104969285Y-97589763D02*
X104778809Y-96923096D01*
X104254999Y-97589763D02*
X104350237Y-97542144D01*
X104350237Y-97542144D02*
X104397856Y-97494524D01*
X104397856Y-97494524D02*
X104445475Y-97399286D01*
X104445475Y-97399286D02*
X104445475Y-97113572D01*
X104445475Y-97113572D02*
X104397856Y-97018334D01*
X104397856Y-97018334D02*
X104350237Y-96970715D01*
X104350237Y-96970715D02*
X104254999Y-96923096D01*
X104254999Y-96923096D02*
X104112142Y-96923096D01*
X104112142Y-96923096D02*
X104016904Y-96970715D01*
X104016904Y-96970715D02*
X103969285Y-97018334D01*
X103969285Y-97018334D02*
X103921666Y-97113572D01*
X103921666Y-97113572D02*
X103921666Y-97399286D01*
X103921666Y-97399286D02*
X103969285Y-97494524D01*
X103969285Y-97494524D02*
X104016904Y-97542144D01*
X104016904Y-97542144D02*
X104112142Y-97589763D01*
X104112142Y-97589763D02*
X104254999Y-97589763D01*
X103493094Y-96923096D02*
X103493094Y-97589763D01*
X103493094Y-97018334D02*
X103445475Y-96970715D01*
X103445475Y-96970715D02*
X103350237Y-96923096D01*
X103350237Y-96923096D02*
X103207380Y-96923096D01*
X103207380Y-96923096D02*
X103112142Y-96970715D01*
X103112142Y-96970715D02*
X103064523Y-97065953D01*
X103064523Y-97065953D02*
X103064523Y-97589763D01*
X101874046Y-97304048D02*
X101397856Y-97304048D01*
X101969284Y-97589763D02*
X101635951Y-96589763D01*
X101635951Y-96589763D02*
X101302618Y-97589763D01*
X100969284Y-97589763D02*
X100969284Y-96589763D01*
X100540713Y-97589763D02*
X100540713Y-97065953D01*
X100540713Y-97065953D02*
X100588332Y-96970715D01*
X100588332Y-96970715D02*
X100683570Y-96923096D01*
X100683570Y-96923096D02*
X100826427Y-96923096D01*
X100826427Y-96923096D02*
X100921665Y-96970715D01*
X100921665Y-96970715D02*
X100969284Y-97018334D01*
X100064522Y-96923096D02*
X100064522Y-97589763D01*
X100064522Y-97018334D02*
X100016903Y-96970715D01*
X100016903Y-96970715D02*
X99921665Y-96923096D01*
X99921665Y-96923096D02*
X99778808Y-96923096D01*
X99778808Y-96923096D02*
X99683570Y-96970715D01*
X99683570Y-96970715D02*
X99635951Y-97065953D01*
X99635951Y-97065953D02*
X99635951Y-97589763D01*
X140775952Y-66156009D02*
X140633095Y-66203628D01*
X140633095Y-66203628D02*
X140585476Y-66251247D01*
X140585476Y-66251247D02*
X140537857Y-66346485D01*
X140537857Y-66346485D02*
X140537857Y-66489342D01*
X140537857Y-66489342D02*
X140585476Y-66584580D01*
X140585476Y-66584580D02*
X140633095Y-66632200D01*
X140633095Y-66632200D02*
X140728333Y-66679819D01*
X140728333Y-66679819D02*
X141109285Y-66679819D01*
X141109285Y-66679819D02*
X141109285Y-65679819D01*
X141109285Y-65679819D02*
X140775952Y-65679819D01*
X140775952Y-65679819D02*
X140680714Y-65727438D01*
X140680714Y-65727438D02*
X140633095Y-65775057D01*
X140633095Y-65775057D02*
X140585476Y-65870295D01*
X140585476Y-65870295D02*
X140585476Y-65965533D01*
X140585476Y-65965533D02*
X140633095Y-66060771D01*
X140633095Y-66060771D02*
X140680714Y-66108390D01*
X140680714Y-66108390D02*
X140775952Y-66156009D01*
X140775952Y-66156009D02*
X141109285Y-66156009D01*
X140204523Y-65679819D02*
X139537857Y-65679819D01*
X139537857Y-65679819D02*
X140204523Y-66679819D01*
X140204523Y-66679819D02*
X139537857Y-66679819D01*
X139204523Y-65775057D02*
X139156904Y-65727438D01*
X139156904Y-65727438D02*
X139061666Y-65679819D01*
X139061666Y-65679819D02*
X138823571Y-65679819D01*
X138823571Y-65679819D02*
X138728333Y-65727438D01*
X138728333Y-65727438D02*
X138680714Y-65775057D01*
X138680714Y-65775057D02*
X138633095Y-65870295D01*
X138633095Y-65870295D02*
X138633095Y-65965533D01*
X138633095Y-65965533D02*
X138680714Y-66108390D01*
X138680714Y-66108390D02*
X139252142Y-66679819D01*
X139252142Y-66679819D02*
X138633095Y-66679819D01*
X145445951Y-71988866D02*
X144684047Y-71988866D01*
X145064999Y-72369819D02*
X145064999Y-71607914D01*
X136047857Y-90004580D02*
X136095476Y-90052200D01*
X136095476Y-90052200D02*
X136238333Y-90099819D01*
X136238333Y-90099819D02*
X136333571Y-90099819D01*
X136333571Y-90099819D02*
X136476428Y-90052200D01*
X136476428Y-90052200D02*
X136571666Y-89956961D01*
X136571666Y-89956961D02*
X136619285Y-89861723D01*
X136619285Y-89861723D02*
X136666904Y-89671247D01*
X136666904Y-89671247D02*
X136666904Y-89528390D01*
X136666904Y-89528390D02*
X136619285Y-89337914D01*
X136619285Y-89337914D02*
X136571666Y-89242676D01*
X136571666Y-89242676D02*
X136476428Y-89147438D01*
X136476428Y-89147438D02*
X136333571Y-89099819D01*
X136333571Y-89099819D02*
X136238333Y-89099819D01*
X136238333Y-89099819D02*
X136095476Y-89147438D01*
X136095476Y-89147438D02*
X136047857Y-89195057D01*
X135095476Y-90099819D02*
X135666904Y-90099819D01*
X135381190Y-90099819D02*
X135381190Y-89099819D01*
X135381190Y-89099819D02*
X135476428Y-89242676D01*
X135476428Y-89242676D02*
X135571666Y-89337914D01*
X135571666Y-89337914D02*
X135666904Y-89385533D01*
X134714523Y-89195057D02*
X134666904Y-89147438D01*
X134666904Y-89147438D02*
X134571666Y-89099819D01*
X134571666Y-89099819D02*
X134333571Y-89099819D01*
X134333571Y-89099819D02*
X134238333Y-89147438D01*
X134238333Y-89147438D02*
X134190714Y-89195057D01*
X134190714Y-89195057D02*
X134143095Y-89290295D01*
X134143095Y-89290295D02*
X134143095Y-89385533D01*
X134143095Y-89385533D02*
X134190714Y-89528390D01*
X134190714Y-89528390D02*
X134762142Y-90099819D01*
X134762142Y-90099819D02*
X134143095Y-90099819D01*
X116376666Y-103999819D02*
X116709999Y-103523628D01*
X116948094Y-103999819D02*
X116948094Y-102999819D01*
X116948094Y-102999819D02*
X116567142Y-102999819D01*
X116567142Y-102999819D02*
X116471904Y-103047438D01*
X116471904Y-103047438D02*
X116424285Y-103095057D01*
X116424285Y-103095057D02*
X116376666Y-103190295D01*
X116376666Y-103190295D02*
X116376666Y-103333152D01*
X116376666Y-103333152D02*
X116424285Y-103428390D01*
X116424285Y-103428390D02*
X116471904Y-103476009D01*
X116471904Y-103476009D02*
X116567142Y-103523628D01*
X116567142Y-103523628D02*
X116948094Y-103523628D01*
X116043332Y-102999819D02*
X115424285Y-102999819D01*
X115424285Y-102999819D02*
X115757618Y-103380771D01*
X115757618Y-103380771D02*
X115614761Y-103380771D01*
X115614761Y-103380771D02*
X115519523Y-103428390D01*
X115519523Y-103428390D02*
X115471904Y-103476009D01*
X115471904Y-103476009D02*
X115424285Y-103571247D01*
X115424285Y-103571247D02*
X115424285Y-103809342D01*
X115424285Y-103809342D02*
X115471904Y-103904580D01*
X115471904Y-103904580D02*
X115519523Y-103952200D01*
X115519523Y-103952200D02*
X115614761Y-103999819D01*
X115614761Y-103999819D02*
X115900475Y-103999819D01*
X115900475Y-103999819D02*
X115995713Y-103952200D01*
X115995713Y-103952200D02*
X116043332Y-103904580D01*
X139021666Y-89909580D02*
X139069285Y-89957200D01*
X139069285Y-89957200D02*
X139212142Y-90004819D01*
X139212142Y-90004819D02*
X139307380Y-90004819D01*
X139307380Y-90004819D02*
X139450237Y-89957200D01*
X139450237Y-89957200D02*
X139545475Y-89861961D01*
X139545475Y-89861961D02*
X139593094Y-89766723D01*
X139593094Y-89766723D02*
X139640713Y-89576247D01*
X139640713Y-89576247D02*
X139640713Y-89433390D01*
X139640713Y-89433390D02*
X139593094Y-89242914D01*
X139593094Y-89242914D02*
X139545475Y-89147676D01*
X139545475Y-89147676D02*
X139450237Y-89052438D01*
X139450237Y-89052438D02*
X139307380Y-89004819D01*
X139307380Y-89004819D02*
X139212142Y-89004819D01*
X139212142Y-89004819D02*
X139069285Y-89052438D01*
X139069285Y-89052438D02*
X139021666Y-89100057D01*
X138164523Y-89004819D02*
X138354999Y-89004819D01*
X138354999Y-89004819D02*
X138450237Y-89052438D01*
X138450237Y-89052438D02*
X138497856Y-89100057D01*
X138497856Y-89100057D02*
X138593094Y-89242914D01*
X138593094Y-89242914D02*
X138640713Y-89433390D01*
X138640713Y-89433390D02*
X138640713Y-89814342D01*
X138640713Y-89814342D02*
X138593094Y-89909580D01*
X138593094Y-89909580D02*
X138545475Y-89957200D01*
X138545475Y-89957200D02*
X138450237Y-90004819D01*
X138450237Y-90004819D02*
X138259761Y-90004819D01*
X138259761Y-90004819D02*
X138164523Y-89957200D01*
X138164523Y-89957200D02*
X138116904Y-89909580D01*
X138116904Y-89909580D02*
X138069285Y-89814342D01*
X138069285Y-89814342D02*
X138069285Y-89576247D01*
X138069285Y-89576247D02*
X138116904Y-89481009D01*
X138116904Y-89481009D02*
X138164523Y-89433390D01*
X138164523Y-89433390D02*
X138259761Y-89385771D01*
X138259761Y-89385771D02*
X138450237Y-89385771D01*
X138450237Y-89385771D02*
X138545475Y-89433390D01*
X138545475Y-89433390D02*
X138593094Y-89481009D01*
X138593094Y-89481009D02*
X138640713Y-89576247D01*
X120901666Y-103874819D02*
X121234999Y-103398628D01*
X121473094Y-103874819D02*
X121473094Y-102874819D01*
X121473094Y-102874819D02*
X121092142Y-102874819D01*
X121092142Y-102874819D02*
X120996904Y-102922438D01*
X120996904Y-102922438D02*
X120949285Y-102970057D01*
X120949285Y-102970057D02*
X120901666Y-103065295D01*
X120901666Y-103065295D02*
X120901666Y-103208152D01*
X120901666Y-103208152D02*
X120949285Y-103303390D01*
X120949285Y-103303390D02*
X120996904Y-103351009D01*
X120996904Y-103351009D02*
X121092142Y-103398628D01*
X121092142Y-103398628D02*
X121473094Y-103398628D01*
X120330237Y-103303390D02*
X120425475Y-103255771D01*
X120425475Y-103255771D02*
X120473094Y-103208152D01*
X120473094Y-103208152D02*
X120520713Y-103112914D01*
X120520713Y-103112914D02*
X120520713Y-103065295D01*
X120520713Y-103065295D02*
X120473094Y-102970057D01*
X120473094Y-102970057D02*
X120425475Y-102922438D01*
X120425475Y-102922438D02*
X120330237Y-102874819D01*
X120330237Y-102874819D02*
X120139761Y-102874819D01*
X120139761Y-102874819D02*
X120044523Y-102922438D01*
X120044523Y-102922438D02*
X119996904Y-102970057D01*
X119996904Y-102970057D02*
X119949285Y-103065295D01*
X119949285Y-103065295D02*
X119949285Y-103112914D01*
X119949285Y-103112914D02*
X119996904Y-103208152D01*
X119996904Y-103208152D02*
X120044523Y-103255771D01*
X120044523Y-103255771D02*
X120139761Y-103303390D01*
X120139761Y-103303390D02*
X120330237Y-103303390D01*
X120330237Y-103303390D02*
X120425475Y-103351009D01*
X120425475Y-103351009D02*
X120473094Y-103398628D01*
X120473094Y-103398628D02*
X120520713Y-103493866D01*
X120520713Y-103493866D02*
X120520713Y-103684342D01*
X120520713Y-103684342D02*
X120473094Y-103779580D01*
X120473094Y-103779580D02*
X120425475Y-103827200D01*
X120425475Y-103827200D02*
X120330237Y-103874819D01*
X120330237Y-103874819D02*
X120139761Y-103874819D01*
X120139761Y-103874819D02*
X120044523Y-103827200D01*
X120044523Y-103827200D02*
X119996904Y-103779580D01*
X119996904Y-103779580D02*
X119949285Y-103684342D01*
X119949285Y-103684342D02*
X119949285Y-103493866D01*
X119949285Y-103493866D02*
X119996904Y-103398628D01*
X119996904Y-103398628D02*
X120044523Y-103351009D01*
X120044523Y-103351009D02*
X120139761Y-103303390D01*
X147347857Y-89879580D02*
X147395476Y-89927200D01*
X147395476Y-89927200D02*
X147538333Y-89974819D01*
X147538333Y-89974819D02*
X147633571Y-89974819D01*
X147633571Y-89974819D02*
X147776428Y-89927200D01*
X147776428Y-89927200D02*
X147871666Y-89831961D01*
X147871666Y-89831961D02*
X147919285Y-89736723D01*
X147919285Y-89736723D02*
X147966904Y-89546247D01*
X147966904Y-89546247D02*
X147966904Y-89403390D01*
X147966904Y-89403390D02*
X147919285Y-89212914D01*
X147919285Y-89212914D02*
X147871666Y-89117676D01*
X147871666Y-89117676D02*
X147776428Y-89022438D01*
X147776428Y-89022438D02*
X147633571Y-88974819D01*
X147633571Y-88974819D02*
X147538333Y-88974819D01*
X147538333Y-88974819D02*
X147395476Y-89022438D01*
X147395476Y-89022438D02*
X147347857Y-89070057D01*
X146395476Y-89974819D02*
X146966904Y-89974819D01*
X146681190Y-89974819D02*
X146681190Y-88974819D01*
X146681190Y-88974819D02*
X146776428Y-89117676D01*
X146776428Y-89117676D02*
X146871666Y-89212914D01*
X146871666Y-89212914D02*
X146966904Y-89260533D01*
X145776428Y-88974819D02*
X145681190Y-88974819D01*
X145681190Y-88974819D02*
X145585952Y-89022438D01*
X145585952Y-89022438D02*
X145538333Y-89070057D01*
X145538333Y-89070057D02*
X145490714Y-89165295D01*
X145490714Y-89165295D02*
X145443095Y-89355771D01*
X145443095Y-89355771D02*
X145443095Y-89593866D01*
X145443095Y-89593866D02*
X145490714Y-89784342D01*
X145490714Y-89784342D02*
X145538333Y-89879580D01*
X145538333Y-89879580D02*
X145585952Y-89927200D01*
X145585952Y-89927200D02*
X145681190Y-89974819D01*
X145681190Y-89974819D02*
X145776428Y-89974819D01*
X145776428Y-89974819D02*
X145871666Y-89927200D01*
X145871666Y-89927200D02*
X145919285Y-89879580D01*
X145919285Y-89879580D02*
X145966904Y-89784342D01*
X145966904Y-89784342D02*
X146014523Y-89593866D01*
X146014523Y-89593866D02*
X146014523Y-89355771D01*
X146014523Y-89355771D02*
X145966904Y-89165295D01*
X145966904Y-89165295D02*
X145919285Y-89070057D01*
X145919285Y-89070057D02*
X145871666Y-89022438D01*
X145871666Y-89022438D02*
X145776428Y-88974819D01*
X144411666Y-90049580D02*
X144459285Y-90097200D01*
X144459285Y-90097200D02*
X144602142Y-90144819D01*
X144602142Y-90144819D02*
X144697380Y-90144819D01*
X144697380Y-90144819D02*
X144840237Y-90097200D01*
X144840237Y-90097200D02*
X144935475Y-90001961D01*
X144935475Y-90001961D02*
X144983094Y-89906723D01*
X144983094Y-89906723D02*
X145030713Y-89716247D01*
X145030713Y-89716247D02*
X145030713Y-89573390D01*
X145030713Y-89573390D02*
X144983094Y-89382914D01*
X144983094Y-89382914D02*
X144935475Y-89287676D01*
X144935475Y-89287676D02*
X144840237Y-89192438D01*
X144840237Y-89192438D02*
X144697380Y-89144819D01*
X144697380Y-89144819D02*
X144602142Y-89144819D01*
X144602142Y-89144819D02*
X144459285Y-89192438D01*
X144459285Y-89192438D02*
X144411666Y-89240057D01*
X143840237Y-89573390D02*
X143935475Y-89525771D01*
X143935475Y-89525771D02*
X143983094Y-89478152D01*
X143983094Y-89478152D02*
X144030713Y-89382914D01*
X144030713Y-89382914D02*
X144030713Y-89335295D01*
X144030713Y-89335295D02*
X143983094Y-89240057D01*
X143983094Y-89240057D02*
X143935475Y-89192438D01*
X143935475Y-89192438D02*
X143840237Y-89144819D01*
X143840237Y-89144819D02*
X143649761Y-89144819D01*
X143649761Y-89144819D02*
X143554523Y-89192438D01*
X143554523Y-89192438D02*
X143506904Y-89240057D01*
X143506904Y-89240057D02*
X143459285Y-89335295D01*
X143459285Y-89335295D02*
X143459285Y-89382914D01*
X143459285Y-89382914D02*
X143506904Y-89478152D01*
X143506904Y-89478152D02*
X143554523Y-89525771D01*
X143554523Y-89525771D02*
X143649761Y-89573390D01*
X143649761Y-89573390D02*
X143840237Y-89573390D01*
X143840237Y-89573390D02*
X143935475Y-89621009D01*
X143935475Y-89621009D02*
X143983094Y-89668628D01*
X143983094Y-89668628D02*
X144030713Y-89763866D01*
X144030713Y-89763866D02*
X144030713Y-89954342D01*
X144030713Y-89954342D02*
X143983094Y-90049580D01*
X143983094Y-90049580D02*
X143935475Y-90097200D01*
X143935475Y-90097200D02*
X143840237Y-90144819D01*
X143840237Y-90144819D02*
X143649761Y-90144819D01*
X143649761Y-90144819D02*
X143554523Y-90097200D01*
X143554523Y-90097200D02*
X143506904Y-90049580D01*
X143506904Y-90049580D02*
X143459285Y-89954342D01*
X143459285Y-89954342D02*
X143459285Y-89763866D01*
X143459285Y-89763866D02*
X143506904Y-89668628D01*
X143506904Y-89668628D02*
X143554523Y-89621009D01*
X143554523Y-89621009D02*
X143649761Y-89573390D01*
X141651666Y-89969580D02*
X141699285Y-90017200D01*
X141699285Y-90017200D02*
X141842142Y-90064819D01*
X141842142Y-90064819D02*
X141937380Y-90064819D01*
X141937380Y-90064819D02*
X142080237Y-90017200D01*
X142080237Y-90017200D02*
X142175475Y-89921961D01*
X142175475Y-89921961D02*
X142223094Y-89826723D01*
X142223094Y-89826723D02*
X142270713Y-89636247D01*
X142270713Y-89636247D02*
X142270713Y-89493390D01*
X142270713Y-89493390D02*
X142223094Y-89302914D01*
X142223094Y-89302914D02*
X142175475Y-89207676D01*
X142175475Y-89207676D02*
X142080237Y-89112438D01*
X142080237Y-89112438D02*
X141937380Y-89064819D01*
X141937380Y-89064819D02*
X141842142Y-89064819D01*
X141842142Y-89064819D02*
X141699285Y-89112438D01*
X141699285Y-89112438D02*
X141651666Y-89160057D01*
X141318332Y-89064819D02*
X140651666Y-89064819D01*
X140651666Y-89064819D02*
X141080237Y-90064819D01*
D11*
%TO.C,BZ2*%
X147155000Y-74455000D02*
G75*
G02*
X132955000Y-74455000I-7100000J0D01*
G01*
X132955000Y-74455000D02*
G75*
G02*
X147155000Y-74455000I7100000J0D01*
G01*
%TO.C,C12*%
X135495000Y-87490580D02*
X135495000Y-87209420D01*
X136515000Y-87490580D02*
X136515000Y-87209420D01*
%TO.C,R3*%
X115701700Y-100863858D02*
X115701700Y-100389342D01*
X116746700Y-100863858D02*
X116746700Y-100389342D01*
%TO.C,C6*%
X138545000Y-87490580D02*
X138545000Y-87209420D01*
X139565000Y-87490580D02*
X139565000Y-87209420D01*
%TO.C,R8*%
X120070500Y-100389342D02*
X120070500Y-100863858D01*
X121115500Y-100389342D02*
X121115500Y-100863858D01*
%TO.C,C10*%
X146805000Y-87505580D02*
X146805000Y-87224420D01*
X147825000Y-87505580D02*
X147825000Y-87224420D01*
%TO.C,C8*%
X144115000Y-87505580D02*
X144115000Y-87224420D01*
X145135000Y-87505580D02*
X145135000Y-87224420D01*
%TO.C,C7*%
X141365000Y-87490580D02*
X141365000Y-87209420D01*
X142385000Y-87490580D02*
X142385000Y-87209420D01*
%TD*%
%LPC*%
D12*
%TO.C,J4*%
X118728600Y-58960200D02*
X118753600Y-58962200D01*
X118778600Y-58965200D01*
X118803600Y-58970200D01*
X118828600Y-58976200D01*
X118853600Y-58983200D01*
X118877600Y-58991200D01*
X118900600Y-59001200D01*
X118923600Y-59012200D01*
X118946600Y-59024200D01*
X118968600Y-59038200D01*
X118989600Y-59052200D01*
X119009600Y-59068200D01*
X119028600Y-59084200D01*
X119047600Y-59102200D01*
X119064600Y-59120200D01*
X119081600Y-59140200D01*
X119096600Y-59160200D01*
X119111600Y-59181200D01*
X119124600Y-59203200D01*
X119136600Y-59225200D01*
X119147600Y-59248200D01*
X119157600Y-59272200D01*
X119166600Y-59296200D01*
X119173600Y-59320200D01*
X119179600Y-59345200D01*
X119183600Y-59370200D01*
X119187600Y-59396200D01*
X119189600Y-59421200D01*
X119189600Y-59446200D01*
X119189600Y-60222200D01*
X119189600Y-60247200D01*
X119187600Y-60272200D01*
X119183600Y-60298200D01*
X119179600Y-60323200D01*
X119173600Y-60348200D01*
X119166600Y-60372200D01*
X119157600Y-60396200D01*
X119147600Y-60420200D01*
X119136600Y-60443200D01*
X119124600Y-60465200D01*
X119111600Y-60487200D01*
X119096600Y-60508200D01*
X119081600Y-60528200D01*
X119064600Y-60548200D01*
X119047600Y-60566200D01*
X119028600Y-60584200D01*
X119009600Y-60600200D01*
X118989600Y-60616200D01*
X118968600Y-60630200D01*
X118946600Y-60644200D01*
X118923600Y-60656200D01*
X118900600Y-60667200D01*
X118877600Y-60677200D01*
X118853600Y-60685200D01*
X118828600Y-60692200D01*
X118803600Y-60698200D01*
X118778600Y-60703200D01*
X118753600Y-60706200D01*
X118728600Y-60708200D01*
X118702600Y-60709200D01*
X118676600Y-60708200D01*
X118651600Y-60706200D01*
X118626600Y-60703200D01*
X118601600Y-60698200D01*
X118576600Y-60692200D01*
X118551600Y-60685200D01*
X118527600Y-60677200D01*
X118504600Y-60667200D01*
X118481600Y-60656200D01*
X118458600Y-60644200D01*
X118436600Y-60630200D01*
X118415600Y-60616200D01*
X118395600Y-60600200D01*
X118376600Y-60584200D01*
X118357600Y-60566200D01*
X118340600Y-60548200D01*
X118323600Y-60528200D01*
X118308600Y-60508200D01*
X118293600Y-60487200D01*
X118280600Y-60465200D01*
X118268600Y-60443200D01*
X118257600Y-60420200D01*
X118247600Y-60396200D01*
X118238600Y-60372200D01*
X118231600Y-60348200D01*
X118225600Y-60323200D01*
X118221600Y-60298200D01*
X118217600Y-60272200D01*
X118215600Y-60247200D01*
X118215600Y-60222200D01*
X118215100Y-60221700D01*
X118215600Y-59446200D01*
X118215600Y-59421200D01*
X118217600Y-59396200D01*
X118221600Y-59370200D01*
X118225600Y-59345200D01*
X118231600Y-59320200D01*
X118238600Y-59296200D01*
X118247600Y-59272200D01*
X118257600Y-59248200D01*
X118268600Y-59225200D01*
X118280600Y-59203200D01*
X118293600Y-59181200D01*
X118308600Y-59160200D01*
X118323600Y-59140200D01*
X118340600Y-59120200D01*
X118357600Y-59102200D01*
X118376600Y-59084200D01*
X118395600Y-59068200D01*
X118415600Y-59052200D01*
X118436600Y-59038200D01*
X118458600Y-59024200D01*
X118481600Y-59012200D01*
X118504600Y-59001200D01*
X118527600Y-58991200D01*
X118551600Y-58983200D01*
X118576600Y-58976200D01*
X118601600Y-58970200D01*
X118626600Y-58965200D01*
X118651600Y-58962200D01*
X118676600Y-58960200D01*
X118702600Y-58959200D01*
X118728600Y-58960200D01*
G36*
X118728600Y-58960200D02*
G01*
X118753600Y-58962200D01*
X118778600Y-58965200D01*
X118803600Y-58970200D01*
X118828600Y-58976200D01*
X118853600Y-58983200D01*
X118877600Y-58991200D01*
X118900600Y-59001200D01*
X118923600Y-59012200D01*
X118946600Y-59024200D01*
X118968600Y-59038200D01*
X118989600Y-59052200D01*
X119009600Y-59068200D01*
X119028600Y-59084200D01*
X119047600Y-59102200D01*
X119064600Y-59120200D01*
X119081600Y-59140200D01*
X119096600Y-59160200D01*
X119111600Y-59181200D01*
X119124600Y-59203200D01*
X119136600Y-59225200D01*
X119147600Y-59248200D01*
X119157600Y-59272200D01*
X119166600Y-59296200D01*
X119173600Y-59320200D01*
X119179600Y-59345200D01*
X119183600Y-59370200D01*
X119187600Y-59396200D01*
X119189600Y-59421200D01*
X119189600Y-59446200D01*
X119189600Y-60222200D01*
X119189600Y-60247200D01*
X119187600Y-60272200D01*
X119183600Y-60298200D01*
X119179600Y-60323200D01*
X119173600Y-60348200D01*
X119166600Y-60372200D01*
X119157600Y-60396200D01*
X119147600Y-60420200D01*
X119136600Y-60443200D01*
X119124600Y-60465200D01*
X119111600Y-60487200D01*
X119096600Y-60508200D01*
X119081600Y-60528200D01*
X119064600Y-60548200D01*
X119047600Y-60566200D01*
X119028600Y-60584200D01*
X119009600Y-60600200D01*
X118989600Y-60616200D01*
X118968600Y-60630200D01*
X118946600Y-60644200D01*
X118923600Y-60656200D01*
X118900600Y-60667200D01*
X118877600Y-60677200D01*
X118853600Y-60685200D01*
X118828600Y-60692200D01*
X118803600Y-60698200D01*
X118778600Y-60703200D01*
X118753600Y-60706200D01*
X118728600Y-60708200D01*
X118702600Y-60709200D01*
X118676600Y-60708200D01*
X118651600Y-60706200D01*
X118626600Y-60703200D01*
X118601600Y-60698200D01*
X118576600Y-60692200D01*
X118551600Y-60685200D01*
X118527600Y-60677200D01*
X118504600Y-60667200D01*
X118481600Y-60656200D01*
X118458600Y-60644200D01*
X118436600Y-60630200D01*
X118415600Y-60616200D01*
X118395600Y-60600200D01*
X118376600Y-60584200D01*
X118357600Y-60566200D01*
X118340600Y-60548200D01*
X118323600Y-60528200D01*
X118308600Y-60508200D01*
X118293600Y-60487200D01*
X118280600Y-60465200D01*
X118268600Y-60443200D01*
X118257600Y-60420200D01*
X118247600Y-60396200D01*
X118238600Y-60372200D01*
X118231600Y-60348200D01*
X118225600Y-60323200D01*
X118221600Y-60298200D01*
X118217600Y-60272200D01*
X118215600Y-60247200D01*
X118215600Y-60222200D01*
X118215100Y-60221700D01*
X118215600Y-59446200D01*
X118215600Y-59421200D01*
X118217600Y-59396200D01*
X118221600Y-59370200D01*
X118225600Y-59345200D01*
X118231600Y-59320200D01*
X118238600Y-59296200D01*
X118247600Y-59272200D01*
X118257600Y-59248200D01*
X118268600Y-59225200D01*
X118280600Y-59203200D01*
X118293600Y-59181200D01*
X118308600Y-59160200D01*
X118323600Y-59140200D01*
X118340600Y-59120200D01*
X118357600Y-59102200D01*
X118376600Y-59084200D01*
X118395600Y-59068200D01*
X118415600Y-59052200D01*
X118436600Y-59038200D01*
X118458600Y-59024200D01*
X118481600Y-59012200D01*
X118504600Y-59001200D01*
X118527600Y-58991200D01*
X118551600Y-58983200D01*
X118576600Y-58976200D01*
X118601600Y-58970200D01*
X118626600Y-58965200D01*
X118651600Y-58962200D01*
X118676600Y-58960200D01*
X118702600Y-58959200D01*
X118728600Y-58960200D01*
G37*
X125728600Y-58960200D02*
X125753600Y-58962200D01*
X125778600Y-58965200D01*
X125803600Y-58970200D01*
X125828600Y-58976200D01*
X125853600Y-58983200D01*
X125877600Y-58991200D01*
X125900600Y-59001200D01*
X125923600Y-59012200D01*
X125946600Y-59024200D01*
X125968600Y-59038200D01*
X125989600Y-59052200D01*
X126009600Y-59068200D01*
X126028600Y-59084200D01*
X126047600Y-59102200D01*
X126064600Y-59120200D01*
X126081600Y-59140200D01*
X126096600Y-59160200D01*
X126111600Y-59181200D01*
X126124600Y-59203200D01*
X126136600Y-59225200D01*
X126147600Y-59248200D01*
X126157600Y-59272200D01*
X126166600Y-59296200D01*
X126173600Y-59320200D01*
X126179600Y-59345200D01*
X126183600Y-59370200D01*
X126187600Y-59396200D01*
X126189600Y-59421200D01*
X126189600Y-59446200D01*
X126189600Y-60222200D01*
X126189600Y-60247200D01*
X126187600Y-60272200D01*
X126183600Y-60298200D01*
X126179600Y-60323200D01*
X126173600Y-60348200D01*
X126166600Y-60372200D01*
X126157600Y-60396200D01*
X126147600Y-60420200D01*
X126136600Y-60443200D01*
X126124600Y-60465200D01*
X126111600Y-60487200D01*
X126096600Y-60508200D01*
X126081600Y-60528200D01*
X126064600Y-60548200D01*
X126047600Y-60566200D01*
X126028600Y-60584200D01*
X126009600Y-60600200D01*
X125989600Y-60616200D01*
X125968600Y-60630200D01*
X125946600Y-60644200D01*
X125923600Y-60656200D01*
X125900600Y-60667200D01*
X125877600Y-60677200D01*
X125853600Y-60685200D01*
X125828600Y-60692200D01*
X125803600Y-60698200D01*
X125778600Y-60703200D01*
X125753600Y-60706200D01*
X125728600Y-60708200D01*
X125702600Y-60709200D01*
X125676600Y-60708200D01*
X125651600Y-60706200D01*
X125626600Y-60703200D01*
X125601600Y-60698200D01*
X125576600Y-60692200D01*
X125551600Y-60685200D01*
X125527600Y-60677200D01*
X125504600Y-60667200D01*
X125481600Y-60656200D01*
X125458600Y-60644200D01*
X125436600Y-60630200D01*
X125415600Y-60616200D01*
X125395600Y-60600200D01*
X125376600Y-60584200D01*
X125357600Y-60566200D01*
X125340600Y-60548200D01*
X125323600Y-60528200D01*
X125308600Y-60508200D01*
X125293600Y-60487200D01*
X125280600Y-60465200D01*
X125268600Y-60443200D01*
X125257600Y-60420200D01*
X125247600Y-60396200D01*
X125238600Y-60372200D01*
X125231600Y-60348200D01*
X125225600Y-60323200D01*
X125221600Y-60298200D01*
X125217600Y-60272200D01*
X125215600Y-60247200D01*
X125215600Y-60222200D01*
X125215100Y-60221700D01*
X125215600Y-59446200D01*
X125215600Y-59421200D01*
X125217600Y-59396200D01*
X125221600Y-59370200D01*
X125225600Y-59345200D01*
X125231600Y-59320200D01*
X125238600Y-59296200D01*
X125247600Y-59272200D01*
X125257600Y-59248200D01*
X125268600Y-59225200D01*
X125280600Y-59203200D01*
X125293600Y-59181200D01*
X125308600Y-59160200D01*
X125323600Y-59140200D01*
X125340600Y-59120200D01*
X125357600Y-59102200D01*
X125376600Y-59084200D01*
X125395600Y-59068200D01*
X125415600Y-59052200D01*
X125436600Y-59038200D01*
X125458600Y-59024200D01*
X125481600Y-59012200D01*
X125504600Y-59001200D01*
X125527600Y-58991200D01*
X125551600Y-58983200D01*
X125576600Y-58976200D01*
X125601600Y-58970200D01*
X125626600Y-58965200D01*
X125651600Y-58962200D01*
X125676600Y-58960200D01*
X125702600Y-58959200D01*
X125728600Y-58960200D01*
G36*
X125728600Y-58960200D02*
G01*
X125753600Y-58962200D01*
X125778600Y-58965200D01*
X125803600Y-58970200D01*
X125828600Y-58976200D01*
X125853600Y-58983200D01*
X125877600Y-58991200D01*
X125900600Y-59001200D01*
X125923600Y-59012200D01*
X125946600Y-59024200D01*
X125968600Y-59038200D01*
X125989600Y-59052200D01*
X126009600Y-59068200D01*
X126028600Y-59084200D01*
X126047600Y-59102200D01*
X126064600Y-59120200D01*
X126081600Y-59140200D01*
X126096600Y-59160200D01*
X126111600Y-59181200D01*
X126124600Y-59203200D01*
X126136600Y-59225200D01*
X126147600Y-59248200D01*
X126157600Y-59272200D01*
X126166600Y-59296200D01*
X126173600Y-59320200D01*
X126179600Y-59345200D01*
X126183600Y-59370200D01*
X126187600Y-59396200D01*
X126189600Y-59421200D01*
X126189600Y-59446200D01*
X126189600Y-60222200D01*
X126189600Y-60247200D01*
X126187600Y-60272200D01*
X126183600Y-60298200D01*
X126179600Y-60323200D01*
X126173600Y-60348200D01*
X126166600Y-60372200D01*
X126157600Y-60396200D01*
X126147600Y-60420200D01*
X126136600Y-60443200D01*
X126124600Y-60465200D01*
X126111600Y-60487200D01*
X126096600Y-60508200D01*
X126081600Y-60528200D01*
X126064600Y-60548200D01*
X126047600Y-60566200D01*
X126028600Y-60584200D01*
X126009600Y-60600200D01*
X125989600Y-60616200D01*
X125968600Y-60630200D01*
X125946600Y-60644200D01*
X125923600Y-60656200D01*
X125900600Y-60667200D01*
X125877600Y-60677200D01*
X125853600Y-60685200D01*
X125828600Y-60692200D01*
X125803600Y-60698200D01*
X125778600Y-60703200D01*
X125753600Y-60706200D01*
X125728600Y-60708200D01*
X125702600Y-60709200D01*
X125676600Y-60708200D01*
X125651600Y-60706200D01*
X125626600Y-60703200D01*
X125601600Y-60698200D01*
X125576600Y-60692200D01*
X125551600Y-60685200D01*
X125527600Y-60677200D01*
X125504600Y-60667200D01*
X125481600Y-60656200D01*
X125458600Y-60644200D01*
X125436600Y-60630200D01*
X125415600Y-60616200D01*
X125395600Y-60600200D01*
X125376600Y-60584200D01*
X125357600Y-60566200D01*
X125340600Y-60548200D01*
X125323600Y-60528200D01*
X125308600Y-60508200D01*
X125293600Y-60487200D01*
X125280600Y-60465200D01*
X125268600Y-60443200D01*
X125257600Y-60420200D01*
X125247600Y-60396200D01*
X125238600Y-60372200D01*
X125231600Y-60348200D01*
X125225600Y-60323200D01*
X125221600Y-60298200D01*
X125217600Y-60272200D01*
X125215600Y-60247200D01*
X125215600Y-60222200D01*
X125215100Y-60221700D01*
X125215600Y-59446200D01*
X125215600Y-59421200D01*
X125217600Y-59396200D01*
X125221600Y-59370200D01*
X125225600Y-59345200D01*
X125231600Y-59320200D01*
X125238600Y-59296200D01*
X125247600Y-59272200D01*
X125257600Y-59248200D01*
X125268600Y-59225200D01*
X125280600Y-59203200D01*
X125293600Y-59181200D01*
X125308600Y-59160200D01*
X125323600Y-59140200D01*
X125340600Y-59120200D01*
X125357600Y-59102200D01*
X125376600Y-59084200D01*
X125395600Y-59068200D01*
X125415600Y-59052200D01*
X125436600Y-59038200D01*
X125458600Y-59024200D01*
X125481600Y-59012200D01*
X125504600Y-59001200D01*
X125527600Y-58991200D01*
X125551600Y-58983200D01*
X125576600Y-58976200D01*
X125601600Y-58970200D01*
X125626600Y-58965200D01*
X125651600Y-58962200D01*
X125676600Y-58960200D01*
X125702600Y-58959200D01*
X125728600Y-58960200D01*
G37*
%TD*%
D13*
%TO.C,J7*%
X100895000Y-60835000D03*
X103395000Y-60835000D03*
X105895000Y-60835000D03*
%TD*%
D14*
%TO.C,J4*%
X124702600Y-62534200D03*
X119702600Y-62534200D03*
%TD*%
D15*
%TO.C,H1*%
X67935000Y-63145000D03*
%TD*%
D16*
%TO.C,SW3*%
X75745000Y-97315000D03*
X69245000Y-97315000D03*
X75745000Y-92815000D03*
X69245000Y-92815000D03*
%TD*%
D17*
%TO.C,J9*%
X82040000Y-69415000D03*
D18*
X84580000Y-69415000D03*
X87120000Y-69415000D03*
%TD*%
D19*
%TO.C,J5*%
X77105000Y-61575000D03*
D20*
X77105000Y-64075000D03*
%TD*%
D17*
%TO.C,J8*%
X90465000Y-94045000D03*
D18*
X93005000Y-94045000D03*
X95545000Y-94045000D03*
%TD*%
D17*
%TO.C,M2*%
X157935000Y-80595000D03*
D18*
X157935000Y-83135000D03*
%TD*%
D15*
%TO.C,H2*%
X157935000Y-103145000D03*
%TD*%
D17*
%TO.C,J14*%
X84825000Y-103145000D03*
D18*
X82285000Y-103145000D03*
X79745000Y-103145000D03*
X77205000Y-103145000D03*
%TD*%
D17*
%TO.C,J10*%
X101975000Y-103145000D03*
D18*
X99435000Y-103145000D03*
X96895000Y-103145000D03*
X94355000Y-103145000D03*
X91815000Y-103145000D03*
X89275000Y-103145000D03*
%TD*%
D13*
%TO.C,U3*%
X152139800Y-91395800D03*
X152139800Y-93935800D03*
X129279800Y-60915800D03*
X152139800Y-88855800D03*
X152139800Y-81235800D03*
X129279800Y-88855800D03*
X129279800Y-91395800D03*
X129279800Y-86315800D03*
X152139800Y-96475800D03*
X152139800Y-86315800D03*
X152139800Y-83775800D03*
X152139800Y-78695800D03*
X152139800Y-76155800D03*
X152139800Y-73615800D03*
X152139800Y-65995800D03*
X152139800Y-63455800D03*
X129279800Y-78695800D03*
X129279800Y-81235800D03*
X129279800Y-83775800D03*
X129279800Y-73615800D03*
X129279800Y-76155800D03*
X129279800Y-71075800D03*
X129279800Y-99015800D03*
X129279800Y-93935800D03*
X152139800Y-60915800D03*
X152139800Y-99015800D03*
X129279800Y-63455800D03*
X152139800Y-71075800D03*
X152139800Y-68535800D03*
X129279800Y-96475800D03*
X129279800Y-68535800D03*
X129279800Y-65995800D03*
%TD*%
D15*
%TO.C,H3*%
X157935000Y-63145000D03*
%TD*%
D16*
%TO.C,SW2*%
X67465000Y-69225000D03*
X73965000Y-69225000D03*
X67465000Y-73725000D03*
X73965000Y-73725000D03*
%TD*%
D17*
%TO.C,M1*%
X67935000Y-83145000D03*
D18*
X67935000Y-80605000D03*
%TD*%
D15*
%TO.C,H4*%
X67935000Y-103145000D03*
%TD*%
D21*
%TO.C,Y1*%
X74822200Y-79189000D03*
X74822200Y-84069000D03*
%TD*%
D13*
%TO.C,J1*%
X100725000Y-69515000D03*
X103225000Y-69515000D03*
X105725000Y-69515000D03*
%TD*%
D17*
%TO.C,J6*%
X100715200Y-65145000D03*
D18*
X103255200Y-65145000D03*
X105795200Y-65145000D03*
%TD*%
D22*
%TO.C,BZ2*%
X145055000Y-74455000D03*
D16*
X135055000Y-74455000D03*
%TD*%
D23*
%TO.C,C12*%
X136005000Y-86575000D03*
X136005000Y-88125000D03*
%TD*%
D24*
%TO.C,R3*%
X116224200Y-99801600D03*
X116224200Y-101451600D03*
%TD*%
D23*
%TO.C,C6*%
X139055000Y-86575000D03*
X139055000Y-88125000D03*
%TD*%
D25*
%TO.C,R8*%
X120593000Y-101451600D03*
X120593000Y-99801600D03*
%TD*%
D23*
%TO.C,C10*%
X147315000Y-86590000D03*
X147315000Y-88140000D03*
%TD*%
%TO.C,C8*%
X144625000Y-86590000D03*
X144625000Y-88140000D03*
%TD*%
%TO.C,C7*%
X141875000Y-86575000D03*
X141875000Y-88125000D03*
%TD*%
%LPD*%
M02*
