%TF.GenerationSoftware,KiCad,Pcbnew,8.0.5*%
%TF.CreationDate,2024-12-24T01:11:55+09:00*%
%TF.ProjectId,Balancing_robot,42616c61-6e63-4696-9e67-5f726f626f74,rev?*%
%TF.SameCoordinates,Original*%
%TF.FileFunction,Paste,Top*%
%TF.FilePolarity,Positive*%
%FSLAX46Y46*%
G04 Gerber Fmt 4.6, Leading zero omitted, Abs format (unit mm)*
G04 Created by KiCad (PCBNEW 8.0.5) date 2024-12-24 01:11:55*
%MOMM*%
%LPD*%
G01*
G04 APERTURE LIST*
G04 Aperture macros list*
%AMRoundRect*
0 Rectangle with rounded corners*
0 $1 Rounding radius*
0 $2 $3 $4 $5 $6 $7 $8 $9 X,Y pos of 4 corners*
0 Add a 4 corners polygon primitive as box body*
4,1,4,$2,$3,$4,$5,$6,$7,$8,$9,$2,$3,0*
0 Add four circle primitives for the rounded corners*
1,1,$1+$1,$2,$3*
1,1,$1+$1,$4,$5*
1,1,$1+$1,$6,$7*
1,1,$1+$1,$8,$9*
0 Add four rect primitives between the rounded corners*
20,1,$1+$1,$2,$3,$4,$5,0*
20,1,$1+$1,$4,$5,$6,$7,0*
20,1,$1+$1,$6,$7,$8,$9,0*
20,1,$1+$1,$8,$9,$2,$3,0*%
G04 Aperture macros list end*
%ADD10C,0.010000*%
%ADD11RoundRect,0.225000X0.250000X-0.225000X0.250000X0.225000X-0.250000X0.225000X-0.250000X-0.225000X0*%
%ADD12RoundRect,0.225000X-0.225000X-0.250000X0.225000X-0.250000X0.225000X0.250000X-0.225000X0.250000X0*%
%ADD13R,0.400000X1.350000*%
%ADD14R,1.500000X1.550000*%
%ADD15RoundRect,0.035000X-0.700000X-0.105000X0.700000X-0.105000X0.700000X0.105000X-0.700000X0.105000X0*%
%ADD16RoundRect,0.035000X-0.105000X-0.700000X0.105000X-0.700000X0.105000X0.700000X-0.105000X0.700000X0*%
%ADD17RoundRect,0.225000X-0.250000X0.225000X-0.250000X-0.225000X0.250000X-0.225000X0.250000X0.225000X0*%
%ADD18RoundRect,0.243750X0.243750X0.456250X-0.243750X0.456250X-0.243750X-0.456250X0.243750X-0.456250X0*%
%ADD19RoundRect,0.200000X-0.200000X-0.275000X0.200000X-0.275000X0.200000X0.275000X-0.200000X0.275000X0*%
%ADD20RoundRect,0.200000X-0.275000X0.200000X-0.275000X-0.200000X0.275000X-0.200000X0.275000X0.200000X0*%
%ADD21RoundRect,0.200000X0.275000X-0.200000X0.275000X0.200000X-0.275000X0.200000X-0.275000X-0.200000X0*%
%ADD22R,0.790000X0.280000*%
%ADD23R,0.280000X0.790000*%
%ADD24RoundRect,0.150000X-0.875000X-0.150000X0.875000X-0.150000X0.875000X0.150000X-0.875000X0.150000X0*%
%ADD25RoundRect,0.243750X-0.456250X0.243750X-0.456250X-0.243750X0.456250X-0.243750X0.456250X0.243750X0*%
%ADD26RoundRect,0.243750X0.456250X-0.243750X0.456250X0.243750X-0.456250X0.243750X-0.456250X-0.243750X0*%
%ADD27RoundRect,0.225000X0.225000X0.250000X-0.225000X0.250000X-0.225000X-0.250000X0.225000X-0.250000X0*%
%ADD28RoundRect,0.218750X0.256250X-0.218750X0.256250X0.218750X-0.256250X0.218750X-0.256250X-0.218750X0*%
%ADD29R,0.980000X2.400000*%
%ADD30RoundRect,0.100000X-0.320000X-0.100000X0.320000X-0.100000X0.320000X0.100000X-0.320000X0.100000X0*%
%ADD31RoundRect,0.200000X0.200000X0.275000X-0.200000X0.275000X-0.200000X-0.275000X0.200000X-0.275000X0*%
G04 APERTURE END LIST*
D10*
%TO.C,J4*%
X119902600Y-60609200D02*
X118757600Y-60609200D01*
X118731600Y-60608200D01*
X118705600Y-60606200D01*
X118679600Y-60603200D01*
X118653600Y-60598200D01*
X118628600Y-60592200D01*
X118602600Y-60585200D01*
X118578600Y-60576200D01*
X118554600Y-60566200D01*
X118530600Y-60555200D01*
X118507600Y-60542200D01*
X118485600Y-60528200D01*
X118463600Y-60514200D01*
X118442600Y-60498200D01*
X118422600Y-60481200D01*
X118403600Y-60463200D01*
X118385600Y-60444200D01*
X118368600Y-60424200D01*
X118352600Y-60403200D01*
X118338600Y-60381200D01*
X118324600Y-60359200D01*
X118311600Y-60336200D01*
X118300600Y-60312200D01*
X118290600Y-60288200D01*
X118281600Y-60264200D01*
X118274600Y-60238200D01*
X118268600Y-60213200D01*
X118263600Y-60187200D01*
X118260600Y-60161200D01*
X118258600Y-60135200D01*
X118257600Y-60109200D01*
X118257600Y-59559200D01*
X118258600Y-59533200D01*
X118260600Y-59507200D01*
X118263600Y-59481200D01*
X118268600Y-59455200D01*
X118274600Y-59430200D01*
X118281600Y-59404200D01*
X118290600Y-59380200D01*
X118300600Y-59356200D01*
X118311600Y-59332200D01*
X118324600Y-59309200D01*
X118338600Y-59287200D01*
X118352600Y-59265200D01*
X118368600Y-59244200D01*
X118385600Y-59224200D01*
X118403600Y-59205200D01*
X118422600Y-59187200D01*
X118442600Y-59170200D01*
X118463600Y-59154200D01*
X118485600Y-59140200D01*
X118507600Y-59126200D01*
X118530600Y-59113200D01*
X118554600Y-59102200D01*
X118578600Y-59092200D01*
X118602600Y-59083200D01*
X118628600Y-59076200D01*
X118653600Y-59070200D01*
X118679600Y-59065200D01*
X118705600Y-59062200D01*
X118731600Y-59060200D01*
X118757600Y-59059200D01*
X119902600Y-59059200D01*
X119902600Y-60609200D01*
G36*
X119902600Y-60609200D02*
G01*
X118757600Y-60609200D01*
X118731600Y-60608200D01*
X118705600Y-60606200D01*
X118679600Y-60603200D01*
X118653600Y-60598200D01*
X118628600Y-60592200D01*
X118602600Y-60585200D01*
X118578600Y-60576200D01*
X118554600Y-60566200D01*
X118530600Y-60555200D01*
X118507600Y-60542200D01*
X118485600Y-60528200D01*
X118463600Y-60514200D01*
X118442600Y-60498200D01*
X118422600Y-60481200D01*
X118403600Y-60463200D01*
X118385600Y-60444200D01*
X118368600Y-60424200D01*
X118352600Y-60403200D01*
X118338600Y-60381200D01*
X118324600Y-60359200D01*
X118311600Y-60336200D01*
X118300600Y-60312200D01*
X118290600Y-60288200D01*
X118281600Y-60264200D01*
X118274600Y-60238200D01*
X118268600Y-60213200D01*
X118263600Y-60187200D01*
X118260600Y-60161200D01*
X118258600Y-60135200D01*
X118257600Y-60109200D01*
X118257600Y-59559200D01*
X118258600Y-59533200D01*
X118260600Y-59507200D01*
X118263600Y-59481200D01*
X118268600Y-59455200D01*
X118274600Y-59430200D01*
X118281600Y-59404200D01*
X118290600Y-59380200D01*
X118300600Y-59356200D01*
X118311600Y-59332200D01*
X118324600Y-59309200D01*
X118338600Y-59287200D01*
X118352600Y-59265200D01*
X118368600Y-59244200D01*
X118385600Y-59224200D01*
X118403600Y-59205200D01*
X118422600Y-59187200D01*
X118442600Y-59170200D01*
X118463600Y-59154200D01*
X118485600Y-59140200D01*
X118507600Y-59126200D01*
X118530600Y-59113200D01*
X118554600Y-59102200D01*
X118578600Y-59092200D01*
X118602600Y-59083200D01*
X118628600Y-59076200D01*
X118653600Y-59070200D01*
X118679600Y-59065200D01*
X118705600Y-59062200D01*
X118731600Y-59060200D01*
X118757600Y-59059200D01*
X119902600Y-59059200D01*
X119902600Y-60609200D01*
G37*
X125673600Y-59060200D02*
X125699600Y-59062200D01*
X125725600Y-59065200D01*
X125751600Y-59070200D01*
X125776600Y-59076200D01*
X125802600Y-59083200D01*
X125826600Y-59092200D01*
X125850600Y-59102200D01*
X125874600Y-59113200D01*
X125897600Y-59126200D01*
X125919600Y-59140200D01*
X125941600Y-59154200D01*
X125962600Y-59170200D01*
X125982600Y-59187200D01*
X126001600Y-59205200D01*
X126019600Y-59224200D01*
X126036600Y-59244200D01*
X126052600Y-59265200D01*
X126066600Y-59287200D01*
X126080600Y-59309200D01*
X126093600Y-59332200D01*
X126104600Y-59356200D01*
X126114600Y-59380200D01*
X126123600Y-59404200D01*
X126130600Y-59430200D01*
X126136600Y-59455200D01*
X126141600Y-59481200D01*
X126144600Y-59507200D01*
X126146600Y-59533200D01*
X126147600Y-59559200D01*
X126147600Y-60109200D01*
X126146600Y-60135200D01*
X126144600Y-60161200D01*
X126141600Y-60187200D01*
X126136600Y-60213200D01*
X126130600Y-60238200D01*
X126123600Y-60264200D01*
X126114600Y-60288200D01*
X126104600Y-60312200D01*
X126093600Y-60336200D01*
X126080600Y-60359200D01*
X126066600Y-60381200D01*
X126052600Y-60403200D01*
X126036600Y-60424200D01*
X126019600Y-60444200D01*
X126001600Y-60463200D01*
X125982600Y-60481200D01*
X125962600Y-60498200D01*
X125941600Y-60514200D01*
X125919600Y-60528200D01*
X125897600Y-60542200D01*
X125874600Y-60555200D01*
X125850600Y-60566200D01*
X125826600Y-60576200D01*
X125802600Y-60585200D01*
X125776600Y-60592200D01*
X125751600Y-60598200D01*
X125725600Y-60603200D01*
X125699600Y-60606200D01*
X125673600Y-60608200D01*
X125647600Y-60609200D01*
X124502600Y-60609200D01*
X124502600Y-59059200D01*
X125647600Y-59059200D01*
X125673600Y-59060200D01*
G36*
X125673600Y-59060200D02*
G01*
X125699600Y-59062200D01*
X125725600Y-59065200D01*
X125751600Y-59070200D01*
X125776600Y-59076200D01*
X125802600Y-59083200D01*
X125826600Y-59092200D01*
X125850600Y-59102200D01*
X125874600Y-59113200D01*
X125897600Y-59126200D01*
X125919600Y-59140200D01*
X125941600Y-59154200D01*
X125962600Y-59170200D01*
X125982600Y-59187200D01*
X126001600Y-59205200D01*
X126019600Y-59224200D01*
X126036600Y-59244200D01*
X126052600Y-59265200D01*
X126066600Y-59287200D01*
X126080600Y-59309200D01*
X126093600Y-59332200D01*
X126104600Y-59356200D01*
X126114600Y-59380200D01*
X126123600Y-59404200D01*
X126130600Y-59430200D01*
X126136600Y-59455200D01*
X126141600Y-59481200D01*
X126144600Y-59507200D01*
X126146600Y-59533200D01*
X126147600Y-59559200D01*
X126147600Y-60109200D01*
X126146600Y-60135200D01*
X126144600Y-60161200D01*
X126141600Y-60187200D01*
X126136600Y-60213200D01*
X126130600Y-60238200D01*
X126123600Y-60264200D01*
X126114600Y-60288200D01*
X126104600Y-60312200D01*
X126093600Y-60336200D01*
X126080600Y-60359200D01*
X126066600Y-60381200D01*
X126052600Y-60403200D01*
X126036600Y-60424200D01*
X126019600Y-60444200D01*
X126001600Y-60463200D01*
X125982600Y-60481200D01*
X125962600Y-60498200D01*
X125941600Y-60514200D01*
X125919600Y-60528200D01*
X125897600Y-60542200D01*
X125874600Y-60555200D01*
X125850600Y-60566200D01*
X125826600Y-60576200D01*
X125802600Y-60585200D01*
X125776600Y-60592200D01*
X125751600Y-60598200D01*
X125725600Y-60603200D01*
X125699600Y-60606200D01*
X125673600Y-60608200D01*
X125647600Y-60609200D01*
X124502600Y-60609200D01*
X124502600Y-59059200D01*
X125647600Y-59059200D01*
X125673600Y-59060200D01*
G37*
%TO.C,U4*%
X114230200Y-65285400D02*
X113090200Y-65285400D01*
X113090200Y-63625400D01*
X114230200Y-63625400D01*
X114230200Y-65285400D01*
G36*
X114230200Y-65285400D02*
G01*
X113090200Y-65285400D01*
X113090200Y-63625400D01*
X114230200Y-63625400D01*
X114230200Y-65285400D01*
G37*
%TD*%
D11*
%TO.C,C11*%
X66945000Y-88245000D03*
X66945000Y-86695000D03*
%TD*%
D12*
%TO.C,C15*%
X115093600Y-68070000D03*
X116643600Y-68070000D03*
%TD*%
D13*
%TO.C,J4*%
X123502600Y-62509200D03*
X122852600Y-62509200D03*
X122202600Y-62509200D03*
X121552600Y-62509200D03*
X120902600Y-62509200D03*
D14*
X121202600Y-59834200D03*
X123202600Y-59834200D03*
%TD*%
D12*
%TO.C,C21*%
X77010000Y-71535000D03*
X78560000Y-71535000D03*
%TD*%
D15*
%TO.C,U1*%
X83275000Y-79375000D03*
X83275000Y-79875000D03*
X83275000Y-80375000D03*
X83275000Y-80875000D03*
X83275000Y-81375000D03*
X83275000Y-81875000D03*
X83275000Y-82375000D03*
X83275000Y-82875000D03*
X83275000Y-83375000D03*
X83275000Y-83875000D03*
X83275000Y-84375000D03*
X83275000Y-84875000D03*
X83275000Y-85375000D03*
X83275000Y-85875000D03*
X83275000Y-86375000D03*
X83275000Y-86875000D03*
D16*
X85195000Y-88795000D03*
X85695000Y-88795000D03*
X86195000Y-88795000D03*
X86695000Y-88795000D03*
X87195000Y-88795000D03*
X87695000Y-88795000D03*
X88195000Y-88795000D03*
X88695000Y-88795000D03*
X89195000Y-88795000D03*
X89695000Y-88795000D03*
X90195000Y-88795000D03*
X90695000Y-88795000D03*
X91195000Y-88795000D03*
X91695000Y-88795000D03*
X92195000Y-88795000D03*
X92695000Y-88795000D03*
D15*
X94615000Y-86875000D03*
X94615000Y-86375000D03*
X94615000Y-85875000D03*
X94615000Y-85375000D03*
X94615000Y-84875000D03*
X94615000Y-84375000D03*
X94615000Y-83875000D03*
X94615000Y-83375000D03*
X94615000Y-82875000D03*
X94615000Y-82375000D03*
X94615000Y-81875000D03*
X94615000Y-81375000D03*
X94615000Y-80875000D03*
X94615000Y-80375000D03*
X94615000Y-79875000D03*
X94615000Y-79375000D03*
D16*
X92695000Y-77455000D03*
X92195000Y-77455000D03*
X91695000Y-77455000D03*
X91195000Y-77455000D03*
X90695000Y-77455000D03*
X90195000Y-77455000D03*
X89695000Y-77455000D03*
X89195000Y-77455000D03*
X88695000Y-77455000D03*
X88195000Y-77455000D03*
X87695000Y-77455000D03*
X87195000Y-77455000D03*
X86695000Y-77455000D03*
X86195000Y-77455000D03*
X85695000Y-77455000D03*
X85195000Y-77455000D03*
%TD*%
D17*
%TO.C,C19*%
X90621000Y-71352800D03*
X90621000Y-72902800D03*
%TD*%
D18*
%TO.C,D8*%
X86160000Y-93988750D03*
X84285000Y-93988750D03*
%TD*%
D19*
%TO.C,R16*%
X85535000Y-75085000D03*
X87185000Y-75085000D03*
%TD*%
D20*
%TO.C,R14*%
X107283400Y-99547600D03*
X107283400Y-101197600D03*
%TD*%
D21*
%TO.C,R6*%
X115635000Y-82975000D03*
X115635000Y-81325000D03*
%TD*%
D19*
%TO.C,R18*%
X76975000Y-68695000D03*
X78625000Y-68695000D03*
%TD*%
D17*
%TO.C,C3*%
X120491400Y-87825000D03*
X120491400Y-89375000D03*
%TD*%
D20*
%TO.C,R11*%
X121131000Y-65156000D03*
X121131000Y-66806000D03*
%TD*%
D11*
%TO.C,C13*%
X112215200Y-61465000D03*
X112215200Y-59915000D03*
%TD*%
D22*
%TO.C,U2*%
X117585000Y-82215000D03*
X117585000Y-82715000D03*
X117585000Y-83215000D03*
X117585000Y-83715000D03*
X117585000Y-84215000D03*
X117585000Y-84715000D03*
D23*
X118305000Y-85435000D03*
X118805000Y-85435000D03*
X119305000Y-85435000D03*
X119805000Y-85435000D03*
X120305000Y-85435000D03*
X120805000Y-85435000D03*
D22*
X121525000Y-84715000D03*
X121525000Y-84215000D03*
X121525000Y-83715000D03*
X121525000Y-83215000D03*
X121525000Y-82715000D03*
X121525000Y-82215000D03*
D23*
X120805000Y-81495000D03*
X120305000Y-81495000D03*
X119805000Y-81495000D03*
X119305000Y-81495000D03*
X118805000Y-81495000D03*
X118305000Y-81495000D03*
%TD*%
D20*
%TO.C,R10*%
X123641000Y-65156000D03*
X123641000Y-66806000D03*
%TD*%
%TO.C,R9*%
X118575000Y-66970000D03*
X118575000Y-68620000D03*
%TD*%
D21*
%TO.C,R2*%
X83685000Y-75020000D03*
X83685000Y-73370000D03*
%TD*%
D24*
%TO.C,U8*%
X103040000Y-78132500D03*
X103040000Y-79402500D03*
X103040000Y-80672500D03*
X103040000Y-81942500D03*
X103040000Y-83212500D03*
X103040000Y-84482500D03*
X103040000Y-85752500D03*
X103040000Y-87022500D03*
X103040000Y-88292500D03*
X103040000Y-89562500D03*
X112350000Y-89562500D03*
X112350000Y-88292500D03*
X112350000Y-87022500D03*
X112350000Y-85752500D03*
X112350000Y-84482500D03*
X112350000Y-83212500D03*
X112350000Y-81942500D03*
X112350000Y-80672500D03*
X112350000Y-79402500D03*
X112350000Y-78132500D03*
%TD*%
D25*
%TO.C,D3*%
X120593000Y-103549900D03*
X120593000Y-105424900D03*
%TD*%
D20*
%TO.C,R1*%
X81910000Y-73445000D03*
X81910000Y-75095000D03*
%TD*%
D26*
%TO.C,D2*%
X111144200Y-105424900D03*
X111144200Y-103549900D03*
%TD*%
D27*
%TO.C,C5*%
X125110000Y-81575000D03*
X123560000Y-81575000D03*
%TD*%
D28*
%TO.C,FB1*%
X69435000Y-88242500D03*
X69435000Y-86667500D03*
%TD*%
D20*
%TO.C,R7*%
X117335000Y-74380000D03*
X117335000Y-76030000D03*
%TD*%
D12*
%TO.C,C17*%
X78915000Y-80713000D03*
X80465000Y-80713000D03*
%TD*%
D29*
%TO.C,U5*%
X90635000Y-68535000D03*
X95195000Y-68535000D03*
%TD*%
D27*
%TO.C,C18*%
X66395000Y-92785000D03*
X64845000Y-92785000D03*
%TD*%
D12*
%TO.C,C2*%
X123560000Y-83785000D03*
X125110000Y-83785000D03*
%TD*%
D11*
%TO.C,C14*%
X115025000Y-61465000D03*
X115025000Y-59915000D03*
%TD*%
D26*
%TO.C,D1*%
X116224200Y-105424900D03*
X116224200Y-103549900D03*
%TD*%
D20*
%TO.C,R4*%
X118662600Y-87774200D03*
X118662600Y-89424200D03*
%TD*%
D11*
%TO.C,C9*%
X64915000Y-88242500D03*
X64915000Y-86692500D03*
%TD*%
D17*
%TO.C,C20*%
X95193000Y-71350000D03*
X95193000Y-72900000D03*
%TD*%
D11*
%TO.C,C4*%
X119645000Y-75995000D03*
X119645000Y-74445000D03*
%TD*%
D26*
%TO.C,D6*%
X107283400Y-105424900D03*
X107283400Y-103549900D03*
%TD*%
D19*
%TO.C,R15*%
X89060000Y-91025000D03*
X90710000Y-91025000D03*
%TD*%
D12*
%TO.C,C16*%
X78924000Y-82541800D03*
X80474000Y-82541800D03*
%TD*%
D21*
%TO.C,R5*%
X111144200Y-101197600D03*
X111144200Y-99547600D03*
%TD*%
D19*
%TO.C,R17*%
X84287500Y-91438750D03*
X85937500Y-91438750D03*
%TD*%
D30*
%TO.C,U4*%
X112225200Y-63505400D03*
X112225200Y-64455400D03*
X112225200Y-65405400D03*
X115095200Y-65405400D03*
X115095200Y-64455400D03*
X115095200Y-63505400D03*
%TD*%
D31*
%TO.C,R13*%
X78730000Y-74895000D03*
X77080000Y-74895000D03*
%TD*%
M02*
