%TF.GenerationSoftware,KiCad,Pcbnew,8.0.5*%
%TF.CreationDate,2024-12-24T01:11:55+09:00*%
%TF.ProjectId,Balancing_robot,42616c61-6e63-4696-9e67-5f726f626f74,rev?*%
%TF.SameCoordinates,Original*%
%TF.FileFunction,Copper,L1,Top*%
%TF.FilePolarity,Positive*%
%FSLAX46Y46*%
G04 Gerber Fmt 4.6, Leading zero omitted, Abs format (unit mm)*
G04 Created by KiCad (PCBNEW 8.0.5) date 2024-12-24 01:11:55*
%MOMM*%
%LPD*%
G01*
G04 APERTURE LIST*
G04 Aperture macros list*
%AMRoundRect*
0 Rectangle with rounded corners*
0 $1 Rounding radius*
0 $2 $3 $4 $5 $6 $7 $8 $9 X,Y pos of 4 corners*
0 Add a 4 corners polygon primitive as box body*
4,1,4,$2,$3,$4,$5,$6,$7,$8,$9,$2,$3,0*
0 Add four circle primitives for the rounded corners*
1,1,$1+$1,$2,$3*
1,1,$1+$1,$4,$5*
1,1,$1+$1,$6,$7*
1,1,$1+$1,$8,$9*
0 Add four rect primitives between the rounded corners*
20,1,$1+$1,$2,$3,$4,$5,0*
20,1,$1+$1,$4,$5,$6,$7,0*
20,1,$1+$1,$6,$7,$8,$9,0*
20,1,$1+$1,$8,$9,$2,$3,0*%
G04 Aperture macros list end*
%TA.AperFunction,EtchedComponent*%
%ADD10C,0.010000*%
%TD*%
%TA.AperFunction,SMDPad,CuDef*%
%ADD11RoundRect,0.225000X0.250000X-0.225000X0.250000X0.225000X-0.250000X0.225000X-0.250000X-0.225000X0*%
%TD*%
%TA.AperFunction,ComponentPad*%
%ADD12C,1.524000*%
%TD*%
%TA.AperFunction,SMDPad,CuDef*%
%ADD13RoundRect,0.225000X-0.225000X-0.250000X0.225000X-0.250000X0.225000X0.250000X-0.225000X0.250000X0*%
%TD*%
%TA.AperFunction,SMDPad,CuDef*%
%ADD14R,0.400000X1.350000*%
%TD*%
%TA.AperFunction,ComponentPad*%
%ADD15O,0.775000X1.550000*%
%TD*%
%TA.AperFunction,SMDPad,CuDef*%
%ADD16R,1.500000X1.550000*%
%TD*%
%TA.AperFunction,ComponentPad*%
%ADD17O,1.300000X0.950000*%
%TD*%
%TA.AperFunction,SMDPad,CuDef*%
%ADD18RoundRect,0.035000X-0.700000X-0.105000X0.700000X-0.105000X0.700000X0.105000X-0.700000X0.105000X0*%
%TD*%
%TA.AperFunction,SMDPad,CuDef*%
%ADD19RoundRect,0.035000X-0.105000X-0.700000X0.105000X-0.700000X0.105000X0.700000X-0.105000X0.700000X0*%
%TD*%
%TA.AperFunction,ComponentPad*%
%ADD20C,2.000000*%
%TD*%
%TA.AperFunction,SMDPad,CuDef*%
%ADD21RoundRect,0.225000X-0.250000X0.225000X-0.250000X-0.225000X0.250000X-0.225000X0.250000X0.225000X0*%
%TD*%
%TA.AperFunction,SMDPad,CuDef*%
%ADD22RoundRect,0.243750X0.243750X0.456250X-0.243750X0.456250X-0.243750X-0.456250X0.243750X-0.456250X0*%
%TD*%
%TA.AperFunction,ComponentPad*%
%ADD23R,1.700000X1.700000*%
%TD*%
%TA.AperFunction,ComponentPad*%
%ADD24O,1.700000X1.700000*%
%TD*%
%TA.AperFunction,SMDPad,CuDef*%
%ADD25RoundRect,0.200000X-0.200000X-0.275000X0.200000X-0.275000X0.200000X0.275000X-0.200000X0.275000X0*%
%TD*%
%TA.AperFunction,SMDPad,CuDef*%
%ADD26RoundRect,0.200000X-0.275000X0.200000X-0.275000X-0.200000X0.275000X-0.200000X0.275000X0.200000X0*%
%TD*%
%TA.AperFunction,SMDPad,CuDef*%
%ADD27RoundRect,0.200000X0.275000X-0.200000X0.275000X0.200000X-0.275000X0.200000X-0.275000X-0.200000X0*%
%TD*%
%TA.AperFunction,ComponentPad*%
%ADD28RoundRect,0.250000X-0.675000X0.600000X-0.675000X-0.600000X0.675000X-0.600000X0.675000X0.600000X0*%
%TD*%
%TA.AperFunction,ComponentPad*%
%ADD29O,1.850000X1.700000*%
%TD*%
%TA.AperFunction,SMDPad,CuDef*%
%ADD30R,0.790000X0.280000*%
%TD*%
%TA.AperFunction,SMDPad,CuDef*%
%ADD31R,0.280000X0.790000*%
%TD*%
%TA.AperFunction,SMDPad,CuDef*%
%ADD32RoundRect,0.150000X-0.875000X-0.150000X0.875000X-0.150000X0.875000X0.150000X-0.875000X0.150000X0*%
%TD*%
%TA.AperFunction,SMDPad,CuDef*%
%ADD33RoundRect,0.243750X-0.456250X0.243750X-0.456250X-0.243750X0.456250X-0.243750X0.456250X0.243750X0*%
%TD*%
%TA.AperFunction,SMDPad,CuDef*%
%ADD34RoundRect,0.243750X0.456250X-0.243750X0.456250X0.243750X-0.456250X0.243750X-0.456250X-0.243750X0*%
%TD*%
%TA.AperFunction,SMDPad,CuDef*%
%ADD35RoundRect,0.225000X0.225000X0.250000X-0.225000X0.250000X-0.225000X-0.250000X0.225000X-0.250000X0*%
%TD*%
%TA.AperFunction,SMDPad,CuDef*%
%ADD36RoundRect,0.218750X0.256250X-0.218750X0.256250X0.218750X-0.256250X0.218750X-0.256250X-0.218750X0*%
%TD*%
%TA.AperFunction,SMDPad,CuDef*%
%ADD37R,0.980000X2.400000*%
%TD*%
%TA.AperFunction,SMDPad,CuDef*%
%ADD38R,5.860000X5.570000*%
%TD*%
%TA.AperFunction,ComponentPad*%
%ADD39C,1.500000*%
%TD*%
%TA.AperFunction,SMDPad,CuDef*%
%ADD40RoundRect,0.100000X-0.320000X-0.100000X0.320000X-0.100000X0.320000X0.100000X-0.320000X0.100000X0*%
%TD*%
%TA.AperFunction,SMDPad,CuDef*%
%ADD41R,1.625000X2.365000*%
%TD*%
%TA.AperFunction,SMDPad,CuDef*%
%ADD42RoundRect,0.200000X0.200000X0.275000X-0.200000X0.275000X-0.200000X-0.275000X0.200000X-0.275000X0*%
%TD*%
%TA.AperFunction,ComponentPad*%
%ADD43R,2.000000X2.000000*%
%TD*%
%TA.AperFunction,ViaPad*%
%ADD44C,0.500000*%
%TD*%
%TA.AperFunction,ViaPad*%
%ADD45C,0.800000*%
%TD*%
%TA.AperFunction,ViaPad*%
%ADD46C,0.600000*%
%TD*%
%TA.AperFunction,Conductor*%
%ADD47C,0.250000*%
%TD*%
%TA.AperFunction,Conductor*%
%ADD48C,0.300000*%
%TD*%
%TA.AperFunction,Conductor*%
%ADD49C,0.500000*%
%TD*%
%TA.AperFunction,Conductor*%
%ADD50C,0.200000*%
%TD*%
G04 APERTURE END LIST*
D10*
%TO.C,J4*%
X119902600Y-60609200D02*
X118757600Y-60609200D01*
X118731600Y-60608200D01*
X118705600Y-60606200D01*
X118679600Y-60603200D01*
X118653600Y-60598200D01*
X118628600Y-60592200D01*
X118602600Y-60585200D01*
X118578600Y-60576200D01*
X118554600Y-60566200D01*
X118530600Y-60555200D01*
X118507600Y-60542200D01*
X118485600Y-60528200D01*
X118463600Y-60514200D01*
X118442600Y-60498200D01*
X118422600Y-60481200D01*
X118403600Y-60463200D01*
X118385600Y-60444200D01*
X118368600Y-60424200D01*
X118352600Y-60403200D01*
X118338600Y-60381200D01*
X118324600Y-60359200D01*
X118311600Y-60336200D01*
X118300600Y-60312200D01*
X118290600Y-60288200D01*
X118281600Y-60264200D01*
X118274600Y-60238200D01*
X118268600Y-60213200D01*
X118263600Y-60187200D01*
X118260600Y-60161200D01*
X118258600Y-60135200D01*
X118257600Y-60109200D01*
X118257600Y-59559200D01*
X118258600Y-59533200D01*
X118260600Y-59507200D01*
X118263600Y-59481200D01*
X118268600Y-59455200D01*
X118274600Y-59430200D01*
X118281600Y-59404200D01*
X118290600Y-59380200D01*
X118300600Y-59356200D01*
X118311600Y-59332200D01*
X118324600Y-59309200D01*
X118338600Y-59287200D01*
X118352600Y-59265200D01*
X118368600Y-59244200D01*
X118385600Y-59224200D01*
X118403600Y-59205200D01*
X118422600Y-59187200D01*
X118442600Y-59170200D01*
X118463600Y-59154200D01*
X118485600Y-59140200D01*
X118507600Y-59126200D01*
X118530600Y-59113200D01*
X118554600Y-59102200D01*
X118578600Y-59092200D01*
X118602600Y-59083200D01*
X118628600Y-59076200D01*
X118653600Y-59070200D01*
X118679600Y-59065200D01*
X118705600Y-59062200D01*
X118731600Y-59060200D01*
X118757600Y-59059200D01*
X119902600Y-59059200D01*
X119902600Y-60609200D01*
%TA.AperFunction,EtchedComponent*%
G36*
X119902600Y-60609200D02*
G01*
X118757600Y-60609200D01*
X118731600Y-60608200D01*
X118705600Y-60606200D01*
X118679600Y-60603200D01*
X118653600Y-60598200D01*
X118628600Y-60592200D01*
X118602600Y-60585200D01*
X118578600Y-60576200D01*
X118554600Y-60566200D01*
X118530600Y-60555200D01*
X118507600Y-60542200D01*
X118485600Y-60528200D01*
X118463600Y-60514200D01*
X118442600Y-60498200D01*
X118422600Y-60481200D01*
X118403600Y-60463200D01*
X118385600Y-60444200D01*
X118368600Y-60424200D01*
X118352600Y-60403200D01*
X118338600Y-60381200D01*
X118324600Y-60359200D01*
X118311600Y-60336200D01*
X118300600Y-60312200D01*
X118290600Y-60288200D01*
X118281600Y-60264200D01*
X118274600Y-60238200D01*
X118268600Y-60213200D01*
X118263600Y-60187200D01*
X118260600Y-60161200D01*
X118258600Y-60135200D01*
X118257600Y-60109200D01*
X118257600Y-59559200D01*
X118258600Y-59533200D01*
X118260600Y-59507200D01*
X118263600Y-59481200D01*
X118268600Y-59455200D01*
X118274600Y-59430200D01*
X118281600Y-59404200D01*
X118290600Y-59380200D01*
X118300600Y-59356200D01*
X118311600Y-59332200D01*
X118324600Y-59309200D01*
X118338600Y-59287200D01*
X118352600Y-59265200D01*
X118368600Y-59244200D01*
X118385600Y-59224200D01*
X118403600Y-59205200D01*
X118422600Y-59187200D01*
X118442600Y-59170200D01*
X118463600Y-59154200D01*
X118485600Y-59140200D01*
X118507600Y-59126200D01*
X118530600Y-59113200D01*
X118554600Y-59102200D01*
X118578600Y-59092200D01*
X118602600Y-59083200D01*
X118628600Y-59076200D01*
X118653600Y-59070200D01*
X118679600Y-59065200D01*
X118705600Y-59062200D01*
X118731600Y-59060200D01*
X118757600Y-59059200D01*
X119902600Y-59059200D01*
X119902600Y-60609200D01*
G37*
%TD.AperFunction*%
X125673600Y-59060200D02*
X125699600Y-59062200D01*
X125725600Y-59065200D01*
X125751600Y-59070200D01*
X125776600Y-59076200D01*
X125802600Y-59083200D01*
X125826600Y-59092200D01*
X125850600Y-59102200D01*
X125874600Y-59113200D01*
X125897600Y-59126200D01*
X125919600Y-59140200D01*
X125941600Y-59154200D01*
X125962600Y-59170200D01*
X125982600Y-59187200D01*
X126001600Y-59205200D01*
X126019600Y-59224200D01*
X126036600Y-59244200D01*
X126052600Y-59265200D01*
X126066600Y-59287200D01*
X126080600Y-59309200D01*
X126093600Y-59332200D01*
X126104600Y-59356200D01*
X126114600Y-59380200D01*
X126123600Y-59404200D01*
X126130600Y-59430200D01*
X126136600Y-59455200D01*
X126141600Y-59481200D01*
X126144600Y-59507200D01*
X126146600Y-59533200D01*
X126147600Y-59559200D01*
X126147600Y-60109200D01*
X126146600Y-60135200D01*
X126144600Y-60161200D01*
X126141600Y-60187200D01*
X126136600Y-60213200D01*
X126130600Y-60238200D01*
X126123600Y-60264200D01*
X126114600Y-60288200D01*
X126104600Y-60312200D01*
X126093600Y-60336200D01*
X126080600Y-60359200D01*
X126066600Y-60381200D01*
X126052600Y-60403200D01*
X126036600Y-60424200D01*
X126019600Y-60444200D01*
X126001600Y-60463200D01*
X125982600Y-60481200D01*
X125962600Y-60498200D01*
X125941600Y-60514200D01*
X125919600Y-60528200D01*
X125897600Y-60542200D01*
X125874600Y-60555200D01*
X125850600Y-60566200D01*
X125826600Y-60576200D01*
X125802600Y-60585200D01*
X125776600Y-60592200D01*
X125751600Y-60598200D01*
X125725600Y-60603200D01*
X125699600Y-60606200D01*
X125673600Y-60608200D01*
X125647600Y-60609200D01*
X124502600Y-60609200D01*
X124502600Y-59059200D01*
X125647600Y-59059200D01*
X125673600Y-59060200D01*
%TA.AperFunction,EtchedComponent*%
G36*
X125673600Y-59060200D02*
G01*
X125699600Y-59062200D01*
X125725600Y-59065200D01*
X125751600Y-59070200D01*
X125776600Y-59076200D01*
X125802600Y-59083200D01*
X125826600Y-59092200D01*
X125850600Y-59102200D01*
X125874600Y-59113200D01*
X125897600Y-59126200D01*
X125919600Y-59140200D01*
X125941600Y-59154200D01*
X125962600Y-59170200D01*
X125982600Y-59187200D01*
X126001600Y-59205200D01*
X126019600Y-59224200D01*
X126036600Y-59244200D01*
X126052600Y-59265200D01*
X126066600Y-59287200D01*
X126080600Y-59309200D01*
X126093600Y-59332200D01*
X126104600Y-59356200D01*
X126114600Y-59380200D01*
X126123600Y-59404200D01*
X126130600Y-59430200D01*
X126136600Y-59455200D01*
X126141600Y-59481200D01*
X126144600Y-59507200D01*
X126146600Y-59533200D01*
X126147600Y-59559200D01*
X126147600Y-60109200D01*
X126146600Y-60135200D01*
X126144600Y-60161200D01*
X126141600Y-60187200D01*
X126136600Y-60213200D01*
X126130600Y-60238200D01*
X126123600Y-60264200D01*
X126114600Y-60288200D01*
X126104600Y-60312200D01*
X126093600Y-60336200D01*
X126080600Y-60359200D01*
X126066600Y-60381200D01*
X126052600Y-60403200D01*
X126036600Y-60424200D01*
X126019600Y-60444200D01*
X126001600Y-60463200D01*
X125982600Y-60481200D01*
X125962600Y-60498200D01*
X125941600Y-60514200D01*
X125919600Y-60528200D01*
X125897600Y-60542200D01*
X125874600Y-60555200D01*
X125850600Y-60566200D01*
X125826600Y-60576200D01*
X125802600Y-60585200D01*
X125776600Y-60592200D01*
X125751600Y-60598200D01*
X125725600Y-60603200D01*
X125699600Y-60606200D01*
X125673600Y-60608200D01*
X125647600Y-60609200D01*
X124502600Y-60609200D01*
X124502600Y-59059200D01*
X125647600Y-59059200D01*
X125673600Y-59060200D01*
G37*
%TD.AperFunction*%
%TD*%
D11*
%TO.P,C11,1*%
%TO.N,VDDA*%
X66945000Y-88245000D03*
%TO.P,C11,2*%
%TO.N,AGND*%
X66945000Y-86695000D03*
%TD*%
D12*
%TO.P,J7,1,Pin_1*%
%TO.N,Net-(J7-Pin_1)*%
X100895000Y-60835000D03*
%TO.P,J7,2,Pin_2*%
X103395000Y-60835000D03*
%TO.P,J7,3,Pin_3*%
%TO.N,Net-(J6-Pin_2)*%
X105895000Y-60835000D03*
%TD*%
D13*
%TO.P,C15,1*%
%TO.N,3.3V*%
X115093600Y-68070000D03*
%TO.P,C15,2*%
%TO.N,GND*%
X116643600Y-68070000D03*
%TD*%
D14*
%TO.P,J4,1,VCC*%
%TO.N,U5V*%
X123502600Y-62509200D03*
%TO.P,J4,2,D-*%
%TO.N,Net-(J4-D-)*%
X122852600Y-62509200D03*
%TO.P,J4,3,D+*%
%TO.N,Net-(J4-D+)*%
X122202600Y-62509200D03*
%TO.P,J4,4,ID*%
%TO.N,unconnected-(J4-ID-Pad4)*%
X121552600Y-62509200D03*
%TO.P,J4,5,GND*%
%TO.N,GND*%
X120902600Y-62509200D03*
D15*
%TO.P,J4,SH1,SHIELD*%
X125702600Y-59834200D03*
D16*
%TO.P,J4,SH2,SHIELD*%
X121202600Y-59834200D03*
%TO.P,J4,SH3,SHIELD*%
X123202600Y-59834200D03*
D15*
%TO.P,J4,SH4,SHIELD*%
X118702600Y-59834200D03*
D17*
%TO.P,J4,SH5,SHIELD*%
X124702600Y-62534200D03*
%TO.P,J4,SH6,SHIELD*%
X119702600Y-62534200D03*
%TD*%
D13*
%TO.P,C21,1*%
%TO.N,PC13*%
X77010000Y-71535000D03*
%TO.P,C21,2*%
%TO.N,Net-(C21-Pad2)*%
X78560000Y-71535000D03*
%TD*%
D18*
%TO.P,U1,1,VBAT*%
%TO.N,3.3V*%
X83275000Y-79375000D03*
%TO.P,U1,2,PC13-TAMPER-RTC*%
%TO.N,PC13*%
X83275000Y-79875000D03*
%TO.P,U1,3,PC14-OSC32_IN*%
%TO.N,unconnected-(U1-PC14-OSC32_IN-Pad3)*%
X83275000Y-80375000D03*
%TO.P,U1,4,PC15-OSC32_OUT*%
%TO.N,unconnected-(U1-PC15-OSC32_OUT-Pad4)*%
X83275000Y-80875000D03*
%TO.P,U1,5,PD0_OSC_IN*%
%TO.N,OSC_IN*%
X83275000Y-81375000D03*
%TO.P,U1,6,PD1_OSC_OUT*%
%TO.N,OSC_OUT*%
X83275000Y-81875000D03*
%TO.P,U1,7,~{RST}*%
%TO.N,RESET*%
X83275000Y-82375000D03*
%TO.P,U1,8,PC0*%
%TO.N,PC0*%
X83275000Y-82875000D03*
%TO.P,U1,9,PC1*%
%TO.N,PC1*%
X83275000Y-83375000D03*
%TO.P,U1,10,PC2*%
%TO.N,PC2*%
X83275000Y-83875000D03*
%TO.P,U1,11,PC3*%
%TO.N,PC3*%
X83275000Y-84375000D03*
%TO.P,U1,12,VSSA*%
%TO.N,AGND*%
X83275000Y-84875000D03*
%TO.P,U1,13,VDDA*%
%TO.N,VDDA*%
X83275000Y-85375000D03*
%TO.P,U1,14,PA0-WKUP*%
%TO.N,PA0*%
X83275000Y-85875000D03*
%TO.P,U1,15,PA1*%
%TO.N,/ADC2*%
X83275000Y-86375000D03*
%TO.P,U1,16,PA2*%
%TO.N,/UART2_TX*%
X83275000Y-86875000D03*
D19*
%TO.P,U1,17,PA3*%
%TO.N,/UART2_RX*%
X85195000Y-88795000D03*
%TO.P,U1,18,VSS_4*%
%TO.N,GND*%
X85695000Y-88795000D03*
%TO.P,U1,19,VDD_4*%
%TO.N,3.3V*%
X86195000Y-88795000D03*
%TO.P,U1,20,PA4*%
%TO.N,PA4*%
X86695000Y-88795000D03*
%TO.P,U1,21,PA5*%
%TO.N,PA5*%
X87195000Y-88795000D03*
%TO.P,U1,22,PA6*%
%TO.N,/ENA*%
X87695000Y-88795000D03*
%TO.P,U1,23,PA7*%
%TO.N,/ENB*%
X88195000Y-88795000D03*
%TO.P,U1,24,PC4*%
%TO.N,PC4*%
X88695000Y-88795000D03*
%TO.P,U1,25,PC5*%
%TO.N,PC5*%
X89195000Y-88795000D03*
%TO.P,U1,26,PB0*%
%TO.N,unconnected-(U1-PB0-Pad26)*%
X89695000Y-88795000D03*
%TO.P,U1,27,PB1*%
%TO.N,unconnected-(U1-PB1-Pad27)*%
X90195000Y-88795000D03*
%TO.P,U1,28,PB2*%
%TO.N,BOOT1*%
X90695000Y-88795000D03*
%TO.P,U1,29,PB10*%
%TO.N,/UART3_RX*%
X91195000Y-88795000D03*
%TO.P,U1,30,PB11*%
%TO.N,/UART3_TX*%
X91695000Y-88795000D03*
%TO.P,U1,31,VSS_1*%
%TO.N,GND*%
X92195000Y-88795000D03*
%TO.P,U1,32,VDD_1*%
%TO.N,3.3V*%
X92695000Y-88795000D03*
D18*
%TO.P,U1,33,PB12*%
%TO.N,PB12*%
X94615000Y-86875000D03*
%TO.P,U1,34,PB13*%
%TO.N,PB13*%
X94615000Y-86375000D03*
%TO.P,U1,35,PB14*%
%TO.N,PB14*%
X94615000Y-85875000D03*
%TO.P,U1,36,PB15*%
%TO.N,PB15*%
X94615000Y-85375000D03*
%TO.P,U1,37,PC6*%
%TO.N,/IN1*%
X94615000Y-84875000D03*
%TO.P,U1,38,PC7*%
%TO.N,/IN2*%
X94615000Y-84375000D03*
%TO.P,U1,39,PC8*%
%TO.N,/IN3*%
X94615000Y-83875000D03*
%TO.P,U1,40,PC9*%
%TO.N,/IN4*%
X94615000Y-83375000D03*
%TO.P,U1,41,PA8*%
%TO.N,unconnected-(U1-PA8-Pad41)*%
X94615000Y-82875000D03*
%TO.P,U1,42,PA9*%
%TO.N,PA9*%
X94615000Y-82375000D03*
%TO.P,U1,43,PA10*%
%TO.N,PA10*%
X94615000Y-81875000D03*
%TO.P,U1,44,PA11*%
%TO.N,USB_D-*%
X94615000Y-81375000D03*
%TO.P,U1,45,PA12*%
%TO.N,USB_D+*%
X94615000Y-80875000D03*
%TO.P,U1,46,PA13*%
%TO.N,SWDIO*%
X94615000Y-80375000D03*
%TO.P,U1,47,VSS_2*%
%TO.N,GND*%
X94615000Y-79875000D03*
%TO.P,U1,48,VDD_2*%
%TO.N,3.3V*%
X94615000Y-79375000D03*
D19*
%TO.P,U1,49,PA14*%
%TO.N,SWCLK*%
X92695000Y-77455000D03*
%TO.P,U1,50,PA15*%
%TO.N,PA15*%
X92195000Y-77455000D03*
%TO.P,U1,51,PC10*%
%TO.N,unconnected-(U1-PC10-Pad51)*%
X91695000Y-77455000D03*
%TO.P,U1,52,PC11*%
%TO.N,unconnected-(U1-PC11-Pad52)*%
X91195000Y-77455000D03*
%TO.P,U1,53,PC12*%
%TO.N,PC12*%
X90695000Y-77455000D03*
%TO.P,U1,54,PD2*%
%TO.N,PD2*%
X90195000Y-77455000D03*
%TO.P,U1,55,PB3*%
%TO.N,TRACESWO*%
X89695000Y-77455000D03*
%TO.P,U1,56,PB4*%
%TO.N,PB4*%
X89195000Y-77455000D03*
%TO.P,U1,57,PB5*%
%TO.N,PB5*%
X88695000Y-77455000D03*
%TO.P,U1,58,PB6*%
%TO.N,BUZZER*%
X88195000Y-77455000D03*
%TO.P,U1,59,PB7*%
%TO.N,unconnected-(U1-PB7-Pad59)*%
X87695000Y-77455000D03*
%TO.P,U1,60,BOOT0*%
%TO.N,BOOT0*%
X87195000Y-77455000D03*
%TO.P,U1,61,PB8*%
%TO.N,/SCL_N*%
X86695000Y-77455000D03*
%TO.P,U1,62,PB9*%
%TO.N,/SDA_P*%
X86195000Y-77455000D03*
%TO.P,U1,63,VSS_3*%
%TO.N,GND*%
X85695000Y-77455000D03*
%TO.P,U1,64,VDD_3*%
%TO.N,3.3V*%
X85195000Y-77455000D03*
%TD*%
D20*
%TO.P,SW3,1,1*%
%TO.N,GND*%
X75745000Y-97315000D03*
X69245000Y-97315000D03*
%TO.P,SW3,2,2*%
%TO.N,RESET*%
X75745000Y-92815000D03*
X69245000Y-92815000D03*
%TD*%
D21*
%TO.P,C19,1*%
%TO.N,7.4V*%
X90621000Y-71352800D03*
%TO.P,C19,2*%
%TO.N,GND*%
X90621000Y-72902800D03*
%TD*%
D22*
%TO.P,D8,1,K*%
%TO.N,GND*%
X86160000Y-93988750D03*
%TO.P,D8,2,A*%
%TO.N,Net-(D8-A)*%
X84285000Y-93988750D03*
%TD*%
D23*
%TO.P,J9,1,Pin_1*%
%TO.N,3.3V*%
X82040000Y-69415000D03*
D24*
%TO.P,J9,2,Pin_2*%
%TO.N,Net-(J9-Pin_2)*%
X84580000Y-69415000D03*
%TO.P,J9,3,Pin_3*%
%TO.N,GND*%
X87120000Y-69415000D03*
%TD*%
D25*
%TO.P,R16,1*%
%TO.N,Net-(J9-Pin_2)*%
X85535000Y-75085000D03*
%TO.P,R16,2*%
%TO.N,BOOT0*%
X87185000Y-75085000D03*
%TD*%
D26*
%TO.P,R14,1*%
%TO.N,3.3V*%
X107283400Y-99547600D03*
%TO.P,R14,2*%
%TO.N,Net-(D6-A)*%
X107283400Y-101197600D03*
%TD*%
D27*
%TO.P,R6,1*%
%TO.N,3.3V*%
X115635000Y-82975000D03*
%TO.P,R6,2*%
%TO.N,/SDA_P*%
X115635000Y-81325000D03*
%TD*%
D28*
%TO.P,J5,1,Pin_1*%
%TO.N,GND*%
X77105000Y-61575000D03*
D29*
%TO.P,J5,2,Pin_2*%
%TO.N,7.4V*%
X77105000Y-64075000D03*
%TD*%
D25*
%TO.P,R18,1*%
%TO.N,GND*%
X76975000Y-68695000D03*
%TO.P,R18,2*%
%TO.N,Net-(C21-Pad2)*%
X78625000Y-68695000D03*
%TD*%
D21*
%TO.P,C3,1*%
%TO.N,Net-(U2-REGOUT)*%
X120491400Y-87825000D03*
%TO.P,C3,2*%
%TO.N,GND*%
X120491400Y-89375000D03*
%TD*%
D26*
%TO.P,R11,1*%
%TO.N,Net-(J4-D+)*%
X121131000Y-65156000D03*
%TO.P,R11,2*%
%TO.N,USB_D+*%
X121131000Y-66806000D03*
%TD*%
D11*
%TO.P,C13,1*%
%TO.N,Net-(J7-Pin_1)*%
X112215200Y-61465000D03*
%TO.P,C13,2*%
%TO.N,GND*%
X112215200Y-59915000D03*
%TD*%
D30*
%TO.P,U2,1,CLKIN*%
%TO.N,GND*%
X117585000Y-82215000D03*
%TO.P,U2,2,NC*%
%TO.N,unconnected-(U2-NC-Pad2)*%
X117585000Y-82715000D03*
%TO.P,U2,3,NC*%
%TO.N,unconnected-(U2-NC-Pad3)*%
X117585000Y-83215000D03*
%TO.P,U2,4,NC*%
%TO.N,unconnected-(U2-NC-Pad4)*%
X117585000Y-83715000D03*
%TO.P,U2,5,NC*%
%TO.N,unconnected-(U2-NC-Pad5)*%
X117585000Y-84215000D03*
%TO.P,U2,6,AUX_DA*%
%TO.N,unconnected-(U2-AUX_DA-Pad6)*%
X117585000Y-84715000D03*
D31*
%TO.P,U2,7,AUX_CL*%
%TO.N,unconnected-(U2-AUX_CL-Pad7)*%
X118305000Y-85435000D03*
%TO.P,U2,8,VLOGIC*%
%TO.N,3.3V*%
X118805000Y-85435000D03*
%TO.P,U2,9,AD0*%
%TO.N,Net-(U2-AD0)*%
X119305000Y-85435000D03*
%TO.P,U2,10,REGOUT*%
%TO.N,Net-(U2-REGOUT)*%
X119805000Y-85435000D03*
%TO.P,U2,11,FSYNC*%
%TO.N,GND*%
X120305000Y-85435000D03*
%TO.P,U2,12,INT*%
%TO.N,/INT*%
X120805000Y-85435000D03*
D30*
%TO.P,U2,13,VCC*%
%TO.N,3.3V*%
X121525000Y-84715000D03*
%TO.P,U2,14,NC*%
%TO.N,unconnected-(U2-NC-Pad14)*%
X121525000Y-84215000D03*
%TO.P,U2,15,NC*%
%TO.N,unconnected-(U2-NC-Pad15)*%
X121525000Y-83715000D03*
%TO.P,U2,16,NC*%
%TO.N,unconnected-(U2-NC-Pad16)*%
X121525000Y-83215000D03*
%TO.P,U2,17,NC*%
%TO.N,unconnected-(U2-NC-Pad17)*%
X121525000Y-82715000D03*
%TO.P,U2,18,GND*%
%TO.N,GND*%
X121525000Y-82215000D03*
D31*
%TO.P,U2,19,RESV*%
%TO.N,unconnected-(U2-RESV-Pad19)*%
X120805000Y-81495000D03*
%TO.P,U2,20,CPOUT*%
%TO.N,Net-(U2-CPOUT)*%
X120305000Y-81495000D03*
%TO.P,U2,21,RESV*%
%TO.N,unconnected-(U2-RESV-Pad21)*%
X119805000Y-81495000D03*
%TO.P,U2,22,CLKOUT*%
%TO.N,unconnected-(U2-CLKOUT-Pad22)*%
X119305000Y-81495000D03*
%TO.P,U2,23,SCL*%
%TO.N,/SCL_N*%
X118805000Y-81495000D03*
%TO.P,U2,24,SDA*%
%TO.N,/SDA_P*%
X118305000Y-81495000D03*
%TD*%
D26*
%TO.P,R10,1*%
%TO.N,Net-(J4-D-)*%
X123641000Y-65156000D03*
%TO.P,R10,2*%
%TO.N,USB_D-*%
X123641000Y-66806000D03*
%TD*%
%TO.P,R9,1*%
%TO.N,3.3V*%
X118575000Y-66970000D03*
%TO.P,R9,2*%
%TO.N,USB_D+*%
X118575000Y-68620000D03*
%TD*%
D27*
%TO.P,R2,1*%
%TO.N,/ADC2*%
X83685000Y-75020000D03*
%TO.P,R2,2*%
%TO.N,GND*%
X83685000Y-73370000D03*
%TD*%
D23*
%TO.P,J8,1,Pin_1*%
%TO.N,3.3V*%
X90465000Y-94045000D03*
D24*
%TO.P,J8,2,Pin_2*%
%TO.N,Net-(J8-Pin_2)*%
X93005000Y-94045000D03*
%TO.P,J8,3,Pin_3*%
%TO.N,GND*%
X95545000Y-94045000D03*
%TD*%
D32*
%TO.P,U8,1,ENABLE_1*%
%TO.N,/ENA*%
X103040000Y-78132500D03*
%TO.P,U8,2,INPUT_1*%
%TO.N,/IN1*%
X103040000Y-79402500D03*
%TO.P,U8,3,OUTPUT_1*%
%TO.N,/OUT1*%
X103040000Y-80672500D03*
%TO.P,U8,4,GND*%
%TO.N,GND*%
X103040000Y-81942500D03*
%TO.P,U8,5,GND*%
X103040000Y-83212500D03*
%TO.P,U8,6,GND*%
X103040000Y-84482500D03*
%TO.P,U8,7,GND*%
X103040000Y-85752500D03*
%TO.P,U8,8,OUTPUT_2*%
%TO.N,/OUT2*%
X103040000Y-87022500D03*
%TO.P,U8,9,INPUT_2*%
%TO.N,/IN2*%
X103040000Y-88292500D03*
%TO.P,U8,10,VS*%
%TO.N,7.4V*%
X103040000Y-89562500D03*
%TO.P,U8,11,ENABLE_2*%
%TO.N,/ENB*%
X112350000Y-89562500D03*
%TO.P,U8,12,INPUT_3*%
%TO.N,/IN3*%
X112350000Y-88292500D03*
%TO.P,U8,13,OUTPUT_3*%
%TO.N,/OUT3*%
X112350000Y-87022500D03*
%TO.P,U8,14,GND*%
%TO.N,GND*%
X112350000Y-85752500D03*
%TO.P,U8,15,GND*%
X112350000Y-84482500D03*
%TO.P,U8,16,GND*%
X112350000Y-83212500D03*
%TO.P,U8,17,GND*%
X112350000Y-81942500D03*
%TO.P,U8,18,OUTPUT_4*%
%TO.N,/OUT4*%
X112350000Y-80672500D03*
%TO.P,U8,19,INPUT_4*%
%TO.N,/IN4*%
X112350000Y-79402500D03*
%TO.P,U8,20,VSS*%
%TO.N,Net-(J1-Pin_3)*%
X112350000Y-78132500D03*
%TD*%
D23*
%TO.P,M2,1,+*%
%TO.N,/OUT4*%
X157935000Y-80595000D03*
D24*
%TO.P,M2,2,-*%
%TO.N,/OUT3*%
X157935000Y-83135000D03*
%TD*%
D33*
%TO.P,D3,1,K*%
%TO.N,Net-(D3-K)*%
X120593000Y-103549900D03*
%TO.P,D3,2,A*%
%TO.N,3.3V*%
X120593000Y-105424900D03*
%TD*%
D26*
%TO.P,R1,1*%
%TO.N,7.4V*%
X81910000Y-73445000D03*
%TO.P,R1,2*%
%TO.N,/ADC2*%
X81910000Y-75095000D03*
%TD*%
D34*
%TO.P,D2,1,K*%
%TO.N,GND*%
X111144200Y-105424900D03*
%TO.P,D2,2,A*%
%TO.N,Net-(D2-A)*%
X111144200Y-103549900D03*
%TD*%
D23*
%TO.P,J14,1,Pin_1*%
%TO.N,GND*%
X84825000Y-103145000D03*
D24*
%TO.P,J14,2,Pin_2*%
%TO.N,/UART2_RX*%
X82285000Y-103145000D03*
%TO.P,J14,3,Pin_3*%
%TO.N,/UART2_TX*%
X79745000Y-103145000D03*
%TO.P,J14,4,Pin_4*%
%TO.N,3.3V*%
X77205000Y-103145000D03*
%TD*%
D35*
%TO.P,C5,1*%
%TO.N,3.3V*%
X125110000Y-81575000D03*
%TO.P,C5,2*%
%TO.N,GND*%
X123560000Y-81575000D03*
%TD*%
D36*
%TO.P,FB1,1*%
%TO.N,VDDA*%
X69435000Y-88242500D03*
%TO.P,FB1,2*%
%TO.N,3.3V*%
X69435000Y-86667500D03*
%TD*%
D26*
%TO.P,R7,1*%
%TO.N,3.3V*%
X117335000Y-74380000D03*
%TO.P,R7,2*%
%TO.N,/SCL_N*%
X117335000Y-76030000D03*
%TD*%
D13*
%TO.P,C17,1*%
%TO.N,GND*%
X78915000Y-80713000D03*
%TO.P,C17,2*%
%TO.N,OSC_IN*%
X80465000Y-80713000D03*
%TD*%
D37*
%TO.P,U5,1,INPUT*%
%TO.N,7.4V*%
X90635000Y-68535000D03*
%TO.P,U5,2,OUTPUT*%
%TO.N,5V(BAT)*%
X95195000Y-68535000D03*
D38*
%TO.P,U5,3,GROUND*%
%TO.N,GND*%
X92915000Y-61865000D03*
%TD*%
D23*
%TO.P,J10,1,Pin_1*%
%TO.N,GND*%
X101975000Y-103145000D03*
D24*
%TO.P,J10,2,Pin_2*%
%TO.N,SWCLK*%
X99435000Y-103145000D03*
%TO.P,J10,3,Pin_3*%
%TO.N,SWDIO*%
X96895000Y-103145000D03*
%TO.P,J10,4,Pin_4*%
%TO.N,3.3V*%
X94355000Y-103145000D03*
%TO.P,J10,5,Pin_5*%
%TO.N,RESET*%
X91815000Y-103145000D03*
%TO.P,J10,6,Pin_6*%
%TO.N,TRACESWO*%
X89275000Y-103145000D03*
%TD*%
D12*
%TO.P,U3,0,0*%
%TO.N,unconnected-(U3-Pad0)*%
X152139800Y-91395800D03*
%TO.P,U3,2,2*%
%TO.N,unconnected-(U3-Pad2)*%
X152139800Y-93935800D03*
%TO.P,U3,3V,3V*%
%TO.N,3.3V*%
X129279800Y-60915800D03*
%TO.P,U3,4,4*%
%TO.N,unconnected-(U3-Pad4)*%
X152139800Y-88855800D03*
%TO.P,U3,5,5*%
%TO.N,unconnected-(U3-Pad5)*%
X152139800Y-81235800D03*
%TO.P,U3,12,12*%
%TO.N,unconnected-(U3-Pad12)*%
X129279800Y-88855800D03*
%TO.P,U3,13,13*%
%TO.N,unconnected-(U3-Pad13)*%
X129279800Y-91395800D03*
%TO.P,U3,14,14*%
%TO.N,unconnected-(U3-Pad14)*%
X129279800Y-86315800D03*
%TO.P,U3,15,15*%
%TO.N,unconnected-(U3-Pad15)*%
X152139800Y-96475800D03*
%TO.P,U3,16,16*%
%TO.N,/UART3_TX*%
X152139800Y-86315800D03*
%TO.P,U3,17,17*%
%TO.N,/UART3_RX*%
X152139800Y-83775800D03*
%TO.P,U3,18,18*%
%TO.N,unconnected-(U3-Pad18)*%
X152139800Y-78695800D03*
%TO.P,U3,19,19*%
%TO.N,unconnected-(U3-Pad19)*%
X152139800Y-76155800D03*
%TO.P,U3,21,21*%
%TO.N,unconnected-(U3-Pad21)*%
X152139800Y-73615800D03*
%TO.P,U3,22,22*%
%TO.N,unconnected-(U3-Pad22)*%
X152139800Y-65995800D03*
%TO.P,U3,23,23*%
%TO.N,unconnected-(U3-Pad23)*%
X152139800Y-63455800D03*
%TO.P,U3,25,25*%
%TO.N,Net-(R8-Pad2)*%
X129279800Y-78695800D03*
%TO.P,U3,26,26*%
%TO.N,unconnected-(U3-Pad26)*%
X129279800Y-81235800D03*
%TO.P,U3,27,27*%
%TO.N,unconnected-(U3-Pad27)*%
X129279800Y-83775800D03*
%TO.P,U3,32,32*%
%TO.N,unconnected-(U3-Pad32)*%
X129279800Y-73615800D03*
%TO.P,U3,33,33*%
%TO.N,unconnected-(U3-Pad33)*%
X129279800Y-76155800D03*
%TO.P,U3,34,34*%
%TO.N,unconnected-(U3-Pad34)*%
X129279800Y-71075800D03*
%TO.P,U3,BAT,BAT*%
%TO.N,unconnected-(U3-PadBAT)*%
X129279800Y-99015800D03*
%TO.P,U3,EN,EN*%
%TO.N,unconnected-(U3-PadEN)*%
X129279800Y-93935800D03*
%TO.P,U3,GND,GND*%
%TO.N,GND*%
X152139800Y-60915800D03*
X152139800Y-99015800D03*
%TO.P,U3,RS,RS*%
%TO.N,unconnected-(U3-PadRS)*%
X129279800Y-63455800D03*
%TO.P,U3,RX,RX*%
%TO.N,unconnected-(U3-PadRX)*%
X152139800Y-71075800D03*
%TO.P,U3,TX,TX*%
%TO.N,unconnected-(U3-PadTX)*%
X152139800Y-68535800D03*
%TO.P,U3,USB,USB*%
%TO.N,unconnected-(U3-PadUSB)*%
X129279800Y-96475800D03*
%TO.P,U3,VN,VN*%
%TO.N,unconnected-(U3-PadVN)*%
X129279800Y-68535800D03*
%TO.P,U3,VP,VP*%
%TO.N,unconnected-(U3-PadVP)*%
X129279800Y-65995800D03*
%TD*%
D35*
%TO.P,C18,1*%
%TO.N,RESET*%
X66395000Y-92785000D03*
%TO.P,C18,2*%
%TO.N,GND*%
X64845000Y-92785000D03*
%TD*%
D13*
%TO.P,C2,1*%
%TO.N,GND*%
X123560000Y-83785000D03*
%TO.P,C2,2*%
%TO.N,3.3V*%
X125110000Y-83785000D03*
%TD*%
D11*
%TO.P,C14,1*%
%TO.N,Net-(J7-Pin_1)*%
X115025000Y-61465000D03*
%TO.P,C14,2*%
%TO.N,GND*%
X115025000Y-59915000D03*
%TD*%
D34*
%TO.P,D1,1,K*%
%TO.N,GND*%
X116224200Y-105424900D03*
%TO.P,D1,2,A*%
%TO.N,Net-(D1-A)*%
X116224200Y-103549900D03*
%TD*%
D26*
%TO.P,R4,1*%
%TO.N,Net-(U2-AD0)*%
X118662600Y-87774200D03*
%TO.P,R4,2*%
%TO.N,GND*%
X118662600Y-89424200D03*
%TD*%
D20*
%TO.P,SW2,1,1*%
%TO.N,GND*%
X67465000Y-69225000D03*
X73965000Y-69225000D03*
%TO.P,SW2,2,2*%
%TO.N,PC13*%
X67465000Y-73725000D03*
X73965000Y-73725000D03*
%TD*%
D23*
%TO.P,M1,1,+*%
%TO.N,/OUT2*%
X67935000Y-83145000D03*
D24*
%TO.P,M1,2,-*%
%TO.N,/OUT1*%
X67935000Y-80605000D03*
%TD*%
D11*
%TO.P,C9,1*%
%TO.N,VDDA*%
X64915000Y-88242500D03*
%TO.P,C9,2*%
%TO.N,AGND*%
X64915000Y-86692500D03*
%TD*%
D21*
%TO.P,C20,1*%
%TO.N,5V(BAT)*%
X95193000Y-71350000D03*
%TO.P,C20,2*%
%TO.N,GND*%
X95193000Y-72900000D03*
%TD*%
D11*
%TO.P,C4,1*%
%TO.N,Net-(U2-CPOUT)*%
X119645000Y-75995000D03*
%TO.P,C4,2*%
%TO.N,GND*%
X119645000Y-74445000D03*
%TD*%
D39*
%TO.P,Y1,1,1*%
%TO.N,OSC_IN*%
X74822200Y-79189000D03*
%TO.P,Y1,2,2*%
%TO.N,OSC_OUT*%
X74822200Y-84069000D03*
%TD*%
D12*
%TO.P,J1,1,Pin_1*%
%TO.N,5V(BAT)*%
X100725000Y-69515000D03*
%TO.P,J1,2,Pin_2*%
X103225000Y-69515000D03*
%TO.P,J1,3,Pin_3*%
%TO.N,Net-(J1-Pin_3)*%
X105725000Y-69515000D03*
%TD*%
D34*
%TO.P,D6,1,K*%
%TO.N,GND*%
X107283400Y-105424900D03*
%TO.P,D6,2,A*%
%TO.N,Net-(D6-A)*%
X107283400Y-103549900D03*
%TD*%
D25*
%TO.P,R15,1*%
%TO.N,Net-(J8-Pin_2)*%
X89060000Y-91025000D03*
%TO.P,R15,2*%
%TO.N,BOOT1*%
X90710000Y-91025000D03*
%TD*%
D23*
%TO.P,J6,1,Pin_1*%
%TO.N,5V(BAT)*%
X100715200Y-65145000D03*
D24*
%TO.P,J6,2,Pin_2*%
%TO.N,Net-(J6-Pin_2)*%
X103255200Y-65145000D03*
%TO.P,J6,3,Pin_3*%
%TO.N,U5V*%
X105795200Y-65145000D03*
%TD*%
D13*
%TO.P,C16,1*%
%TO.N,GND*%
X78924000Y-82541800D03*
%TO.P,C16,2*%
%TO.N,OSC_OUT*%
X80474000Y-82541800D03*
%TD*%
D27*
%TO.P,R5,1*%
%TO.N,Net-(D2-A)*%
X111144200Y-101197600D03*
%TO.P,R5,2*%
%TO.N,3.3V*%
X111144200Y-99547600D03*
%TD*%
D25*
%TO.P,R17,1*%
%TO.N,Net-(D8-A)*%
X84287500Y-91438750D03*
%TO.P,R17,2*%
%TO.N,PA5*%
X85937500Y-91438750D03*
%TD*%
D40*
%TO.P,U4,1,EN*%
%TO.N,Net-(J7-Pin_1)*%
X112225200Y-63505400D03*
%TO.P,U4,2,GND*%
%TO.N,GND*%
X112225200Y-64455400D03*
%TO.P,U4,3,PG*%
%TO.N,unconnected-(U4-PG-Pad3)*%
X112225200Y-65405400D03*
%TO.P,U4,4,VOUT*%
%TO.N,3.3V*%
X115095200Y-65405400D03*
%TO.P,U4,5*%
%TO.N,N/C*%
X115095200Y-64455400D03*
%TO.P,U4,6,VIN*%
%TO.N,Net-(J7-Pin_1)*%
X115095200Y-63505400D03*
D41*
%TO.P,U4,7,GND*%
%TO.N,GND*%
X113660200Y-64455400D03*
%TD*%
D42*
%TO.P,R13,1*%
%TO.N,3.3V*%
X78730000Y-74895000D03*
%TO.P,R13,2*%
%TO.N,PC13*%
X77080000Y-74895000D03*
%TD*%
D43*
%TO.P,BZ2,1,+*%
%TO.N,BUZZER*%
X145055000Y-74455000D03*
D20*
%TO.P,BZ2,2,-*%
%TO.N,GND*%
X135055000Y-74455000D03*
%TD*%
D44*
%TO.N,BUZZER*%
X124555000Y-97195000D03*
X90725000Y-80845000D03*
D45*
%TO.N,GND*%
X117165000Y-60125000D03*
D44*
X110655000Y-84465000D03*
X116655000Y-65815000D03*
D45*
X86555000Y-61845000D03*
X98115000Y-94065000D03*
X85445000Y-87295000D03*
D44*
X105275000Y-105485000D03*
D45*
X77825000Y-83155000D03*
X92835000Y-82215000D03*
X97105000Y-72935000D03*
D44*
X73105000Y-61575000D03*
X66775000Y-97315000D03*
D45*
X123575000Y-80225000D03*
X94655000Y-90160000D03*
D44*
X76045000Y-67695000D03*
X101435000Y-83995000D03*
D46*
X86185000Y-95545000D03*
D44*
X120305000Y-90405000D03*
D45*
X149515000Y-88105000D03*
X116955000Y-81495000D03*
X121265000Y-74455000D03*
D44*
X110845000Y-64475000D03*
D45*
%TO.N,3.3V*%
X125115000Y-85195000D03*
X85640000Y-86195000D03*
X87735000Y-94025000D03*
X122855000Y-105385000D03*
X113085000Y-99605000D03*
X91725000Y-82215000D03*
X116965000Y-86235000D03*
X82325000Y-71775000D03*
X70995000Y-86665000D03*
X118565000Y-65225000D03*
X133705000Y-85935000D03*
X115105000Y-69405600D03*
X93787347Y-89232653D03*
X115475000Y-74495000D03*
X79915000Y-74765000D03*
X85648627Y-80287781D03*
D44*
%TO.N,AGND*%
X81665000Y-84625000D03*
X77195000Y-85355000D03*
D45*
%TO.N,VDDA*%
X81630000Y-85575000D03*
X79425000Y-85675000D03*
D44*
%TO.N,RESET*%
X84275000Y-100725000D03*
X77595000Y-94665000D03*
%TO.N,Net-(D3-K)*%
X120593000Y-102404600D03*
%TO.N,TRACESWO*%
X89215000Y-97195000D03*
X89733883Y-78686283D03*
X89275000Y-99969961D03*
%TO.N,/OUT2*%
X100860000Y-95360000D03*
X70250200Y-84777000D03*
%TO.N,/OUT1*%
X100185000Y-94655000D03*
X71113800Y-83811800D03*
%TO.N,Net-(R8-Pad2)*%
X121202600Y-97832600D03*
%TO.N,USB_D+*%
X96335000Y-80950000D03*
X103013044Y-72053799D03*
X117415000Y-70680000D03*
X100304834Y-74734834D03*
%TO.N,USB_D-*%
X117415000Y-71430000D03*
X103609618Y-72420000D03*
X100835166Y-75265166D03*
X96685000Y-81635000D03*
%TO.N,/UART3_RX*%
X97095000Y-91985000D03*
%TO.N,/IN1*%
X95928629Y-84891371D03*
X101185000Y-80205000D03*
%TO.N,/IN3*%
X110435000Y-88285000D03*
X97575000Y-84576397D03*
%TO.N,/ENA*%
X88015000Y-87155000D03*
X100755000Y-78645000D03*
%TO.N,/IN4*%
X96925000Y-83275000D03*
X110555000Y-78855000D03*
%TO.N,/ENB*%
X88915000Y-87335000D03*
X110465000Y-89575000D03*
%TO.N,/UART3_TX*%
X97095000Y-91284997D03*
%TO.N,/IN2*%
X101435000Y-87735000D03*
X97615000Y-85385000D03*
%TO.N,Net-(D1-A)*%
X116224200Y-102404600D03*
%TO.N,/SDA_P*%
X88035000Y-80155000D03*
X111465000Y-73745000D03*
%TO.N,Net-(J1-Pin_3)*%
X116290000Y-92651000D03*
%TO.N,/SCL_N*%
X111435000Y-72985000D03*
X88302648Y-79508186D03*
%TD*%
D47*
%TO.N,BUZZER*%
X124555000Y-97245000D02*
X129645000Y-102335000D01*
X145055000Y-99195000D02*
X145055000Y-74455000D01*
X124555000Y-97195000D02*
X124555000Y-97245000D01*
X129645000Y-102335000D02*
X141915000Y-102335000D01*
X88195000Y-78270088D02*
X88195000Y-77455000D01*
X90725000Y-80845000D02*
X90725000Y-80800088D01*
X141915000Y-102335000D02*
X145055000Y-99195000D01*
X90725000Y-80800088D02*
X88195000Y-78270088D01*
D48*
%TO.N,GND*%
X86435000Y-74555000D02*
X88087200Y-72902800D01*
D49*
X102935000Y-103145000D02*
X105275000Y-105485000D01*
X76045000Y-67725000D02*
X76045000Y-67695000D01*
X98115000Y-94065000D02*
X96845000Y-94065000D01*
D48*
X85695000Y-88795000D02*
X85695000Y-87545000D01*
D47*
X78438200Y-82541800D02*
X77825000Y-83155000D01*
D49*
X101975000Y-103145000D02*
X102935000Y-103145000D01*
D47*
X116643600Y-65826400D02*
X116643600Y-68070000D01*
D49*
X121202600Y-59834200D02*
X120902600Y-60134200D01*
X74725000Y-69985000D02*
X76555000Y-69985000D01*
X69245000Y-97315000D02*
X75745000Y-97315000D01*
X96845000Y-94065000D02*
X96825000Y-94045000D01*
D48*
X95193000Y-72900000D02*
X97070000Y-72900000D01*
X121255000Y-74445000D02*
X121265000Y-74455000D01*
D47*
X78915000Y-82532800D02*
X78924000Y-82541800D01*
D48*
X123560000Y-81575000D02*
X123560000Y-80240000D01*
X121525000Y-82215000D02*
X122920000Y-82215000D01*
D49*
X86575000Y-61865000D02*
X86555000Y-61845000D01*
X111907500Y-83212500D02*
X110655000Y-84465000D01*
D48*
X119645000Y-74445000D02*
X121255000Y-74445000D01*
D47*
X112225200Y-64455400D02*
X113660200Y-64455400D01*
D48*
X123560000Y-80240000D02*
X123575000Y-80225000D01*
D47*
X116655000Y-65815000D02*
X116643600Y-65826400D01*
X110864600Y-64455400D02*
X110845000Y-64475000D01*
D49*
X96825000Y-94045000D02*
X95545000Y-94045000D01*
D48*
X121705000Y-87555000D02*
X121705000Y-88161400D01*
D49*
X120313400Y-62534200D02*
X120902600Y-61945000D01*
X67465000Y-69225000D02*
X73965000Y-69225000D01*
X92915000Y-61865000D02*
X86575000Y-61865000D01*
D48*
X84510000Y-74195000D02*
X84510000Y-75419556D01*
D49*
X102217500Y-83212500D02*
X101435000Y-83995000D01*
D48*
X97070000Y-72900000D02*
X97105000Y-72935000D01*
D47*
X112225200Y-64455400D02*
X110864600Y-64455400D01*
X87120000Y-69415000D02*
X90607800Y-72902800D01*
D49*
X107283400Y-105424900D02*
X105335100Y-105424900D01*
X119727600Y-62509200D02*
X119702600Y-62534200D01*
D48*
X88087200Y-72902800D02*
X90621000Y-72902800D01*
D49*
X119702600Y-62534200D02*
X120313400Y-62534200D01*
D48*
X92195000Y-88795000D02*
X92195000Y-89645444D01*
X85695000Y-87545000D02*
X85445000Y-87295000D01*
D49*
X103040000Y-83212500D02*
X102217500Y-83212500D01*
X76980000Y-69560000D02*
X76555000Y-69985000D01*
D48*
X92195000Y-89645444D02*
X92709556Y-90160000D01*
X120305000Y-86155000D02*
X121705000Y-87555000D01*
D49*
X118662600Y-89424200D02*
X120442200Y-89424200D01*
D48*
X94615000Y-79875000D02*
X93764556Y-79875000D01*
D49*
X123560000Y-81575000D02*
X123560000Y-83785000D01*
X115025000Y-59915000D02*
X112215200Y-59915000D01*
X120491400Y-90218600D02*
X120305000Y-90405000D01*
D48*
X85695000Y-76604556D02*
X86435000Y-75864556D01*
D49*
X73105000Y-61575000D02*
X77105000Y-61575000D01*
D48*
X86435000Y-75864556D02*
X86435000Y-74555000D01*
D49*
X107283400Y-105424900D02*
X116224200Y-105424900D01*
D47*
X86160000Y-95520000D02*
X86185000Y-95545000D01*
X86160000Y-93988750D02*
X86160000Y-95520000D01*
D49*
X76980000Y-68715000D02*
X76980000Y-68660000D01*
X76980000Y-68715000D02*
X76980000Y-69560000D01*
X120902600Y-61945000D02*
X120902600Y-62509200D01*
D48*
X117585000Y-82125000D02*
X116955000Y-81495000D01*
X92709556Y-90160000D02*
X94655000Y-90160000D01*
X93764556Y-79875000D02*
X92835000Y-80804556D01*
D49*
X120902600Y-60134200D02*
X120902600Y-61945000D01*
D48*
X92835000Y-80804556D02*
X92835000Y-82215000D01*
X120305000Y-85435000D02*
X120305000Y-86155000D01*
D49*
X69245000Y-97315000D02*
X66775000Y-97315000D01*
X123202600Y-60434200D02*
X123202600Y-59834200D01*
D48*
X84510000Y-75419556D02*
X85695000Y-76604556D01*
D49*
X120491400Y-89375000D02*
X120491400Y-90218600D01*
X73965000Y-69225000D02*
X74725000Y-69985000D01*
X103040000Y-81942500D02*
X103040000Y-85752500D01*
X116955000Y-59915000D02*
X117165000Y-60125000D01*
X64845000Y-92785000D02*
X64845000Y-95385000D01*
X124702600Y-61934200D02*
X123202600Y-60434200D01*
D48*
X121705000Y-88161400D02*
X120491400Y-89375000D01*
D49*
X120442200Y-89424200D02*
X120491400Y-89375000D01*
X121202600Y-59834200D02*
X123202600Y-59834200D01*
X76980000Y-68660000D02*
X76045000Y-67725000D01*
X115025000Y-59915000D02*
X116955000Y-59915000D01*
D47*
X78915000Y-80713000D02*
X78915000Y-82532800D01*
D49*
X105335100Y-105424900D02*
X105275000Y-105485000D01*
X124702600Y-62534200D02*
X124702600Y-61934200D01*
D47*
X78924000Y-82541800D02*
X78438200Y-82541800D01*
D48*
X83685000Y-73370000D02*
X84510000Y-74195000D01*
D49*
X112350000Y-83212500D02*
X111907500Y-83212500D01*
X112350000Y-81942500D02*
X112350000Y-85752500D01*
D47*
X90607800Y-72902800D02*
X90621000Y-72902800D01*
D49*
X64845000Y-95385000D02*
X66775000Y-97315000D01*
X120902600Y-62509200D02*
X119727600Y-62509200D01*
D48*
X85695000Y-76604556D02*
X85695000Y-77455000D01*
X122920000Y-82215000D02*
X123560000Y-81575000D01*
X117585000Y-82215000D02*
X117585000Y-82125000D01*
D47*
%TO.N,Net-(C21-Pad2)*%
X78560000Y-68760000D02*
X78625000Y-68695000D01*
X78560000Y-71535000D02*
X78560000Y-68760000D01*
%TO.N,PC13*%
X73965000Y-73725000D02*
X75910000Y-73725000D01*
X67465000Y-73725000D02*
X73965000Y-73725000D01*
X75910000Y-73725000D02*
X77080000Y-74895000D01*
X82060000Y-79875000D02*
X83275000Y-79875000D01*
X77010000Y-72625000D02*
X75910000Y-73725000D01*
X77010000Y-71535000D02*
X77010000Y-72625000D01*
X77080000Y-74895000D02*
X82060000Y-79875000D01*
D48*
%TO.N,3.3V*%
X115590000Y-74380000D02*
X115475000Y-74495000D01*
D49*
X118575000Y-66970000D02*
X118575000Y-65235000D01*
D48*
X121525000Y-84715000D02*
X124180000Y-84715000D01*
X116965000Y-86235000D02*
X115635000Y-84905000D01*
X85648627Y-80287781D02*
X85648627Y-78759071D01*
X107283400Y-99547600D02*
X113027600Y-99547600D01*
X79785000Y-74895000D02*
X79915000Y-74765000D01*
D49*
X115093600Y-69394200D02*
X115105000Y-69405600D01*
D48*
X93015000Y-79375000D02*
X94615000Y-79375000D01*
X118805000Y-85435000D02*
X118805000Y-86170000D01*
D49*
X115095200Y-68068400D02*
X115093600Y-68070000D01*
X87735000Y-94025000D02*
X87755000Y-94045000D01*
X115093600Y-68070000D02*
X115093600Y-69394200D01*
D48*
X118740000Y-86235000D02*
X116965000Y-86235000D01*
X115095200Y-68068400D02*
X115095200Y-65405400D01*
D49*
X87755000Y-94045000D02*
X90465000Y-94045000D01*
D48*
X69435000Y-86667500D02*
X70992500Y-86667500D01*
X92695000Y-88795000D02*
X93349694Y-88795000D01*
D49*
X125110000Y-81575000D02*
X125110000Y-83785000D01*
D48*
X125110000Y-83785000D02*
X125110000Y-85190000D01*
X83275000Y-79375000D02*
X78795000Y-74895000D01*
X91725000Y-80665000D02*
X93015000Y-79375000D01*
X117335000Y-74380000D02*
X115590000Y-74380000D01*
X70992500Y-86667500D02*
X70995000Y-86665000D01*
X120593000Y-105424900D02*
X122815100Y-105424900D01*
X118805000Y-86170000D02*
X118740000Y-86235000D01*
X93349694Y-88795000D02*
X93787347Y-89232653D01*
X78730000Y-74895000D02*
X79785000Y-74895000D01*
X124180000Y-84715000D02*
X125110000Y-83785000D01*
X91725000Y-82215000D02*
X91725000Y-80665000D01*
X82040000Y-69415000D02*
X82040000Y-71490000D01*
D49*
X118575000Y-65235000D02*
X118565000Y-65225000D01*
D48*
X85195000Y-78305444D02*
X85195000Y-77455000D01*
X82040000Y-71490000D02*
X82325000Y-71775000D01*
X78795000Y-74895000D02*
X78730000Y-74895000D01*
X122815100Y-105424900D02*
X122855000Y-105385000D01*
X113027600Y-99547600D02*
X113085000Y-99605000D01*
X115635000Y-84905000D02*
X115635000Y-82975000D01*
X85648627Y-78759071D02*
X85195000Y-78305444D01*
X86195000Y-88795000D02*
X86195000Y-86750000D01*
X125110000Y-85190000D02*
X125115000Y-85195000D01*
X86195000Y-86750000D02*
X85640000Y-86195000D01*
D47*
%TO.N,Net-(U2-REGOUT)*%
X119805000Y-87138600D02*
X119805000Y-85435000D01*
X120491400Y-87825000D02*
X119805000Y-87138600D01*
%TO.N,Net-(U2-CPOUT)*%
X120305000Y-76655000D02*
X120305000Y-81495000D01*
X119645000Y-75995000D02*
X120305000Y-76655000D01*
%TO.N,AGND*%
X67868000Y-85352000D02*
X66945000Y-86275000D01*
D48*
X64915000Y-86692500D02*
X66942500Y-86692500D01*
D47*
X77195000Y-85355000D02*
X73485000Y-85355000D01*
X73482000Y-85352000D02*
X67868000Y-85352000D01*
X73485000Y-85355000D02*
X73482000Y-85352000D01*
D48*
X66942500Y-86692500D02*
X66945000Y-86695000D01*
D47*
X83275000Y-84875000D02*
X81915000Y-84875000D01*
X81915000Y-84875000D02*
X81665000Y-84625000D01*
X66945000Y-86275000D02*
X66945000Y-86695000D01*
%TO.N,VDDA*%
X83275000Y-85375000D02*
X81830000Y-85375000D01*
D49*
X69435000Y-88242500D02*
X76857500Y-88242500D01*
X64915000Y-88242500D02*
X69435000Y-88242500D01*
X76857500Y-88242500D02*
X79425000Y-85675000D01*
X64915000Y-88242500D02*
X66942500Y-88242500D01*
X66945000Y-88245000D02*
X69432500Y-88245000D01*
X66942500Y-88242500D02*
X66945000Y-88245000D01*
X69432500Y-88245000D02*
X69435000Y-88242500D01*
D47*
X81830000Y-85375000D02*
X81630000Y-85575000D01*
D49*
%TO.N,Net-(J7-Pin_1)*%
X111769800Y-61465000D02*
X109549800Y-59245000D01*
X115095200Y-61535200D02*
X115025000Y-61465000D01*
X115095200Y-63505400D02*
X115095200Y-61535200D01*
X112225200Y-61475000D02*
X112215200Y-61465000D01*
X109549800Y-59245000D02*
X104985000Y-59245000D01*
X100895000Y-60835000D02*
X103395000Y-60835000D01*
X112225200Y-63505400D02*
X112225200Y-61475000D01*
X112215200Y-61465000D02*
X115025000Y-61465000D01*
X112215200Y-61465000D02*
X111769800Y-61465000D01*
X104985000Y-59245000D02*
X103395000Y-60835000D01*
D47*
%TO.N,OSC_OUT*%
X78946800Y-84069000D02*
X80474000Y-82541800D01*
X81140800Y-81875000D02*
X83275000Y-81875000D01*
X74822200Y-84069000D02*
X78946800Y-84069000D01*
X80474000Y-82541800D02*
X81140800Y-81875000D01*
%TO.N,OSC_IN*%
X74822200Y-79189000D02*
X78941000Y-79189000D01*
X78941000Y-79189000D02*
X80465000Y-80713000D01*
X80465000Y-80713000D02*
X81127000Y-81375000D01*
X81127000Y-81375000D02*
X83275000Y-81375000D01*
%TO.N,RESET*%
X69215000Y-92785000D02*
X69245000Y-92815000D01*
X84275000Y-100725000D02*
X84305000Y-100755000D01*
X77595000Y-94665000D02*
X75745000Y-92815000D01*
X75975000Y-92815000D02*
X80905000Y-87885000D01*
X75745000Y-92815000D02*
X75975000Y-92815000D01*
X89425000Y-100755000D02*
X91815000Y-103145000D01*
X84305000Y-100755000D02*
X89425000Y-100755000D01*
X80905000Y-87885000D02*
X80905000Y-83929912D01*
X66395000Y-92785000D02*
X69215000Y-92785000D01*
X82459912Y-82375000D02*
X83275000Y-82375000D01*
X80905000Y-83929912D02*
X82459912Y-82375000D01*
X69245000Y-92815000D02*
X75745000Y-92815000D01*
D49*
%TO.N,7.4V*%
X104225100Y-89562500D02*
X105454600Y-88333000D01*
X83799400Y-64050600D02*
X79995000Y-67855000D01*
X77105000Y-64075000D02*
X77129400Y-64050600D01*
X90621000Y-71352800D02*
X90621000Y-68549000D01*
X90621000Y-68549000D02*
X90635000Y-68535000D01*
X91776400Y-71352800D02*
X90621000Y-71352800D01*
X90635000Y-68065000D02*
X90635000Y-68535000D01*
X105454600Y-88333000D02*
X105454600Y-77766600D01*
X96564600Y-76141000D02*
X91776400Y-71352800D01*
X103829000Y-76141000D02*
X96564600Y-76141000D01*
X79995000Y-67855000D02*
X79995000Y-71320000D01*
X77129400Y-64050600D02*
X83799400Y-64050600D01*
X103040000Y-89562500D02*
X104225100Y-89562500D01*
X90629500Y-71344300D02*
X90621000Y-71352800D01*
X105454600Y-77766600D02*
X103829000Y-76141000D01*
X90621000Y-68259100D02*
X90629500Y-68250600D01*
X83799400Y-64050600D02*
X86620600Y-64050600D01*
X79995000Y-71320000D02*
X81990000Y-73315000D01*
X86620600Y-64050600D02*
X90635000Y-68065000D01*
%TO.N,5V(BAT)*%
X95195000Y-68535000D02*
X99745000Y-68535000D01*
X100725000Y-65154800D02*
X100715200Y-65145000D01*
X95195000Y-68535000D02*
X95195000Y-71348000D01*
X95193000Y-68254100D02*
X95189500Y-68250600D01*
X95195000Y-71348000D02*
X95193000Y-71350000D01*
X100725000Y-69515000D02*
X103225000Y-69515000D01*
X100725000Y-69515000D02*
X100725000Y-65154800D01*
X99745000Y-68535000D02*
X100725000Y-69515000D01*
D50*
%TO.N,Net-(D8-A)*%
X84285000Y-91441250D02*
X84287500Y-91438750D01*
X84285000Y-93988750D02*
X84285000Y-91441250D01*
D47*
%TO.N,Net-(D2-A)*%
X111144200Y-103549900D02*
X111144200Y-101197600D01*
%TO.N,Net-(D3-K)*%
X120593000Y-103549900D02*
X120593000Y-102404600D01*
%TO.N,U5V*%
X123502600Y-62984200D02*
X125588400Y-65070000D01*
D49*
X125955000Y-70505000D02*
X125955000Y-65436600D01*
X105795200Y-64765400D02*
X106815400Y-64765400D01*
X124015000Y-72445000D02*
X125955000Y-70505000D01*
D47*
X125588400Y-65070000D02*
X125774200Y-65255800D01*
D49*
X114495000Y-72445000D02*
X124015000Y-72445000D01*
D47*
X123502600Y-62509200D02*
X123502600Y-62984200D01*
D49*
X106815400Y-64765400D02*
X114495000Y-72445000D01*
X125955000Y-65436600D02*
X125588400Y-65070000D01*
D47*
%TO.N,Net-(D6-A)*%
X107283400Y-101197600D02*
X107283400Y-103549900D01*
%TO.N,Net-(J4-D+)*%
X122202600Y-64084400D02*
X122202600Y-62509200D01*
X121131000Y-65156000D02*
X122202600Y-64084400D01*
%TO.N,Net-(J4-D-)*%
X122852600Y-64367600D02*
X123641000Y-65156000D01*
X122852600Y-62509200D02*
X122852600Y-64367600D01*
D49*
%TO.N,Net-(J6-Pin_2)*%
X103255200Y-63824800D02*
X105935000Y-61145000D01*
X103255200Y-65145000D02*
X103255200Y-63824800D01*
D50*
%TO.N,Net-(J8-Pin_2)*%
X91145000Y-92185000D02*
X93005000Y-94045000D01*
X90220000Y-92185000D02*
X91145000Y-92185000D01*
X89060000Y-91025000D02*
X90220000Y-92185000D01*
D47*
%TO.N,Net-(J9-Pin_2)*%
X85535000Y-75085000D02*
X85535000Y-70370000D01*
X85535000Y-70370000D02*
X84580000Y-69415000D01*
%TO.N,SWCLK*%
X99435000Y-103145000D02*
X99585000Y-102995000D01*
X99585000Y-81435000D02*
X95605000Y-77455000D01*
X99585000Y-102995000D02*
X99585000Y-81435000D01*
X95605000Y-77455000D02*
X92695000Y-77455000D01*
%TO.N,TRACESWO*%
X89695000Y-78647400D02*
X89695000Y-77455000D01*
X89275000Y-99969961D02*
X89215000Y-99909961D01*
X89215000Y-99909961D02*
X89215000Y-97195000D01*
X89733883Y-78686283D02*
X89695000Y-78647400D01*
%TO.N,SWDIO*%
X98925000Y-101115000D02*
X98925000Y-82245000D01*
X98925000Y-82245000D02*
X97055000Y-80375000D01*
X97055000Y-80375000D02*
X94615000Y-80375000D01*
X96895000Y-103145000D02*
X98925000Y-101115000D01*
%TO.N,/UART2_RX*%
X80745000Y-90865000D02*
X80745000Y-101605000D01*
X85195000Y-88795000D02*
X82815000Y-88795000D01*
X82815000Y-88795000D02*
X80745000Y-90865000D01*
X80745000Y-101605000D02*
X82285000Y-103145000D01*
%TO.N,/UART2_TX*%
X79745000Y-103145000D02*
X79745000Y-90405000D01*
X79745000Y-90405000D02*
X83275000Y-86875000D01*
%TO.N,/OUT2*%
X70250200Y-84777000D02*
X68618200Y-83145000D01*
X68618200Y-83145000D02*
X67935000Y-83145000D01*
X101334327Y-87022500D02*
X103040000Y-87022500D01*
X100860000Y-95360000D02*
X100860000Y-87496827D01*
X100860000Y-87496827D02*
X101334327Y-87022500D01*
%TO.N,/OUT1*%
X100185000Y-94655000D02*
X100185000Y-83096592D01*
X71113800Y-83811800D02*
X70991800Y-83811800D01*
X100185000Y-83096592D02*
X102609092Y-80672500D01*
X102609092Y-80672500D02*
X103040000Y-80672500D01*
X67935000Y-80885000D02*
X67935000Y-80605000D01*
X67935000Y-80755000D02*
X67935000Y-80605000D01*
X70991800Y-83811800D02*
X67935000Y-80755000D01*
%TO.N,/OUT3*%
X114515000Y-93329400D02*
X128416200Y-107230600D01*
X148539400Y-107230600D02*
X155735000Y-100035000D01*
X128416200Y-107230600D02*
X148539400Y-107230600D01*
X113392500Y-87022500D02*
X114515000Y-88145000D01*
X155735000Y-84325000D02*
X156925000Y-83135000D01*
X112350000Y-87022500D02*
X113392500Y-87022500D01*
X114515000Y-88145000D02*
X114515000Y-93329400D01*
X156925000Y-83135000D02*
X157935000Y-83135000D01*
X155735000Y-100035000D02*
X155735000Y-84325000D01*
%TO.N,/OUT4*%
X155045000Y-83455000D02*
X157905000Y-80595000D01*
X113374999Y-80672500D02*
X113865000Y-81162501D01*
X115715000Y-93411800D02*
X128670200Y-106367000D01*
X128670200Y-106367000D02*
X148543000Y-106367000D01*
X113865000Y-81162501D02*
X113865000Y-86375000D01*
X148543000Y-106367000D02*
X155045000Y-99865000D01*
X113865000Y-86375000D02*
X115715000Y-88225000D01*
X155045000Y-99865000D02*
X155045000Y-83455000D01*
X112350000Y-80672500D02*
X113374999Y-80672500D01*
X115715000Y-88225000D02*
X115715000Y-93411800D01*
X157905000Y-80595000D02*
X157935000Y-80595000D01*
%TO.N,PA5*%
X85937500Y-91438750D02*
X87195000Y-90181250D01*
X87195000Y-90181250D02*
X87195000Y-88795000D01*
%TO.N,Net-(R8-Pad2)*%
X129054200Y-78695800D02*
X129279800Y-78695800D01*
X127298600Y-80451400D02*
X129054200Y-78695800D01*
X127298600Y-91736600D02*
X127298600Y-80451400D01*
X121202600Y-97832600D02*
X127298600Y-91736600D01*
D50*
%TO.N,USB_D+*%
X117564999Y-70829999D02*
X117415000Y-70680000D01*
X96335000Y-80950000D02*
X96285000Y-80900000D01*
X100516967Y-74734834D02*
X100304834Y-74734834D01*
X121131000Y-66806000D02*
X121131000Y-68679603D01*
D47*
X120074000Y-66806000D02*
X121131000Y-66806000D01*
X118575000Y-68305000D02*
X120074000Y-66806000D01*
D50*
X103013044Y-72238757D02*
X100516967Y-74734834D01*
X118980604Y-70829999D02*
X117564999Y-70829999D01*
D47*
X118575000Y-68620000D02*
X118575000Y-68305000D01*
D50*
X103013044Y-72053799D02*
X103013044Y-72238757D01*
X96285000Y-80900000D02*
X95235000Y-80900000D01*
X121131000Y-68679603D02*
X118980604Y-70829999D01*
X95235000Y-80900000D02*
X95210000Y-80875000D01*
X95210000Y-80875000D02*
X94615000Y-80875000D01*
%TO.N,USB_D-*%
X119166999Y-71280001D02*
X117564999Y-71280001D01*
X117564999Y-71280001D02*
X117415000Y-71430000D01*
X96685000Y-81635000D02*
X96222154Y-81635000D01*
X100835166Y-75053033D02*
X100835166Y-75265166D01*
X103609618Y-72420000D02*
X103468199Y-72420000D01*
X95962154Y-81375000D02*
X94615000Y-81375000D01*
X103468199Y-72420000D02*
X100835166Y-75053033D01*
X123641000Y-66806000D02*
X119166999Y-71280001D01*
X96222154Y-81635000D02*
X95962154Y-81375000D01*
%TO.N,BOOT1*%
X90695000Y-88795000D02*
X90695000Y-91010000D01*
X90695000Y-91010000D02*
X90710000Y-91025000D01*
D47*
%TO.N,BOOT0*%
X87195000Y-75095000D02*
X87185000Y-75085000D01*
X87195000Y-77455000D02*
X87195000Y-75095000D01*
%TO.N,/UART3_RX*%
X97055000Y-91945000D02*
X93025000Y-91945000D01*
X91195000Y-90115000D02*
X91195000Y-88795000D01*
X93025000Y-91945000D02*
X91195000Y-90115000D01*
X97095000Y-91985000D02*
X97055000Y-91945000D01*
%TO.N,/IN1*%
X95912258Y-84875000D02*
X94615000Y-84875000D01*
X101987500Y-79402500D02*
X103040000Y-79402500D01*
X95928629Y-84891371D02*
X95912258Y-84875000D01*
X101185000Y-80205000D02*
X101987500Y-79402500D01*
%TO.N,/IN3*%
X95430088Y-83875000D02*
X94615000Y-83875000D01*
X97575000Y-84576397D02*
X97376397Y-84576397D01*
X110442500Y-88292500D02*
X110435000Y-88285000D01*
X95470088Y-83835000D02*
X95430088Y-83875000D01*
X96635000Y-83835000D02*
X95470088Y-83835000D01*
X97376397Y-84576397D02*
X96635000Y-83835000D01*
X112350000Y-88292500D02*
X110442500Y-88292500D01*
%TO.N,/ENA*%
X100755000Y-78645000D02*
X101267500Y-78132500D01*
X88015000Y-87155000D02*
X87695000Y-87475000D01*
X101267500Y-78132500D02*
X103040000Y-78132500D01*
X87695000Y-87475000D02*
X87695000Y-88795000D01*
%TO.N,/IN4*%
X111102500Y-79402500D02*
X112350000Y-79402500D01*
X110555000Y-78855000D02*
X111102500Y-79402500D01*
X96825000Y-83375000D02*
X94615000Y-83375000D01*
X96925000Y-83275000D02*
X96825000Y-83375000D01*
%TO.N,/ENB*%
X88915000Y-87335000D02*
X88839912Y-87335000D01*
X88839912Y-87335000D02*
X88195000Y-87979912D01*
X112350000Y-89562500D02*
X110477500Y-89562500D01*
X88195000Y-87979912D02*
X88195000Y-88795000D01*
X110477500Y-89562500D02*
X110465000Y-89575000D01*
%TO.N,/ADC2*%
X84905000Y-85705000D02*
X84235000Y-86375000D01*
X83685000Y-75020000D02*
X83610000Y-75095000D01*
X84235000Y-86375000D02*
X83275000Y-86375000D01*
X84905000Y-79075000D02*
X84905000Y-85705000D01*
X83610000Y-77780000D02*
X84905000Y-79075000D01*
X83610000Y-75095000D02*
X83610000Y-77780000D01*
X81910000Y-75095000D02*
X83610000Y-75095000D01*
%TO.N,/UART3_TX*%
X91695000Y-88795000D02*
X91695000Y-89817196D01*
X93162801Y-91284997D02*
X97095000Y-91284997D01*
X91695000Y-89817196D02*
X93162801Y-91284997D01*
%TO.N,/IN2*%
X96166802Y-84316371D02*
X95690456Y-84316371D01*
X95690456Y-84316371D02*
X95631827Y-84375000D01*
X101992500Y-88292500D02*
X101435000Y-87735000D01*
X97235431Y-85385000D02*
X96166802Y-84316371D01*
X97615000Y-85385000D02*
X97235431Y-85385000D01*
X103040000Y-88292500D02*
X101992500Y-88292500D01*
X95631827Y-84375000D02*
X94615000Y-84375000D01*
%TO.N,Net-(D1-A)*%
X116224200Y-102404600D02*
X116224200Y-103549900D01*
%TO.N,/SDA_P*%
X116109800Y-78160200D02*
X118305000Y-80355400D01*
X115635000Y-81325000D02*
X115635000Y-78635000D01*
X111465000Y-73745000D02*
X111694600Y-73745000D01*
X87370600Y-80155000D02*
X86195000Y-78979400D01*
X86195000Y-78979400D02*
X86195000Y-77455000D01*
X118305000Y-80355400D02*
X118305000Y-81495000D01*
X88035000Y-80155000D02*
X87370600Y-80155000D01*
X115635000Y-78635000D02*
X116109800Y-78160200D01*
X111694600Y-73745000D02*
X116109800Y-78160200D01*
%TO.N,Net-(J1-Pin_3)*%
X116290000Y-92651000D02*
X116290000Y-87853604D01*
D49*
X105725000Y-71477900D02*
X105725000Y-69515000D01*
D47*
X114605000Y-86168604D02*
X114605000Y-79956592D01*
X116290000Y-87853604D02*
X114605000Y-86168604D01*
X114605000Y-79956592D02*
X112780908Y-78132500D01*
D49*
X112350000Y-78132500D02*
X105710200Y-71492700D01*
X105710200Y-71492700D02*
X105725000Y-71477900D01*
D47*
X112780908Y-78132500D02*
X112350000Y-78132500D01*
%TO.N,/SCL_N*%
X116362800Y-77397200D02*
X111950600Y-72985000D01*
X86695000Y-78699200D02*
X86695000Y-77455000D01*
X118805000Y-79839400D02*
X116362800Y-77397200D01*
X111950600Y-72985000D02*
X111435000Y-72985000D01*
X117335000Y-76030000D02*
X117335000Y-76425000D01*
X88302648Y-79508186D02*
X87503986Y-79508186D01*
X117335000Y-76425000D02*
X116362800Y-77397200D01*
X87503986Y-79508186D02*
X86695000Y-78699200D01*
X118805000Y-81495000D02*
X118805000Y-79839400D01*
%TO.N,Net-(U2-AD0)*%
X118662600Y-87774200D02*
X119305000Y-87131800D01*
X119305000Y-87131800D02*
X119305000Y-85435000D01*
%TD*%
M02*
