%TF.GenerationSoftware,KiCad,Pcbnew,8.0.5*%
%TF.CreationDate,2024-12-24T01:11:55+09:00*%
%TF.ProjectId,Balancing_robot,42616c61-6e63-4696-9e67-5f726f626f74,rev?*%
%TF.SameCoordinates,Original*%
%TF.FileFunction,Copper,L4,Bot*%
%TF.FilePolarity,Positive*%
%FSLAX46Y46*%
G04 Gerber Fmt 4.6, Leading zero omitted, Abs format (unit mm)*
G04 Created by KiCad (PCBNEW 8.0.5) date 2024-12-24 01:11:55*
%MOMM*%
%LPD*%
G01*
G04 APERTURE LIST*
G04 Aperture macros list*
%AMRoundRect*
0 Rectangle with rounded corners*
0 $1 Rounding radius*
0 $2 $3 $4 $5 $6 $7 $8 $9 X,Y pos of 4 corners*
0 Add a 4 corners polygon primitive as box body*
4,1,4,$2,$3,$4,$5,$6,$7,$8,$9,$2,$3,0*
0 Add four circle primitives for the rounded corners*
1,1,$1+$1,$2,$3*
1,1,$1+$1,$4,$5*
1,1,$1+$1,$6,$7*
1,1,$1+$1,$8,$9*
0 Add four rect primitives between the rounded corners*
20,1,$1+$1,$2,$3,$4,$5,0*
20,1,$1+$1,$4,$5,$6,$7,0*
20,1,$1+$1,$6,$7,$8,$9,0*
20,1,$1+$1,$8,$9,$2,$3,0*%
G04 Aperture macros list end*
%TA.AperFunction,ComponentPad*%
%ADD10C,1.524000*%
%TD*%
%TA.AperFunction,ComponentPad*%
%ADD11O,0.775000X1.550000*%
%TD*%
%TA.AperFunction,ComponentPad*%
%ADD12O,1.300000X0.950000*%
%TD*%
%TA.AperFunction,ComponentPad*%
%ADD13C,2.000000*%
%TD*%
%TA.AperFunction,ComponentPad*%
%ADD14R,1.700000X1.700000*%
%TD*%
%TA.AperFunction,ComponentPad*%
%ADD15O,1.700000X1.700000*%
%TD*%
%TA.AperFunction,ComponentPad*%
%ADD16RoundRect,0.250000X-0.675000X0.600000X-0.675000X-0.600000X0.675000X-0.600000X0.675000X0.600000X0*%
%TD*%
%TA.AperFunction,ComponentPad*%
%ADD17O,1.850000X1.700000*%
%TD*%
%TA.AperFunction,ComponentPad*%
%ADD18C,1.500000*%
%TD*%
%TA.AperFunction,ComponentPad*%
%ADD19R,2.000000X2.000000*%
%TD*%
%TA.AperFunction,SMDPad,CuDef*%
%ADD20RoundRect,0.225000X-0.250000X0.225000X-0.250000X-0.225000X0.250000X-0.225000X0.250000X0.225000X0*%
%TD*%
%TA.AperFunction,SMDPad,CuDef*%
%ADD21RoundRect,0.200000X-0.275000X0.200000X-0.275000X-0.200000X0.275000X-0.200000X0.275000X0.200000X0*%
%TD*%
%TA.AperFunction,SMDPad,CuDef*%
%ADD22RoundRect,0.200000X0.275000X-0.200000X0.275000X0.200000X-0.275000X0.200000X-0.275000X-0.200000X0*%
%TD*%
%TA.AperFunction,ViaPad*%
%ADD23C,0.500000*%
%TD*%
%TA.AperFunction,ViaPad*%
%ADD24C,0.800000*%
%TD*%
%TA.AperFunction,ViaPad*%
%ADD25C,0.600000*%
%TD*%
%TA.AperFunction,Conductor*%
%ADD26C,0.250000*%
%TD*%
%TA.AperFunction,Conductor*%
%ADD27C,0.500000*%
%TD*%
%TA.AperFunction,Conductor*%
%ADD28C,0.200000*%
%TD*%
G04 APERTURE END LIST*
D10*
%TO.P,J7,1,Pin_1*%
%TO.N,Net-(J7-Pin_1)*%
X100895000Y-60835000D03*
%TO.P,J7,2,Pin_2*%
X103395000Y-60835000D03*
%TO.P,J7,3,Pin_3*%
%TO.N,Net-(J6-Pin_2)*%
X105895000Y-60835000D03*
%TD*%
D11*
%TO.P,J4,SH1,SHIELD*%
%TO.N,GND*%
X125702600Y-59834200D03*
%TO.P,J4,SH4,SHIELD*%
X118702600Y-59834200D03*
D12*
%TO.P,J4,SH5,SHIELD*%
X124702600Y-62534200D03*
%TO.P,J4,SH6,SHIELD*%
X119702600Y-62534200D03*
%TD*%
D13*
%TO.P,SW3,1,1*%
%TO.N,GND*%
X75745000Y-97315000D03*
X69245000Y-97315000D03*
%TO.P,SW3,2,2*%
%TO.N,RESET*%
X75745000Y-92815000D03*
X69245000Y-92815000D03*
%TD*%
D14*
%TO.P,J9,1,Pin_1*%
%TO.N,3.3V*%
X82040000Y-69415000D03*
D15*
%TO.P,J9,2,Pin_2*%
%TO.N,Net-(J9-Pin_2)*%
X84580000Y-69415000D03*
%TO.P,J9,3,Pin_3*%
%TO.N,GND*%
X87120000Y-69415000D03*
%TD*%
D16*
%TO.P,J5,1,Pin_1*%
%TO.N,GND*%
X77105000Y-61575000D03*
D17*
%TO.P,J5,2,Pin_2*%
%TO.N,7.4V*%
X77105000Y-64075000D03*
%TD*%
D14*
%TO.P,J8,1,Pin_1*%
%TO.N,3.3V*%
X90465000Y-94045000D03*
D15*
%TO.P,J8,2,Pin_2*%
%TO.N,Net-(J8-Pin_2)*%
X93005000Y-94045000D03*
%TO.P,J8,3,Pin_3*%
%TO.N,GND*%
X95545000Y-94045000D03*
%TD*%
D14*
%TO.P,M2,1,+*%
%TO.N,/OUT4*%
X157935000Y-80595000D03*
D15*
%TO.P,M2,2,-*%
%TO.N,/OUT3*%
X157935000Y-83135000D03*
%TD*%
D14*
%TO.P,J14,1,Pin_1*%
%TO.N,GND*%
X84825000Y-103145000D03*
D15*
%TO.P,J14,2,Pin_2*%
%TO.N,/UART2_RX*%
X82285000Y-103145000D03*
%TO.P,J14,3,Pin_3*%
%TO.N,/UART2_TX*%
X79745000Y-103145000D03*
%TO.P,J14,4,Pin_4*%
%TO.N,3.3V*%
X77205000Y-103145000D03*
%TD*%
D14*
%TO.P,J10,1,Pin_1*%
%TO.N,GND*%
X101975000Y-103145000D03*
D15*
%TO.P,J10,2,Pin_2*%
%TO.N,SWCLK*%
X99435000Y-103145000D03*
%TO.P,J10,3,Pin_3*%
%TO.N,SWDIO*%
X96895000Y-103145000D03*
%TO.P,J10,4,Pin_4*%
%TO.N,3.3V*%
X94355000Y-103145000D03*
%TO.P,J10,5,Pin_5*%
%TO.N,RESET*%
X91815000Y-103145000D03*
%TO.P,J10,6,Pin_6*%
%TO.N,TRACESWO*%
X89275000Y-103145000D03*
%TD*%
D10*
%TO.P,U3,0,0*%
%TO.N,unconnected-(U3-Pad0)*%
X152139800Y-91395800D03*
%TO.P,U3,2,2*%
%TO.N,unconnected-(U3-Pad2)*%
X152139800Y-93935800D03*
%TO.P,U3,3V,3V*%
%TO.N,3.3V*%
X129279800Y-60915800D03*
%TO.P,U3,4,4*%
%TO.N,unconnected-(U3-Pad4)*%
X152139800Y-88855800D03*
%TO.P,U3,5,5*%
%TO.N,unconnected-(U3-Pad5)*%
X152139800Y-81235800D03*
%TO.P,U3,12,12*%
%TO.N,unconnected-(U3-Pad12)*%
X129279800Y-88855800D03*
%TO.P,U3,13,13*%
%TO.N,unconnected-(U3-Pad13)*%
X129279800Y-91395800D03*
%TO.P,U3,14,14*%
%TO.N,unconnected-(U3-Pad14)*%
X129279800Y-86315800D03*
%TO.P,U3,15,15*%
%TO.N,unconnected-(U3-Pad15)*%
X152139800Y-96475800D03*
%TO.P,U3,16,16*%
%TO.N,/UART3_TX*%
X152139800Y-86315800D03*
%TO.P,U3,17,17*%
%TO.N,/UART3_RX*%
X152139800Y-83775800D03*
%TO.P,U3,18,18*%
%TO.N,unconnected-(U3-Pad18)*%
X152139800Y-78695800D03*
%TO.P,U3,19,19*%
%TO.N,unconnected-(U3-Pad19)*%
X152139800Y-76155800D03*
%TO.P,U3,21,21*%
%TO.N,unconnected-(U3-Pad21)*%
X152139800Y-73615800D03*
%TO.P,U3,22,22*%
%TO.N,unconnected-(U3-Pad22)*%
X152139800Y-65995800D03*
%TO.P,U3,23,23*%
%TO.N,unconnected-(U3-Pad23)*%
X152139800Y-63455800D03*
%TO.P,U3,25,25*%
%TO.N,Net-(R8-Pad2)*%
X129279800Y-78695800D03*
%TO.P,U3,26,26*%
%TO.N,unconnected-(U3-Pad26)*%
X129279800Y-81235800D03*
%TO.P,U3,27,27*%
%TO.N,unconnected-(U3-Pad27)*%
X129279800Y-83775800D03*
%TO.P,U3,32,32*%
%TO.N,unconnected-(U3-Pad32)*%
X129279800Y-73615800D03*
%TO.P,U3,33,33*%
%TO.N,unconnected-(U3-Pad33)*%
X129279800Y-76155800D03*
%TO.P,U3,34,34*%
%TO.N,unconnected-(U3-Pad34)*%
X129279800Y-71075800D03*
%TO.P,U3,BAT,BAT*%
%TO.N,unconnected-(U3-PadBAT)*%
X129279800Y-99015800D03*
%TO.P,U3,EN,EN*%
%TO.N,unconnected-(U3-PadEN)*%
X129279800Y-93935800D03*
%TO.P,U3,GND,GND*%
%TO.N,GND*%
X152139800Y-60915800D03*
X152139800Y-99015800D03*
%TO.P,U3,RS,RS*%
%TO.N,unconnected-(U3-PadRS)*%
X129279800Y-63455800D03*
%TO.P,U3,RX,RX*%
%TO.N,unconnected-(U3-PadRX)*%
X152139800Y-71075800D03*
%TO.P,U3,TX,TX*%
%TO.N,unconnected-(U3-PadTX)*%
X152139800Y-68535800D03*
%TO.P,U3,USB,USB*%
%TO.N,unconnected-(U3-PadUSB)*%
X129279800Y-96475800D03*
%TO.P,U3,VN,VN*%
%TO.N,unconnected-(U3-PadVN)*%
X129279800Y-68535800D03*
%TO.P,U3,VP,VP*%
%TO.N,unconnected-(U3-PadVP)*%
X129279800Y-65995800D03*
%TD*%
D13*
%TO.P,SW2,1,1*%
%TO.N,GND*%
X67465000Y-69225000D03*
X73965000Y-69225000D03*
%TO.P,SW2,2,2*%
%TO.N,PC13*%
X67465000Y-73725000D03*
X73965000Y-73725000D03*
%TD*%
D14*
%TO.P,M1,1,+*%
%TO.N,/OUT2*%
X67935000Y-83145000D03*
D15*
%TO.P,M1,2,-*%
%TO.N,/OUT1*%
X67935000Y-80605000D03*
%TD*%
D18*
%TO.P,Y1,1,1*%
%TO.N,OSC_IN*%
X74822200Y-79189000D03*
%TO.P,Y1,2,2*%
%TO.N,OSC_OUT*%
X74822200Y-84069000D03*
%TD*%
D10*
%TO.P,J1,1,Pin_1*%
%TO.N,5V(BAT)*%
X100725000Y-69515000D03*
%TO.P,J1,2,Pin_2*%
X103225000Y-69515000D03*
%TO.P,J1,3,Pin_3*%
%TO.N,Net-(J1-Pin_3)*%
X105725000Y-69515000D03*
%TD*%
D14*
%TO.P,J6,1,Pin_1*%
%TO.N,5V(BAT)*%
X100715200Y-65145000D03*
D15*
%TO.P,J6,2,Pin_2*%
%TO.N,Net-(J6-Pin_2)*%
X103255200Y-65145000D03*
%TO.P,J6,3,Pin_3*%
%TO.N,U5V*%
X105795200Y-65145000D03*
%TD*%
D19*
%TO.P,BZ2,1,+*%
%TO.N,BUZZER*%
X145055000Y-74455000D03*
D13*
%TO.P,BZ2,2,-*%
%TO.N,GND*%
X135055000Y-74455000D03*
%TD*%
D20*
%TO.P,C12,1*%
%TO.N,3.3V*%
X136005000Y-86575000D03*
%TO.P,C12,2*%
%TO.N,GND*%
X136005000Y-88125000D03*
%TD*%
D21*
%TO.P,R3,1*%
%TO.N,Net-(J1-Pin_3)*%
X116224200Y-99801600D03*
%TO.P,R3,2*%
%TO.N,Net-(D1-A)*%
X116224200Y-101451600D03*
%TD*%
D20*
%TO.P,C6,1*%
%TO.N,3.3V*%
X139055000Y-86575000D03*
%TO.P,C6,2*%
%TO.N,GND*%
X139055000Y-88125000D03*
%TD*%
D22*
%TO.P,R8,1*%
%TO.N,Net-(D3-K)*%
X120593000Y-101451600D03*
%TO.P,R8,2*%
%TO.N,Net-(R8-Pad2)*%
X120593000Y-99801600D03*
%TD*%
D20*
%TO.P,C10,1*%
%TO.N,3.3V*%
X147315000Y-86590000D03*
%TO.P,C10,2*%
%TO.N,GND*%
X147315000Y-88140000D03*
%TD*%
%TO.P,C8,1*%
%TO.N,3.3V*%
X144625000Y-86590000D03*
%TO.P,C8,2*%
%TO.N,GND*%
X144625000Y-88140000D03*
%TD*%
%TO.P,C7,1*%
%TO.N,3.3V*%
X141875000Y-86575000D03*
%TO.P,C7,2*%
%TO.N,GND*%
X141875000Y-88125000D03*
%TD*%
D23*
%TO.N,BUZZER*%
X124555000Y-97195000D03*
X90725000Y-80845000D03*
D24*
%TO.N,GND*%
X117165000Y-60125000D03*
D23*
X110655000Y-84465000D03*
X116655000Y-65815000D03*
D24*
X86555000Y-61845000D03*
X98115000Y-94065000D03*
X85445000Y-87295000D03*
D23*
X105275000Y-105485000D03*
D24*
X77825000Y-83155000D03*
X92835000Y-82215000D03*
X97105000Y-72935000D03*
D23*
X73105000Y-61575000D03*
X66775000Y-97315000D03*
D24*
X123575000Y-80225000D03*
X94655000Y-90160000D03*
D23*
X76045000Y-67695000D03*
X101435000Y-83995000D03*
D25*
X86185000Y-95545000D03*
D23*
X120305000Y-90405000D03*
D24*
X149515000Y-88105000D03*
X116955000Y-81495000D03*
X121265000Y-74455000D03*
D23*
X110845000Y-64475000D03*
D24*
%TO.N,3.3V*%
X125115000Y-85195000D03*
X85640000Y-86195000D03*
X87735000Y-94025000D03*
X122855000Y-105385000D03*
X113085000Y-99605000D03*
X91725000Y-82215000D03*
X116965000Y-86235000D03*
X82325000Y-71775000D03*
X70995000Y-86665000D03*
X118565000Y-65225000D03*
X133705000Y-85935000D03*
X115105000Y-69405600D03*
X93787347Y-89232653D03*
X115475000Y-74495000D03*
X79915000Y-74765000D03*
X85648627Y-80287781D03*
D23*
%TO.N,AGND*%
X81665000Y-84625000D03*
X77195000Y-85355000D03*
D24*
%TO.N,VDDA*%
X81630000Y-85575000D03*
X79425000Y-85675000D03*
D23*
%TO.N,RESET*%
X84275000Y-100725000D03*
X77595000Y-94665000D03*
%TO.N,Net-(D3-K)*%
X120593000Y-102404600D03*
%TO.N,TRACESWO*%
X89215000Y-97195000D03*
X89733883Y-78686283D03*
X89275000Y-99969961D03*
%TO.N,/OUT2*%
X100860000Y-95360000D03*
X70250200Y-84777000D03*
%TO.N,/OUT1*%
X100185000Y-94655000D03*
X71113800Y-83811800D03*
%TO.N,Net-(R8-Pad2)*%
X121202600Y-97832600D03*
%TO.N,USB_D+*%
X96335000Y-80950000D03*
X103013044Y-72053799D03*
X117415000Y-70680000D03*
X100304834Y-74734834D03*
%TO.N,USB_D-*%
X117415000Y-71430000D03*
X103609618Y-72420000D03*
X100835166Y-75265166D03*
X96685000Y-81635000D03*
%TO.N,/UART3_RX*%
X97095000Y-91985000D03*
%TO.N,/IN1*%
X95928629Y-84891371D03*
X101185000Y-80205000D03*
%TO.N,/IN3*%
X110435000Y-88285000D03*
X97575000Y-84576397D03*
%TO.N,/ENA*%
X88015000Y-87155000D03*
X100755000Y-78645000D03*
%TO.N,/IN4*%
X96925000Y-83275000D03*
X110555000Y-78855000D03*
%TO.N,/ENB*%
X88915000Y-87335000D03*
X110465000Y-89575000D03*
%TO.N,/UART3_TX*%
X97095000Y-91284997D03*
%TO.N,/IN2*%
X101435000Y-87735000D03*
X97615000Y-85385000D03*
%TO.N,Net-(D1-A)*%
X116224200Y-102404600D03*
%TO.N,/SDA_P*%
X88035000Y-80155000D03*
X111465000Y-73745000D03*
%TO.N,Net-(J1-Pin_3)*%
X116290000Y-92651000D03*
%TO.N,/SCL_N*%
X111435000Y-72985000D03*
X88302648Y-79508186D03*
%TD*%
D26*
%TO.N,BUZZER*%
X90795000Y-80915000D02*
X93045000Y-80915000D01*
X99875000Y-74085000D02*
X110915000Y-74085000D01*
X123981587Y-96621587D02*
X124555000Y-97195000D01*
X90725000Y-80845000D02*
X90795000Y-80915000D01*
X123981587Y-87151587D02*
X123981587Y-96621587D01*
X110915000Y-74085000D02*
X123981587Y-87151587D01*
X93045000Y-80915000D02*
X99875000Y-74085000D01*
D27*
%TO.N,GND*%
X136005000Y-88125000D02*
X149495000Y-88125000D01*
X125702600Y-59834200D02*
X125702600Y-61534200D01*
X118702600Y-59834200D02*
X118702600Y-61534200D01*
X118702600Y-61534200D02*
X119702600Y-62534200D01*
X125702600Y-61534200D02*
X124702600Y-62534200D01*
X119702600Y-62534200D02*
X124702600Y-62534200D01*
X149495000Y-88125000D02*
X149515000Y-88105000D01*
X117165000Y-60125000D02*
X118411800Y-60125000D01*
X118411800Y-60125000D02*
X118702600Y-59834200D01*
%TO.N,3.3V*%
X147315000Y-86590000D02*
X136020000Y-86590000D01*
X136005000Y-86575000D02*
X134345000Y-86575000D01*
X136020000Y-86590000D02*
X136005000Y-86575000D01*
X134345000Y-86575000D02*
X133705000Y-85935000D01*
D26*
%TO.N,AGND*%
X78895000Y-84625000D02*
X81665000Y-84625000D01*
X77195000Y-85355000D02*
X78165000Y-85355000D01*
X78165000Y-85355000D02*
X78895000Y-84625000D01*
D27*
%TO.N,VDDA*%
X79425000Y-85675000D02*
X81530000Y-85675000D01*
X81530000Y-85675000D02*
X81630000Y-85575000D01*
D26*
%TO.N,RESET*%
X77615000Y-94665000D02*
X77595000Y-94665000D01*
X84275000Y-100725000D02*
X83675000Y-100725000D01*
X83675000Y-100725000D02*
X77615000Y-94665000D01*
%TO.N,Net-(D3-K)*%
X120593000Y-102404600D02*
X120593000Y-101947400D01*
%TO.N,TRACESWO*%
X87849297Y-78915000D02*
X86365000Y-80399297D01*
X86365000Y-94345000D02*
X89215000Y-97195000D01*
X89733883Y-78686283D02*
X89505166Y-78915000D01*
X89505166Y-78915000D02*
X87849297Y-78915000D01*
X86365000Y-80399297D02*
X86365000Y-94345000D01*
X89275000Y-99969961D02*
X89275000Y-103145000D01*
%TO.N,/OUT2*%
X100860000Y-95360000D02*
X100860000Y-96170000D01*
X97765000Y-99265000D02*
X84789000Y-99265000D01*
X100860000Y-96170000D02*
X97765000Y-99265000D01*
X84789000Y-99265000D02*
X70301000Y-84777000D01*
X70301000Y-84777000D02*
X70250200Y-84777000D01*
%TO.N,/OUT1*%
X100185000Y-94655000D02*
X100185000Y-95675000D01*
X97385000Y-98475000D02*
X85777000Y-98475000D01*
X85777000Y-98475000D02*
X71113800Y-83811800D01*
X100185000Y-95675000D02*
X97385000Y-98475000D01*
%TO.N,Net-(R8-Pad2)*%
X120593000Y-99801600D02*
X120593000Y-98442200D01*
X120593000Y-98442200D02*
X121202600Y-97832600D01*
D28*
%TO.N,USB_D+*%
X99830000Y-75421801D02*
X100304834Y-74946967D01*
X117265001Y-70829999D02*
X117415000Y-70680000D01*
X103198002Y-72053799D02*
X104421802Y-70829999D01*
X96898975Y-80950000D02*
X99830000Y-78018975D01*
X99830000Y-78018975D02*
X99830000Y-75421801D01*
X100304834Y-74946967D02*
X100304834Y-74734834D01*
X104421802Y-70829999D02*
X117265001Y-70829999D01*
X96335000Y-80950000D02*
X96898975Y-80950000D01*
X103013044Y-72053799D02*
X103198002Y-72053799D01*
%TO.N,USB_D-*%
X96850373Y-81635000D02*
X100280000Y-78205373D01*
X100280000Y-75608199D02*
X100623033Y-75265166D01*
X100280000Y-78205373D02*
X100280000Y-75608199D01*
X104608198Y-71280001D02*
X117265001Y-71280001D01*
X103609618Y-72278581D02*
X104608198Y-71280001D01*
X100623033Y-75265166D02*
X100835166Y-75265166D01*
X96685000Y-81635000D02*
X96850373Y-81635000D01*
X103609618Y-72420000D02*
X103609618Y-72278581D01*
X117265001Y-71280001D02*
X117415000Y-71430000D01*
D26*
%TO.N,/UART3_RX*%
X150183800Y-103776200D02*
X154525000Y-99435000D01*
X97095000Y-91985000D02*
X97105000Y-91995000D01*
X154525000Y-99435000D02*
X154525000Y-86305000D01*
X128670200Y-103776200D02*
X150183800Y-103776200D01*
X97105000Y-91995000D02*
X116889000Y-91995000D01*
X116889000Y-91995000D02*
X128670200Y-103776200D01*
X154525000Y-86305000D02*
X151995800Y-83775800D01*
%TO.N,/IN1*%
X101185000Y-80205000D02*
X101133224Y-80205000D01*
X96446853Y-84891371D02*
X95928629Y-84891371D01*
X101133224Y-80205000D02*
X96446853Y-84891371D01*
%TO.N,/IN3*%
X97575000Y-84576397D02*
X99089570Y-84576397D01*
X99089570Y-84576397D02*
X102798173Y-88285000D01*
X102798173Y-88285000D02*
X110435000Y-88285000D01*
%TO.N,/ENA*%
X96686827Y-82700000D02*
X96350000Y-83036827D01*
X92655000Y-86735000D02*
X88435000Y-86735000D01*
X96350000Y-83040000D02*
X92655000Y-86735000D01*
X88435000Y-86735000D02*
X88015000Y-87155000D01*
X100745000Y-78645000D02*
X96690000Y-82700000D01*
X96690000Y-82700000D02*
X96686827Y-82700000D01*
X100755000Y-78645000D02*
X100745000Y-78645000D01*
X96350000Y-83036827D02*
X96350000Y-83040000D01*
%TO.N,/IN4*%
X101525000Y-78855000D02*
X110555000Y-78855000D01*
X96925000Y-83275000D02*
X97105000Y-83275000D01*
X97105000Y-83275000D02*
X101525000Y-78855000D01*
%TO.N,/ENB*%
X88925000Y-87325000D02*
X88915000Y-87335000D01*
X95155000Y-89575000D02*
X92905000Y-87325000D01*
X110465000Y-89575000D02*
X95155000Y-89575000D01*
X92905000Y-87325000D02*
X88925000Y-87325000D01*
%TO.N,/UART3_TX*%
X97095000Y-91284997D02*
X117234997Y-91284997D01*
X150475000Y-101696200D02*
X150475000Y-87695000D01*
X148845000Y-103326200D02*
X150475000Y-101696200D01*
X151854200Y-86315800D02*
X152139800Y-86315800D01*
X150475000Y-87695000D02*
X151854200Y-86315800D01*
X129276200Y-103326200D02*
X148845000Y-103326200D01*
X117234997Y-91284997D02*
X129276200Y-103326200D01*
%TO.N,/IN2*%
X99085000Y-85385000D02*
X101435000Y-87735000D01*
X97615000Y-85385000D02*
X99085000Y-85385000D01*
%TO.N,Net-(D1-A)*%
X116224200Y-102404600D02*
X116224200Y-101451600D01*
%TO.N,/SDA_P*%
X88055000Y-80135000D02*
X88035000Y-80155000D01*
X99255000Y-73505000D02*
X92625000Y-80135000D01*
X111141827Y-73505000D02*
X99255000Y-73505000D01*
X111465000Y-73745000D02*
X111381827Y-73745000D01*
X111381827Y-73745000D02*
X111141827Y-73505000D01*
X92625000Y-80135000D02*
X88055000Y-80135000D01*
%TO.N,Net-(J1-Pin_3)*%
X116224200Y-92716800D02*
X116290000Y-92651000D01*
X116224200Y-99801600D02*
X116224200Y-92716800D01*
%TO.N,/SCL_N*%
X88305834Y-79505000D02*
X92337000Y-79505000D01*
X88302648Y-79508186D02*
X88305834Y-79505000D01*
X98847000Y-72995000D02*
X111425000Y-72995000D01*
X111425000Y-72995000D02*
X111435000Y-72985000D01*
X92337000Y-79505000D02*
X98847000Y-72995000D01*
%TD*%
M02*
